<?xml version="1.0" encoding="UTF-8"?>
<svg xmlns="http://www.w3.org/2000/svg" viewBox="0 0 24 24">
  <path d="M6.4,4h7.8c1.4,0,2.6,0.3,3.5,1c0.9,0.7,1.3,1.7,1.3,3c0,0.8-0.2,1.5-0.6,2.1c-0.4,0.6-1,1-1.7,1.3v0   c1,0.2,1.7,0.7,2.2,1.4c0.5,0.7,0.8,1.6,0.8,2.7c0,0.6-0.1,1.2-0.3,1.8c-0.2,0.5-0.6,1-1.1,1.4c-0.5,0.4-1.1,0.7-1.8,0.9   c-0.7,0.2-1.6,0.3-2.7,0.3H6.4V4z M9.2,10.7h4.6c0.7,0,1.2-0.2,1.7-0.6c0.4-0.4,0.7-0.9,0.7-1.6c0-0.8-0.2-1.4-0.6-1.7   c-0.4-0.3-1-0.5-1.7-0.5H9.2V10.7z M9.2,17.7h5c0.9,0,1.5-0.2,2-0.7c0.5-0.4,0.7-1.1,0.7-1.9c0-0.8-0.2-1.4-0.7-1.8   c-0.5-0.4-1.1-0.6-2-0.6h-5V17.7z"></path>
</svg>
