<?xml version="1.0" encoding="UTF-8"?>
<svg xmlns="http://www.w3.org/2000/svg" viewBox="0 0 24 24">
  <path d="M14.9,14.1c-0.6,0.6-1.2,1-1.6,1.2c-0.5,0.2-1,0.3-1.4,0.3c-0.6,0-1.1-0.2-1.4-0.6c-0.4-0.4-0.5-0.9-0.5-1.6l0-0.7l0.1,0   c1.7-0.3,2.9-0.6,3.7-1c0.8-0.4,1.4-0.8,1.7-1.2c0.4-0.5,0.5-0.9,0.5-1.4c0-0.6-0.2-1-0.6-1.4c-0.4-0.4-1.1-0.5-1.9-0.5   c-1.1,0-2.2,0.3-3.1,0.8c-1,0.5-1.7,1.2-2.3,2.1C7.5,11,7.2,12,7.2,12.9c0,1.1,0.3,1.9,1,2.6c0.7,0.6,1.6,0.9,2.7,0.9   c0.8,0,1.6-0.2,2.3-0.5c0.7-0.3,1.4-0.8,2.1-1.6C15.2,14.3,15,14.1,14.9,14.1z M10,12.1c0.2-1.4,0.7-2.5,1.3-3.3   c0.4-0.6,0.9-0.9,1.4-0.9c0.3,0,0.5,0.1,0.7,0.3c0.2,0.2,0.3,0.5,0.3,0.8c0,0.8-0.4,1.5-1.1,2.2c-0.5,0.5-1.4,0.8-2.5,1l-0.2,0   L10,12.1z"></path>
  <path d="M3.5,14.3c-0.9-3.7,1.3-7.6,5.2-9.4C8.6,4.9,8.5,5,8.4,5c0.1,0,0.2-0.1,0.3-0.1L1.4,6.8l1.9,1.1   c-2.5,2.1-3.8,4.8-3.2,7.2C1.1,19,6.5,21,12.5,20C8.3,20.3,4.5,18,3.5,14.3z"></path>
  <path d="M23.8,8.9C22.9,5,17.5,3,11.5,4c4.2-0.3,8.1,2,9,5.7c0.9,3.7-1.3,7.6-5.2,9.4c0.1,0,0.2-0.1,0.3-0.1   c-0.1,0-0.2,0.1-0.3,0.1l7.2-1.9l-1.9-1.1C23.2,13.9,24.5,11.3,23.8,8.9z"></path>
</svg>
