<?xml version="1.0" encoding="UTF-8"?>
<svg xmlns="http://www.w3.org/2000/svg" viewBox="0 0 24 24">
  <path d="M18.8,12.6c0.1-0.1,0.2-0.2,0.3-0.3c0.3-0.4,0.6-0.9,0.7-1.5c0.2-0.9,0.1-1.8-0.1-2.7c0-0.1,0-0.2,0-0.2  c0.4-1,0.3-2.1,0.1-3.1c0,0,0-0.1,0-0.1c-0.1,0-0.1,0-0.1,0.1c-0.2,0.3-0.4,0.5-0.6,0.7c-0.1,0.1-0.1,0.1-0.2,0  c-0.2-0.4-0.4-0.8-0.7-1.2c0,0,0,0,0-0.1c0.3-1,0.2-1.9-0.3-2.7c0-0.1-0.1-0.1-0.1-0.1c-0.1,0-0.1,0.1-0.1,0.2  c-0.1,0.5-0.3,1-0.7,1.4c-0.4-0.3-0.7-0.7-1.2-0.9c-0.5-0.3-1-0.6-1.6-0.7c-0.2,0-0.3,0-0.2,0.2c0,0.2,0.1,0.4,0.1,0.6  c-0.4-0.3-0.8-0.6-1.2-0.9C12.9,1.6,13,1.9,13,2.2c0,0.1,0,0.2-0.1,0.1c-0.4-0.1-0.7-0.2-1.1-0.3C10.9,1.8,10,1.7,9.1,1.8  c-0.1,0-0.1,0-0.2,0C8.9,1.9,9,1.9,9,2c0.1,0.1,0.2,0.3,0.3,0.4c0,0,0,0.1,0,0.1c0,0-0.1,0-0.1,0C9.1,2.4,9,2.3,8.8,2.3  c0,0-0.1,0-0.1,0c0,0,0,0.1,0,0.1C8.8,2.5,8.9,2.7,9,2.8C9,2.9,9,3,8.9,3C8.5,3,8.1,3,7.7,3C7.7,3,7.6,3,7.6,3c0.1,0,0.1,0,0.2,0  c0,0,0,0,0-0.1C7.3,2.3,7.1,1.7,7,1.1C7,1,7,1,6.9,1C6.4,1.6,6.2,2.4,6.2,3.2C6,3.3,5.9,3.3,5.7,3.3c-0.1,0-0.1,0.1,0,0.2  c0.1,0.1,0.2,0.2,0.3,0.4C6,3.9,6,3.9,6,4C6,4,5.9,4,5.9,4c-0.2,0-0.3,0-0.5,0c-0.2,0-0.4,0-0.6,0c0.3,0.3,0.5,0.5,0.7,0.8  c0.1,0.1,0.1,0.2,0,0.2C5.2,5.2,4.9,5.4,4.6,5.7C4.6,5.8,4.2,6,4.2,6.1c0,0,0,0,0,0c0,0,0,0,0,0c0.2,0.3,0.4,0.5,0.6,0.8  c0.4,0.6,0.9,1.1,1.3,1.7C6.3,8.8,6.4,8.9,6.5,9c0.1,0.1,0.1,0.1,0.3,0c0.3-0.2,0.6-0.5,0.9-0.7c0.3-0.2,0.7-0.3,1-0.5  c0,0,0,0,0.1,0c1.1-0.5,2.3-0.6,3.6-0.5c0.6,0.1,1.3,0.2,1.8,0.7c0,0,0,0,0.1,0l0,0c0,0,0,0,0,0l0,0c0,0,0,0,0,0c0,0,0,0.1,0.1,0.1  c0,0.1,0.1,0.2,0.1,0.3c0.2,0.5,0,1-0.4,1.2c-0.6,0.4-1.3,0.5-1.9,0.3c-0.5-0.1-0.8-0.4-1.2-0.7c0,0-0.1-0.1-0.2-0.1  c0,0.1,0,0.3,0.1,0.4c0,0.1,0,0.2-0.2,0.1c-0.2-0.1-0.3-0.2-0.5-0.2c0.1,0.2,0.1,0.3,0.2,0.5c0.1,0.2,0.1,0.2-0.2,0.3  c-0.2,0-0.7,0.1-1,0.1c0,0-0.1-0.3-0.1-0.3C9,10.3,8.9,10,8.9,10s0,0,0,0c0,0,0,0.3,0,0.3s0,2.9,0,4.2c0,0.1,0,0.2,0,0.3  c0,0.1,0.1,0.1,0.1,0.1c0.3,0,0.7,0,1,0c1,0,2.1-0.1,3.1,0.1c0.4,0.1,0.8,0.2,1.2,0.4c0.3,0.2,0.6,0.5,0.5,1c0,0,0,0,0,0  c0,0,0,0,0,0c-0.1,0.1-0.2,0.3-0.4,0.4C14,17,13.6,17,13.1,16.9c-0.3,0-0.6-0.1-1-0.2c0.2,0.2,0.3,0.3,0.5,0.5c0,0,0.1,0.1,0.1,0.1  c0,0-0.1,0-0.1,0c-0.3,0-0.6-0.1-0.9-0.1c0,0-0.1,0-0.1,0c0,0.1,0,0.1,0.1,0.1c0.1,0.1,0.2,0.2,0.3,0.4c-0.1,0-0.1,0-0.2,0  c-0.5-0.1-0.9-0.3-1.3-0.4c-0.8-0.4-1.4-0.9-2-1.5c0,0-0.1-0.1-0.2-0.1c0,0.2,0.1,0.3,0.1,0.4c0,0.1,0.1,0.2,0,0.2  c-0.1,0.1-0.1,0-0.2-0.1c-0.2-0.1-0.3-0.2-0.5-0.3c-0.1,0-0.2-0.1-0.3-0.1c0.1,0.3,0.2,0.5,0.3,0.8c0,0,0,0,0,0  c-0.1,0-0.1-0.1-0.2-0.1c-0.2-0.1-0.5-0.3-0.7-0.4h0c-0.1-0.1-0.1,0-0.1,0c-0.8,1-1.6,2.1-2.3,3.1c-0.1,0.1,0,0.1,0,0.2  c0.3,0.3,0.5,0.5,0.8,0.7c0,0.1,0.1,0.1,0.1,0.1c0.1,0.1,0.3,0.2,0.4,0.3C5.5,21,5.6,21,5.6,21c0.3,0.2,0.6,0.4,0.9,0.6  c1.3,0.8,2.8,1.2,4.3,1.2c0.7,0,1.5-0.1,2.2-0.2c0.2,0,0.3,0,0.2,0.2c0,0.1,0,0.1,0.1,0.1c0.2,0,0.5-0.1,0.7-0.2  c0.1,0,0.1-0.1,0.1,0c0,0.2,0.1,0.2,0.2,0.1c1.1-0.2,2-0.8,2.9-1.4c0.3-0.2,0.5-0.4,0.8-0.6c0,0,0-0.1,0.1-0.1  c0.8-0.8,1.3-1.7,1.5-2.8c0.1-0.4,0.1-0.7,0.1-1.1c0,0,0-0.1,0-0.1c0,0,0,0,0,0c0,0,0,0,0,0c0,0,0.1,0,0.1,0c0,0,0.1,0,0.1,0  c0,0,0,0,0-0.1c0-0.7-0.3-1.4-0.6-2C19,14,18.3,13.4,17.5,13c-0.1,0-0.2,0-0.2-0.1c0-0.1,0.1-0.1,0.1-0.1c0.2-0.1,0.4-0.2,0.6-0.3  c-0.2-0.1-0.5-0.2-0.7-0.3c0.6-0.3,1-0.7,1.3-1.2c0.1-0.1,0.1,0,0.1,0c0.1,0.3,0.1,0.6,0.1,0.9C18.8,12.2,18.8,12.4,18.8,12.6z   M7.3,3c-0.1,0-0.3,0.1-0.4,0c-0.1-0.4-0.1-1,0-1.3C7,2.2,7.2,2.6,7.3,3C7.3,3,7.3,3,7.3,3z M16.5,4.9c-0.1,0.1-0.1,0-0.2,0  c-0.1-0.1-0.2-0.2-0.2-0.4c0-0.1,0-0.1,0.1-0.2c0.1-0.1,0.3-0.3,0.4-0.4c0.6-0.5,0.9-1.1,1.1-1.8c0,0,0-0.1,0-0.1  C17.8,3.2,17.4,4.2,16.5,4.9z"></path>
</svg>
