<?xml version="1.0" encoding="UTF-8"?>
<svg xmlns="http://www.w3.org/2000/svg" viewBox="0 0 24 24">
  <path d="M5,0h1.1v1.1h1V0h1.1v3.2H7.1V2.2h-1v1.1H5C5,3.2,5,0,5,0z"></path>
  <path d="M9.6,1.1h-1V0h3v1.1h-1v2.2H9.6L9.6,1.1L9.6,1.1z"></path>
  <path d="M12.1,0h1.1L14,1.1L14.7,0h1.1v3.2h-1.1V1.6L14,2.8h0l-0.7-1.2v1.6h-1.1V0z"></path>
  <path d="M16.3,0h1.1v2.2h1.5v1.1h-2.6V0z"></path>
  <path d="M3.5,4.7L5,22.1l7,1.9l7-1.9l1.6-17.4H3.5z M7.6,19.1l-0.3-3.4h2.1l0.2,1.8l2.4,0.6l0,0v0l2.4-0.6l0.2-2.8H12     h0H7.2L6.7,8.2H12h5.3l-0.2,2.1H12H9l0.2,2.2H12h5l-0.6,6.6L12,20.3l0,0L7.6,19.1z"></path>
</svg>
