<?xml version="1.0" encoding="UTF-8"?>
<svg xmlns="http://www.w3.org/2000/svg" viewBox="0 0 24 24">
  <path d="M3,3v18h18V3H3z M12.8,17c0,1.8-1,2.5-2.5,2.5c-1.4,0-2.1-0.7-2.5-1.5l0,0l0,0c0,0,0,0,0,0l1.4-0.8c0.3,0.5,0.5,0.9,1.1,0.9  c0.6,0,0.9-0.2,0.9-1.1v-5.8h1.7V17z M16.8,19.6c-1.6,0-2.6-0.7-3.1-1.7h0l1.4-0.8c0.4,0.6,0.8,1,1.7,1c0.7,0,1.1-0.4,1.1-0.8  c0-0.6-0.5-0.8-1.2-1.1L16.3,16c-1.2-0.5-2-1.2-2-2.5c0-1.3,1-2.2,2.5-2.2c1.1,0,1.8,0.4,2.4,1.4l-1.3,0.8c-0.3-0.5-0.6-0.7-1.1-0.7  c-0.5,0-0.8,0.3-0.8,0.7c0,0.5,0.3,0.7,1,1l0.4,0.2c1.4,0.6,2.2,1.2,2.2,2.7C19.6,18.8,18.4,19.6,16.8,19.6z"></path>
</svg>
