<?xml version="1.0" encoding="UTF-8"?>
<svg xmlns="http://www.w3.org/2000/svg" viewBox="0 0 24 24">
  <path d="M22,2.9c-0.7-2.8-5.4-3.7-9.8-2.2C9.5,1.7,6.7,3.2,4.6,5.1c-2.4,2.3-2.8,4.3-2.7,5.1c0.6,2.9,4.6,4.8,6.2,6.3v0     c-0.5,0.2-4,2-4.9,3.9c-0.9,1.9,0.1,3.3,0.8,3.5c2.1,0.6,4.2-0.5,5.4-2.2c1.1-1.7,1-3.8,0.5-4.9c0.7-0.2,1.4-0.3,2.4-0.1     c2.8,0.3,3.3,2.1,3.2,2.8c-0.1,0.7-0.7,1.1-0.9,1.2c-0.2,0.1-0.3,0.2-0.2,0.3c0,0.1,0.1,0.1,0.3,0.1c0.2,0,1.5-0.6,1.5-1.9     c0.1-1.7-1.6-3.6-4.5-3.6c-1.2,0-1.9,0.1-2.5,0.3c0,0-0.1-0.1-0.1-0.1c-1.8-1.9-5.1-3.3-5-5.8C4.4,9,4.7,6.5,10.7,3.6     c4.9-2.4,8.8-1.8,9.5-0.3c1,2.1-2.1,6.1-7.2,6.6c-1.9,0.2-3-0.5-3.2-0.8C9.5,8.8,9.5,8.8,9.4,8.9c-0.2,0.1-0.1,0.4,0,0.5     c0.2,0.4,0.8,1.1,1.8,1.4c0.9,0.3,3.2,0.5,6-0.6C20.3,9,22.7,5.7,22,2.9z M8.8,17.3c0.2,0.9,0.2,1.7,0,2.4c0,0.1-0.1,0.2-0.1,0.2     c0,0.1-0.1,0.2-0.1,0.2c-0.2,0.4-0.4,0.7-0.7,1.1c-0.9,1-2.2,1.4-2.8,1.1c-0.6-0.3-0.3-1.8,0.8-2.9c1.2-1.2,2.8-2,2.8-2l0,0     C8.8,17.4,8.8,17.3,8.8,17.3z"></path>
</svg>
