<?xml version="1.0" encoding="UTF-8" standalone="no"?>
<svg xmlns="http://www.w3.org/2000/svg" xmlns:xlink="http://www.w3.org/1999/xlink" xmlns:serif="http://www.serif.com/" width="100%" height="100%" viewBox="0 0 24 24" xml:space="preserve" style="fill-rule:evenodd;clip-rule:evenodd;stroke-linejoin:round;stroke-miterlimit:2;">
  <path d="M12,5.453c-2.927,0 -4.756,1.455 -5.489,4.365c1.098,-1.455 2.379,-2 3.842,-1.637c0.835,0.207 1.433,0.81 2.093,1.477c1.076,1.085 2.322,2.342 5.043,2.342c2.927,0 4.756,-1.455 5.488,-4.364c-1.097,1.455 -2.378,2 -3.842,1.636c-0.835,-0.207 -1.432,-0.81 -2.092,-1.476c-1.077,-1.087 -2.322,-2.343 -5.043,-2.343Zm-5.489,6.547c-2.927,-0 -4.756,1.455 -5.488,4.365c1.098,-1.455 2.378,-2.001 3.842,-1.637c0.835,0.207 1.432,0.81 2.092,1.476c1.077,1.086 2.322,2.343 5.043,2.343c2.927,-0 4.757,-1.455 5.489,-4.365c-1.098,1.455 -2.379,2.001 -3.842,1.637c-0.835,-0.207 -1.433,-0.81 -2.093,-1.476c-1.076,-1.086 -2.322,-2.343 -5.043,-2.343Z"></path>
</svg>
