<?xml version="1.0" encoding="UTF-8" standalone="no"?>
<svg xmlns="http://www.w3.org/2000/svg" xmlns:xlink="http://www.w3.org/1999/xlink" xmlns:serif="http://www.serif.com/" width="100%" height="100%" viewBox="0 0 24 24" xml:space="preserve" style="fill-rule:evenodd;clip-rule:evenodd;stroke-linejoin:round;stroke-miterlimit:2;">
  <path d="M12.013,1.5l-0.037,0l-0.036,0.002l-0.036,0.004l-0.018,0.003l-0.018,0.003l-0.019,0.003l-0.017,0.004l-0.019,0.005l-0.017,0.004l-0.019,0.006l-0.017,0.005l-0.018,0.006l-0.017,0.007l-0.017,0.007l-0.018,0.008l-0.015,0.007l-0.019,0.009l-0.013,0.007l-0.021,0.012l-9,5.25l-0.022,0.013l-0.03,0.02l-0.029,0.022l-0.013,0.01l-0.016,0.013l-0.013,0.011l-0.014,0.013l-0.013,0.013l-0.013,0.013l-0.013,0.014l-0.012,0.014l-0.012,0.013l-0.012,0.015l-0.01,0.014l-0.012,0.016l-0.009,0.014l-0.012,0.018l-0.008,0.012l-0.012,0.02l-0.007,0.013l-0.016,0.032l-0.015,0.033l-0.014,0.034l-0.011,0.035l-0.01,0.036l-0.008,0.03l-0.006,0.036l-0.005,0.036l-0.004,0.037l-0.001,0.036l-0,0.012l-0,8.999l0,0.016c0.001,0.045 0.006,0.091 0.015,0.136c0.013,0.062 0.034,0.122 0.061,0.178l0.014,0.028l0.019,0.033l0.004,0.007l0.016,0.023l0.005,0.008l0.016,0.022l0.006,0.008l0.016,0.021l0.007,0.008l0.017,0.019l0.026,0.027l0.027,0.026l0.029,0.024l0.03,0.023l0.031,0.022l0.022,0.013l0.011,0.007l9,5.25l0.021,0.012l0.032,0.016l0.033,0.015l0.017,0.007l0.017,0.007l0.018,0.006l0.017,0.005l0.019,0.006l0.017,0.004l0.019,0.005l0.017,0.004l0.019,0.003l0.018,0.003l0.018,0.003l0.019,0.002l0.017,0.002l0.021,0.001l0.026,0.001l0.026,-0l0.026,-0.001l0.021,-0.001l0.036,-0.004l0.018,-0.003l0.018,-0.003l0.019,-0.003l0.017,-0.004l0.019,-0.005l0.017,-0.004l0.019,-0.006l0.017,-0.005l0.018,-0.006l0.017,-0.007l0.017,-0.007l0.018,-0.008l0.015,-0.007l0.019,-0.009l0.013,-0.007l0.021,-0.012l9,-5.25l0.011,-0.007l0.022,-0.013l0.031,-0.022l0.03,-0.023l0.021,-0.018l0.008,-0.006l0.019,-0.019l0.008,-0.007l0.018,-0.019l0.008,-0.008l0.017,-0.019l0.023,-0.029l0.022,-0.03l0.021,-0.031l0.019,-0.033l0.018,-0.035c0.027,-0.056 0.048,-0.116 0.061,-0.178c0.009,-0.045 0.014,-0.091 0.015,-0.136l0,-0.016l0,-8.999l0,-0.012l-0.001,-0.036l-0.004,-0.037l-0.005,-0.036l-0.006,-0.036l-0.008,-0.03l-0.01,-0.036l-0.011,-0.035l-0.014,-0.034l-0.015,-0.033l-0.016,-0.032l-0.007,-0.013l-0.012,-0.02l-0.008,-0.012l-0.012,-0.018l-0.009,-0.014l-0.012,-0.016l-0.01,-0.014l-0.012,-0.015l-0.012,-0.013l-0.012,-0.014l-0.013,-0.014l-0.013,-0.013l-0.013,-0.013l-0.014,-0.013l-0.013,-0.011l-0.016,-0.013l-0.013,-0.01l-0.017,-0.013l-0.012,-0.009l-0.019,-0.013l-0.022,-0.013l-0.011,-0.007l-9,-5.25l-0.021,-0.012l-0.032,-0.016l-0.033,-0.015l-0.017,-0.007l-0.017,-0.007l-0.018,-0.006l-0.017,-0.005l-0.019,-0.006l-0.017,-0.004l-0.019,-0.005l-0.017,-0.004l-0.019,-0.003l-0.018,-0.003l-0.018,-0.003l-0.019,-0.002l-0.017,-0.002l-0.021,-0.001l-0.026,-0.001Zm0.737,15.425l0,3.519l6.586,-3.841l-3.529,-1.513l-3.057,1.835Zm-8.086,-0.322l6.586,3.841l-0,-3.519l-3.057,-1.835l-3.529,1.513Zm11.836,-6.014l0,3.166l3.75,1.608l0,-6.65l-3.75,1.876Zm-12.75,4.774l3.75,-1.608l-0,-3.166l-3.75,-1.876l-0,6.65Zm9,-2.899l0,2.711l2.25,-1.35l0,-2.486l-2.25,1.125Zm-3.75,1.361l2.25,1.35l-0,-2.711l-2.25,-1.125l-0,2.486Zm0.466,-3.93l2.534,1.266l2.534,-1.266l-2.534,-1.52l-2.534,1.52Zm-4.891,-2.446l3.301,1.651l3.374,-2.025l-0,-3.519l-6.675,3.893Zm8.175,-0.374l3.374,2.025l3.301,-1.651l-6.675,-3.893l0,3.519Z"></path>
</svg>
