<svg xmlns="http://www.w3.org/2000/svg"><symbol viewBox="0 0 24 24" id="polymer"><path d="M19 4h-4L7.11 16.63 4.5 12 9 4H5L.5 12 5 20h4l7.89-12.63L19.5 12 15 20h4l4.5-8z"/></symbol><symbol viewBox="0 0 24 24" id="sass"><path d="M22 2.9C21.3.1 16.6-.8 12.2.7c-2.7 1-5.5 2.5-7.6 4.4-2.4 2.3-2.8 4.3-2.7 5.1.6 2.9 4.6 4.8 6.2 6.3-.5.2-4 2-4.9 3.9-.9 1.9.1 3.3.8 3.5 2.1.6 4.2-.5 5.4-2.2 1.1-1.7 1-3.8.5-4.9.7-.2 1.4-.3 2.4-.1 2.8.3 3.3 2.1 3.2 2.8-.1.7-.7 1.1-.9 1.2-.2.1-.3.2-.2.3 0 .1.1.1.3.1.2 0 1.5-.6 1.5-1.9.1-1.7-1.6-3.6-4.5-3.6-1.2 0-1.9.1-2.5.3l-.1-.1c-1.8-1.9-5.1-3.3-5-5.8.3-1 .6-3.5 6.6-6.4 4.9-2.4 8.8-1.8 9.5-.3 1 2.1-2.1 6.1-7.2 6.6-1.9.2-3-.5-3.2-.8-.3-.3-.3-.3-.4-.2-.2.1-.1.4 0 .5.2.4.8 1.1 1.8 1.4.9.3 3.2.5 6-.6C20.3 9 22.7 5.7 22 2.9zM8.8 17.3c.2.9.2 1.7 0 2.4 0 .1-.1.2-.1.2 0 .1-.1.2-.1.2-.2.4-.4.7-.7 1.1-.9 1-2.2 1.4-2.8 1.1-.6-.3-.3-1.8.8-2.9 1.2-1.2 2.8-2 2.8-2 .1 0 .1-.1.1-.1z"/></symbol><symbol viewBox="0 0 24 24" id="css"><path d="M9.5 1.1V0H6.9v3.2h2.6V2.1H8v-1zM13.3 0h-2.7v1.1l1.1 1h-1.1v1.1h2.7v-1l-1-1.1h1zM17.1 0h-2.6v1.1l1 1h-1v1.1h2.6v-1l-1-1.1h1zM3.5 4.7L5 22.1l7 1.9 7-1.9 1.5-17.4h-17zm13.6 5.6L12 12.5h4.9l-.6 6.6-4.3 1.2-4.4-1.2-.3-3.3h2.1l.2 1.7 2.4.6 2.4-.7.2-2.8H7.2L7 12.5l5-2.1.3-.1H6.8l-.1-2.2h10.6l-.2 2.2z"/></symbol><symbol viewBox="0 0 24 24" id="html"><path d="M5 0h1.1v1.1h1V0h1.1v3.2H7.1v-1h-1v1.1H5V0zM9.6 1.1h-1V0h3v1.1h-1v2.2h-1V1.1zM12.1 0h1.1l.8 1.1.7-1.1h1.1v3.2h-1.1V1.6L14 2.8l-.7-1.2v1.6h-1.1V0zM16.3 0h1.1v2.2h1.5v1.1h-2.6V0z"/><path class="st0" d="M3.5 4.7L5 22.1l7 1.9 7-1.9 1.6-17.4H3.5zm4.1 14.4l-.3-3.4h2.1l.2 1.8 2.4.6 2.4-.6.2-2.8H7.2l-.5-6.5h10.6l-.2 2.1H9l.2 2.2H17l-.6 6.6-4.4 1.2-4.4-1.2z"/></symbol><symbol viewBox="0 0 24 24" id="javascript"><path d="M3 3v18h18V3H3zm9.8 14c0 1.8-1 2.5-2.5 2.5-1.4 0-2.1-.7-2.5-1.5l1.4-.8c.3.5.5.9 1.1.9.6 0 .9-.2.9-1.1v-5.8h1.7V17zm4 2.6c-1.6 0-2.6-.7-3.1-1.7l1.4-.8c.4.6.8 1 1.7 1 .7 0 1.1-.4 1.1-.8 0-.6-.5-.8-1.2-1.1l-.4-.2c-1.2-.5-2-1.2-2-2.5s1-2.2 2.5-2.2c1.1 0 1.8.4 2.4 1.4l-1.3.8c-.3-.5-.6-.7-1.1-.7-.5 0-.8.3-.8.7 0 .5.3.7 1 1l.4.2c1.4.6 2.2 1.2 2.2 2.7 0 1.4-1.2 2.2-2.8 2.2z"/></symbol><symbol viewBox="0 0 24 24" id="expression-engine"><path d="M14.9 14.1c-.6.6-1.2 1-1.6 1.2-.5.2-1 .3-1.4.3-.6 0-1.1-.2-1.4-.6-.4-.4-.5-.9-.5-1.6v-.7h.1c1.7-.3 2.9-.6 3.7-1 .8-.4 1.4-.8 1.7-1.2.4-.5.5-.9.5-1.4 0-.6-.2-1-.6-1.4-.4-.4-1.1-.5-1.9-.5-1.1 0-2.2.3-3.1.8-1 .5-1.7 1.2-2.3 2.1-.6.9-.9 1.9-.9 2.8 0 1.1.3 1.9 1 2.6.7.6 1.6.9 2.7.9.8 0 1.6-.2 2.3-.5.7-.3 1.4-.8 2.1-1.6-.1 0-.3-.2-.4-.2zm-4.9-2c.2-1.4.7-2.5 1.3-3.3.4-.6.9-.9 1.4-.9.3 0 .5.1.7.3.2.2.3.5.3.8 0 .8-.4 1.5-1.1 2.2-.5.5-1.4.8-2.5 1h-.2l.1-.1z"/><path d="M3.5 14.3c-.9-3.7 1.3-7.6 5.2-9.4-.1 0-.2.1-.3.1.1 0 .2-.1.3-.1L1.4 6.8l1.9 1.1C.8 10-.5 12.7.1 15.1 1.1 19 6.5 21 12.5 20c-4.2.3-8-2-9-5.7zM23.8 8.9C22.9 5 17.5 3 11.5 4c4.2-.3 8.1 2 9 5.7.9 3.7-1.3 7.6-5.2 9.4.1 0 .2-.1.3-.1-.1 0-.2.1-.3.1l7.2-1.9-1.9-1.1c2.6-2.2 3.9-4.8 3.2-7.2z"/></symbol><symbol viewBox="0 0 24 24" id="wordpress"><path d="M12 2C6.5 2 2 6.5 2 12s4.5 10 10 10 10-4.5 10-10S17.5 2 12 2zM3 12c0-1.3.3-2.5.8-3.7l4.3 11.8C5.1 18.6 3 15.6 3 12zm9 9c-.9 0-1.7-.1-2.5-.4l2.7-7.8 2.8 7.6s0 .1.1.1c-1 .3-2.1.5-3.1.5zm1.2-13.2c.5 0 1-.1 1-.1.5-.1.4-.8-.1-.7 0 0-1.5.1-2.4.1-.8 0-2.3-.1-2.3-.1-.4-.1-.5.7 0 .7 0 0 .5.1.9.1l1.4 3.8-2 5.9-3.2-9.7c.5 0 1-.1 1-.1.5-.1.4-.8 0-.7 0 0-1.5.1-2.4.1h-.6C6.1 4.6 8.9 3 12 3c2.3 0 4.5.9 6.1 2.4H18c-.9 0-1.5.8-1.5 1.6 0 .7.4 1.4.9 2.1.3.6.7 1.4.7 2.5 0 .8-.3 1.7-.7 2.9l-.9 3-3.3-9.7zm6.7-.1C20.6 9 21 10.4 21 12c0 3.3-1.8 6.2-4.5 7.8l2.7-7.9c.5-1.3.7-2.3.7-3.2v-1z"/></symbol><symbol viewBox="0 0 24 24" id="bootstrap"><path d="M3.7 2h9.7c1.8 0 3.2.4 4.3 1.2 1.1.8 1.6 2.1 1.6 3.7 0 1-.2 1.9-.7 2.6-.5.7-1.2 1.3-2.1 1.7v.1c1.2.3 2.2.8 2.8 1.8.6.9 1 2 1 3.4 0 .8-.1 1.5-.4 2.2-.3.7-.7 1.3-1.3 1.8-.6.5-1.4.9-2.3 1.2-.9.3-2 .4-3.3.4H3.7V2zm3.5 8.4h5.7c.8 0 1.5-.2 2.1-.7.6-.5.8-1.2.8-2.1 0-1-.3-1.7-.8-2.1-.5-.4-1.2-.6-2.2-.6H7.2v5.5zm0 8.7h6.2c1.1 0 1.9-.3 2.5-.8.6-.6.9-1.3.9-2.3 0-1-.3-1.8-.9-2.3-.6-.5-1.4-.8-2.5-.8H7.2v6.2z"/></symbol><symbol viewBox="0 0 24 24" id="foundation"><path d="M18.8 12.6l.3-.3c.3-.4.6-.9.7-1.5.2-.9.1-1.8-.1-2.7v-.2c.4-1 .3-2.1.1-3.1v-.1c-.1 0-.1 0-.1.1-.2.3-.4.5-.6.7-.1.1-.1.1-.2 0-.2-.4-.4-.8-.7-1.2v-.1c.3-1 .2-1.9-.3-2.7 0-.1-.1-.1-.1-.1-.1 0-.1.1-.1.2-.1.5-.3 1-.7 1.4-.4-.3-.7-.7-1.2-.9-.5-.3-1-.6-1.6-.7-.2 0-.3 0-.2.2 0 .2.1.4.1.6l-1.2-.9c0 .3.1.6.1.9 0 .1 0 .2-.1.1-.4-.1-.7-.2-1.1-.3-.9-.2-1.8-.3-2.7-.2h-.2c0 .1.1.1.1.2.1.1.2.3.3.4v.1h-.1c-.1-.1-.2-.2-.4-.2h-.1v.1c.1.1.2.3.3.4 0 .1 0 .2-.1.2H7.7h-.1.2v-.1c-.5-.6-.7-1.2-.8-1.8C7 1 7 1 6.9 1c-.5.6-.7 1.4-.7 2.2-.2.1-.3.1-.5.1-.1 0-.1.1 0 .2s.2.2.3.4V4H4.8c.3.3.5.5.7.8.1.1.1.2 0 .2-.3.2-.6.4-.9.7 0 .1-.4.3-.4.4.2.3.4.5.6.8.4.6.9 1.1 1.3 1.7l.4.4c.1.1.1.1.3 0 .3-.2.6-.5.9-.7.3-.2.7-.3 1-.5h.1c1.1-.5 2.3-.6 3.6-.5.6.1 1.3.2 1.8.7h.1s0 .1.1.1c0 .1.1.2.1.3.2.5 0 1-.4 1.2-.6.4-1.3.5-1.9.3-.5-.1-.8-.4-1.2-.7 0 0-.1-.1-.2-.1 0 .1 0 .3.1.4 0 .1 0 .2-.2.1s-.3-.2-.5-.2c.1.2.1.3.2.5s.1.2-.2.3c-.2 0-.7.1-1 .1l-.1-.3c-.1.3-.2 0-.2 0v4.8c0 .1.1.1.1.1h1c1 0 2.1-.1 3.1.1.4.1.8.2 1.2.4.3.2.6.5.5 1-.1.1-.2.3-.4.4-.4.2-.8.2-1.3.1-.3 0-.6-.1-1-.2l.5.5.1.1h-.1c-.3 0-.6-.1-.9-.1h-.1c0 .1 0 .1.1.1.1.1.2.2.3.4h-.2c-.5-.1-.9-.3-1.3-.4-.8-.4-1.4-.9-2-1.5 0 0-.1-.1-.2-.1 0 .2.1.3.1.4 0 .1.1.2 0 .2-.1.1-.1 0-.2-.1-.2-.1-.3-.2-.5-.3-.1 0-.2-.1-.3-.1.1.3.2.5.3.8-.1 0-.1-.1-.2-.1-.2-.1-.5-.3-.7-.4-.1-.1-.1 0-.1 0-.8 1-1.6 2.1-2.3 3.1-.1.1 0 .1 0 .2.3.3.5.5.8.7 0 .1.1.1.1.1.1.1.3.2.4.3-.2.5-.1.5-.1.5l.9.6c1.3.8 2.8 1.2 4.3 1.2.7 0 1.5-.1 2.2-.2.2 0 .3 0 .2.2 0 .1 0 .1.1.1.2 0 .5-.1.7-.2.1 0 .1-.1.1 0 0 .2.1.2.2.1 1.1-.2 2-.8 2.9-1.4.3-.2.5-.4.8-.6 0 0 0-.1.1-.1.8-.8 1.3-1.7 1.5-2.8.1-.4.1-.7.1-1.1v-.1h.2v-.1c0-.7-.3-1.4-.6-2-.3-.6-1-1.2-1.8-1.6-.1 0-.2 0-.2-.1s.1-.1.1-.1l.6-.3c-.2-.1-.5-.2-.7-.3.6-.3 1-.7 1.3-1.2.1-.1.1 0 .1 0 .1.3.1.6.1.9v.7zM7.3 3c-.1 0-.3.1-.4 0-.1-.4-.1-1 0-1.3.1.5.3.9.4 1.3zm9.2 1.9c-.1.1-.1 0-.2 0-.1-.1-.2-.2-.2-.4 0-.1 0-.1.1-.2l.4-.4c.6-.5.9-1.1 1.1-1.8V2c.1 1.2-.3 2.2-1.2 2.9z"/></symbol><symbol viewBox="0 0 24 24" id="less"><path d="M23 10.6c0-.8.1-1.2.1-2 0-1.3-.5-1.7-1.5-1.7h-.8v.9h.2c.5 0 .7.2.7.8 0 .6-.1 1.2-.1 1.9 0 .9.3 1.3.9 1.4v.1c-.6.1-.9.5-.9 1.4 0 .7.1 1.3.1 1.9 0 .7-.1.8-.7.8h-.2v.9h.8c1 0 1.5-.4 1.5-1.7 0-.8-.1-1.3-.1-2 0-.4.3-.8 1-.9v-1c-.8.1-1-.4-1-.8zm-4 1.2c-.6-.2-1.1-.4-1.1-.8 0-.3.2-.5.7-.5s.8.2 1.3.5l.8-1c-.5-.4-1.2-.8-2.1-.8-1.3 0-2.2.8-2.2 1.9 0 1 .8 1.5 1.6 1.7.6.2 1.2.4 1.2.8 0 .3-.2.5-.8.5-.5 0-1-.2-1.5-.6l-.9 1.2c.6.5 1.5.8 2.2.8 1.6 0 2.4-.8 2.4-1.9s-.8-1.5-1.6-1.8zM5.6 14c-.1 0-.3-.1-.3-.5V6.9H2.4C1.3 6.9.9 7.3.9 8.6c0 .8.1 1.3.1 2 0 .4-.3.8-1 .9v1c.8 0 1 .5 1 .9 0 .7-.1 1.2-.1 2 0 1.3.5 1.7 1.5 1.7h.8v-.9H3c-.5 0-.7-.2-.7-.8s.1-1.2.1-1.9c0-.9-.3-1.3-.9-1.4V12c.6-.1.9-.5.9-1.4 0-.7-.1-1.3-.1-1.9 0-.7.1-.9.7-.9h.5v5.7c0 1.2.4 2 1.6 2 .4 0 .7-.1.9-.1L5.8 14h-.2zm8.6-2.2c-.6-.2-1.2-.4-1.2-.8 0-.3.2-.5.7-.5.4 0 .8.2 1.3.5l.8-1c-.5-.4-1.2-.8-2.1-.8-1.3 0-2.2.8-2.2 1.9 0 1 .8 1.5 1.6 1.7.6.2 1.2.4 1.2.8 0 .3-.2.5-.8.5-.5 0-1-.2-1.5-.6l-.8 1.1c.6.5 1.5.8 2.2.8 1.6 0 2.4-.8 2.4-1.9s-.8-1.4-1.6-1.7zM8.4 9.2c-1.4 0-2.8 1.2-2.8 3.1 0 2 1.3 3.1 3 3.1.7 0 1.5-.3 2.1-.7l-.6-1c-.4.3-.8.4-1.3.4-.8 0-1.4-.4-1.6-1.3h3.6c0-.1.1-.4.1-.7.1-1.6-.8-2.9-2.5-2.9zm-1.1 2.5c.1-.8.6-1.2 1.1-1.2.7 0 1 .5 1 1.2H7.3z"/></symbol><symbol viewBox="0 0 24 24" id="git"><path d="M23.5 10.9L13.1.5c-.6-.6-1.6-.6-2.2 0L8.7 2.6l2.8 2.8c.6-.2 1.4-.1 1.9.4s.7 1.3.4 1.9l2.7 2.7c.6-.2 1.4-.1 1.9.4.7.7.7 1.9 0 2.6-.7.7-1.9.7-2.6 0-.5-.5-.7-1.3-.4-2l-2.5-2.5v6.5c.2.1.3.2.5.3.7.7.7 1.9 0 2.6-.7.7-1.9.7-2.6 0-.7-.7-.7-1.9 0-2.6.2-.2.4-.3.6-.4V8.8c-.2-.1-.4-.2-.6-.4-.5-.5-.7-1.3-.4-2L7.6 3.7.4 10.9c-.6.6-.6 1.6 0 2.2l10.5 10.5c.6.6 1.6.6 2.2 0l10.4-10.4c.7-.7.7-1.7 0-2.3"/></symbol><symbol viewBox="0 0 24 24" id="gulp"><path d="M8 7.2c.5-.6-.2-1.5-.7-1.9-.7-.6-1.6-.7-2.4-.3-1.8.8-3 2.7-3.8 4.4-.7 1.5-1.7 4-.7 5.6 1.2 2 3.5-.2 4.5-1.2-.3.8-.6 1.6-.7 2.4-.1.5-.1 1.7.7 1 .5-.5.6-1.5.7-2.1.2-.8.5-1.6.8-2.4.1-.3 1.5-4.2 0-3.3-.6.4-.6 1.6-.9 2.1-.3.7-.9 1.3-1.5 1.9-.8.7-2.2 1.8-2.4.1-.2-1.6.6-3.2 1.2-4.5.6-1 1.6-2.9 2.9-3 .9-.1 1 .5 1.4 1.1.4.3.8.3.9.1.2-.2-.1.2 0 0zM23.9 12c-.3-.5-2.2 1.5-2.5 1.7-.2.2-1 1-1.3.8-.5-.2.3-.8.5-1.1.5-.6 1.9-2.1 1.2-3-.9-1.1-2.5.3-3.2 1 .4-.9-.3-1.6-.9-.6-.3.6-.4 1.2-.8 1.7-.5.6-1.3 1.3-2 1.6-1.2.6-.4-1-.2-1.5.8-2 1.8-4 2.5-6 .3-.8-.3-1.5-1-.7-.6.7-.9 2.1-1.2 3-.4 1-.8 2-1.2 2.9-.3.8-.4 1.9-1.2 2.3-.8.5-1.1.1-.9-.8.2-.8 1.2-2.1 1-2.9-.1-.3-.3-.6-.6-.5-.4.1-.5.8-.6 1.1-.3.9-.7 1.7-1.3 2.4-.3.3-1.1 1.1-1.5.7-.4-.4.5-2.1.7-2.5.2-.4.8-1.1.4-1.5-.3-.3-.8 0-1 .3-.6.8-1 2.1-1.2 3-.2.8-.5 2 .7 2.2 1.1.1 2.1-.8 2.7-1.7-.1.5-.3 1.2.2 1.5.6.5 1.6-.3 2.1-.6.3 1.9 2.7 0 3.3-.6l-.9 2.1c-.3.6-.8 1.4-.9 2-.1.5 0 .9.6.8.5-.1.7-.7.8-1.1.8-2.1 1.5-5 3.4-6.4.2-.2 1.1-.7 1.2-.2.1.4-.8 1.2-1.1 1.6-.5.7-1.9 2.4-.2 2.6 1.2.2 2.3-.9 3.1-1.6.4-.4 1.7-1.3 1.3-2-.1-.2.1.1 0 0z"/></symbol></svg>