<svg xmlns="http://www.w3.org/2000/svg">
  <symbol viewBox="0 0 24 24" id="polymer">
    <path d="M19 4h-4L7.11 16.63 4.5 12 9 4H5L.5 12 5 20h4l7.89-12.63L19.5 12 15 20h4l4.5-8z"/>
  </symbol>
  <symbol viewBox="0 0 24 24" id="sass">
    <path d="M22,2.9c-0.7-2.8-5.4-3.7-9.8-2.2C9.5,1.7,6.7,3.2,4.6,5.1c-2.4,2.3-2.8,4.3-2.7,5.1c0.6,2.9,4.6,4.8,6.2,6.3v0
    c-0.5,0.2-4,2-4.9,3.9c-0.9,1.9,0.1,3.3,0.8,3.5c2.1,0.6,4.2-0.5,5.4-2.2c1.1-1.7,1-3.8,0.5-4.9c0.7-0.2,1.4-0.3,2.4-0.1
    c2.8,0.3,3.3,2.1,3.2,2.8c-0.1,0.7-0.7,1.1-0.9,1.2c-0.2,0.1-0.3,0.2-0.2,0.3c0,0.1,0.1,0.1,0.3,0.1c0.2,0,1.5-0.6,1.5-1.9
    c0.1-1.7-1.6-3.6-4.5-3.6c-1.2,0-1.9,0.1-2.5,0.3c0,0-0.1-0.1-0.1-0.1c-1.8-1.9-5.1-3.3-5-5.8C4.4,9,4.7,6.5,10.7,3.6
    c4.9-2.4,8.8-1.8,9.5-0.3c1,2.1-2.1,6.1-7.2,6.6c-1.9,0.2-3-0.5-3.2-0.8C9.5,8.8,9.5,8.8,9.4,8.9c-0.2,0.1-0.1,0.4,0,0.5
    c0.2,0.4,0.8,1.1,1.8,1.4c0.9,0.3,3.2,0.5,6-0.6C20.3,9,22.7,5.7,22,2.9z M8.8,17.3c0.2,0.9,0.2,1.7,0,2.4c0,0.1-0.1,0.2-0.1,0.2
    c0,0.1-0.1,0.2-0.1,0.2c-0.2,0.4-0.4,0.7-0.7,1.1c-0.9,1-2.2,1.4-2.8,1.1c-0.6-0.3-0.3-1.8,0.8-2.9c1.2-1.2,2.8-2,2.8-2l0,0
    C8.8,17.4,8.8,17.3,8.8,17.3z"/>
  </symbol>
  <symbol viewBox="0 0 24 24" id="css">
  	<polygon points="9.5,1.1 9.5,0 6.9,0 6.9,3.2 9.5,3.2 9.5,2.1 8,2.1 8,1.1 		"/>
  	<polygon points="13.3,0 10.6,0 10.6,1.1 11.7,2.1 10.6,2.1 10.6,3.2 13.3,3.2 13.3,2.2 12.3,1.1 13.3,1.1 		"/>
  	<polygon points="17.1,0 14.5,0 14.5,1.1 15.5,2.1 14.5,2.1 14.5,3.2 17.1,3.2 17.1,2.2 16.1,1.1 17.1,1.1 		"/>
  	<path d="M3.5,4.7L5,22.1L12,24l7-1.9l1.5-17.4H3.5z M17.1,10.3L12,12.5h4.9l-0.6,6.6L12,20.3v0l0,0l-4.4-1.2l-0.3-3.3h2.1l0.2,1.7
  		l2.4,0.6l0,0v0l2.4-0.7l0.2-2.8H12H7.2L7,12.5l5-2.1l0.3-0.1H12H6.8L6.7,8.1H12h0h5.3L17.1,10.3z"/>
  </symbol>
  <symbol viewBox="0 0 24 24" id="html">
		<path d="M5,0h1.1v1.1h1V0h1.1v3.2H7.1V2.2h-1v1.1H5C5,3.2,5,0,5,0z"/>
		<path d="M9.6,1.1h-1V0h3v1.1h-1v2.2H9.6L9.6,1.1L9.6,1.1z"/>
		<path d="M12.1,0h1.1L14,1.1L14.7,0h1.1v3.2h-1.1V1.6L14,2.8h0l-0.7-1.2v1.6h-1.1V0z"/>
		<path d="M16.3,0h1.1v2.2h1.5v1.1h-2.6V0z"/>
  	<path d="M3.5,4.7L5,22.1l7,1.9l7-1.9l1.6-17.4H3.5z M7.6,19.1l-0.3-3.4h2.1l0.2,1.8l2.4,0.6l0,0v0l2.4-0.6l0.2-2.8H12
  		h0H7.2L6.7,8.2H12h5.3l-0.2,2.1H12H9l0.2,2.2H12h5l-0.6,6.6L12,20.3l0,0L7.6,19.1z"/>
  </symbol>
  <symbol viewBox="0 0 24 24" id="javascript">
    <path d="M3,3v18h18V3H3z M12.8,17c0,1.8-1,2.5-2.5,2.5c-1.4,0-2.1-0.7-2.5-1.5l0,0l0,0c0,0,0,0,0,0l1.4-0.8c0.3,0.5,0.5,0.9,1.1,0.9
	c0.6,0,0.9-0.2,0.9-1.1v-5.8h1.7V17z M16.8,19.6c-1.6,0-2.6-0.7-3.1-1.7h0l1.4-0.8c0.4,0.6,0.8,1,1.7,1c0.7,0,1.1-0.4,1.1-0.8
	c0-0.6-0.5-0.8-1.2-1.1L16.3,16c-1.2-0.5-2-1.2-2-2.5c0-1.3,1-2.2,2.5-2.2c1.1,0,1.8,0.4,2.4,1.4l-1.3,0.8c-0.3-0.5-0.6-0.7-1.1-0.7
	c-0.5,0-0.8,0.3-0.8,0.7c0,0.5,0.3,0.7,1,1l0.4,0.2c1.4,0.6,2.2,1.2,2.2,2.7C19.6,18.8,18.4,19.6,16.8,19.6z"/>
  </symbol>
  <symbol viewBox="0 0 24 24" id="expression-engine">
	<path d="M14.9,14.1c-0.6,0.6-1.2,1-1.6,1.2c-0.5,0.2-1,0.3-1.4,0.3c-0.6,0-1.1-0.2-1.4-0.6c-0.4-0.4-0.5-0.9-0.5-1.6l0-0.7l0.1,0
		c1.7-0.3,2.9-0.6,3.7-1c0.8-0.4,1.4-0.8,1.7-1.2c0.4-0.5,0.5-0.9,0.5-1.4c0-0.6-0.2-1-0.6-1.4c-0.4-0.4-1.1-0.5-1.9-0.5
		c-1.1,0-2.2,0.3-3.1,0.8c-1,0.5-1.7,1.2-2.3,2.1C7.5,11,7.2,12,7.2,12.9c0,1.1,0.3,1.9,1,2.6c0.7,0.6,1.6,0.9,2.7,0.9
		c0.8,0,1.6-0.2,2.3-0.5c0.7-0.3,1.4-0.8,2.1-1.6C15.2,14.3,15,14.1,14.9,14.1z M10,12.1c0.2-1.4,0.7-2.5,1.3-3.3
		c0.4-0.6,0.9-0.9,1.4-0.9c0.3,0,0.5,0.1,0.7,0.3c0.2,0.2,0.3,0.5,0.3,0.8c0,0.8-0.4,1.5-1.1,2.2c-0.5,0.5-1.4,0.8-2.5,1l-0.2,0
		L10,12.1z"/>
	<path d="M3.5,14.3c-0.9-3.7,1.3-7.6,5.2-9.4C8.6,4.9,8.5,5,8.4,5c0.1,0,0.2-0.1,0.3-0.1L1.4,6.8l1.9,1.1
		c-2.5,2.1-3.8,4.8-3.2,7.2C1.1,19,6.5,21,12.5,20C8.3,20.3,4.5,18,3.5,14.3z"/>
	<path d="M23.8,8.9C22.9,5,17.5,3,11.5,4c4.2-0.3,8.1,2,9,5.7c0.9,3.7-1.3,7.6-5.2,9.4c0.1,0,0.2-0.1,0.3-0.1
		c-0.1,0-0.2,0.1-0.3,0.1l7.2-1.9l-1.9-1.1C23.2,13.9,24.5,11.3,23.8,8.9z"/>
  </symbol>
  <symbol viewBox="0 0 24 24" id="wordpress">
    <path d="M12,2C6.5,2,2,6.5,2,12c0,5.5,4.5,10,10,10c5.5,0,10-4.5,10-10C22,6.5,17.5,2,12,2z M3,12c0-1.3,0.3-2.5,0.8-3.7l4.3,11.8
	C5.1,18.6,3,15.6,3,12z M12,21c-0.9,0-1.7-0.1-2.5-0.4l2.7-7.8l2.8,7.6c0,0,0,0.1,0.1,0.1C14.1,20.8,13,21,12,21z M13.2,7.8
	c0.5,0,1-0.1,1-0.1c0.5-0.1,0.4-0.8-0.1-0.7c0,0-1.5,0.1-2.4,0.1C10.9,7.1,9.4,7,9.4,7C9,6.9,8.9,7.7,9.4,7.7c0,0,0.5,0.1,0.9,0.1
	l1.4,3.8l-2,5.9L6.5,7.8c0.5,0,1-0.1,1-0.1C8,7.6,7.9,6.9,7.5,7c0,0-1.5,0.1-2.4,0.1c-0.2,0-0.4,0-0.6,0C6.1,4.6,8.9,3,12,3
	c2.3,0,4.5,0.9,6.1,2.4c0,0-0.1,0-0.1,0c-0.9,0-1.5,0.8-1.5,1.6c0,0.7,0.4,1.4,0.9,2.1c0.3,0.6,0.7,1.4,0.7,2.5
	c0,0.8-0.3,1.7-0.7,2.9l-0.9,3L13.2,7.8z M19.9,7.7C20.6,9,21,10.4,21,12c0,3.3-1.8,6.2-4.5,7.8l2.7-7.9c0.5-1.3,0.7-2.3,0.7-3.2
	C19.9,8.3,19.9,8,19.9,7.7z"/>
  </symbol>
  <symbol viewBox="0 0 24 24" id="bootstrap">
    <path d="M6.4,4h7.8c1.4,0,2.6,0.3,3.5,1c0.9,0.7,1.3,1.7,1.3,3c0,0.8-0.2,1.5-0.6,2.1c-0.4,0.6-1,1-1.7,1.3v0
		c1,0.2,1.7,0.7,2.2,1.4c0.5,0.7,0.8,1.6,0.8,2.7c0,0.6-0.1,1.2-0.3,1.8c-0.2,0.5-0.6,1-1.1,1.4c-0.5,0.4-1.1,0.7-1.8,0.9
		c-0.7,0.2-1.6,0.3-2.7,0.3H6.4V4z M9.2,10.7h4.6c0.7,0,1.2-0.2,1.7-0.6c0.4-0.4,0.7-0.9,0.7-1.6c0-0.8-0.2-1.4-0.6-1.7
		c-0.4-0.3-1-0.5-1.7-0.5H9.2V10.7z M9.2,17.7h5c0.9,0,1.5-0.2,2-0.7c0.5-0.4,0.7-1.1,0.7-1.9c0-0.8-0.2-1.4-0.7-1.8
		c-0.5-0.4-1.1-0.6-2-0.6h-5V17.7z"/>
  </symbol>
  <symbol viewBox="0 0 24 24" id="foundation">
    <path d="M18.8,12.6c0.1-0.1,0.2-0.2,0.3-0.3c0.3-0.4,0.6-0.9,0.7-1.5c0.2-0.9,0.1-1.8-0.1-2.7c0-0.1,0-0.2,0-0.2
	c0.4-1,0.3-2.1,0.1-3.1c0,0,0-0.1,0-0.1c-0.1,0-0.1,0-0.1,0.1c-0.2,0.3-0.4,0.5-0.6,0.7c-0.1,0.1-0.1,0.1-0.2,0
	c-0.2-0.4-0.4-0.8-0.7-1.2c0,0,0,0,0-0.1c0.3-1,0.2-1.9-0.3-2.7c0-0.1-0.1-0.1-0.1-0.1c-0.1,0-0.1,0.1-0.1,0.2
	c-0.1,0.5-0.3,1-0.7,1.4c-0.4-0.3-0.7-0.7-1.2-0.9c-0.5-0.3-1-0.6-1.6-0.7c-0.2,0-0.3,0-0.2,0.2c0,0.2,0.1,0.4,0.1,0.6
	c-0.4-0.3-0.8-0.6-1.2-0.9C12.9,1.6,13,1.9,13,2.2c0,0.1,0,0.2-0.1,0.1c-0.4-0.1-0.7-0.2-1.1-0.3C10.9,1.8,10,1.7,9.1,1.8
	c-0.1,0-0.1,0-0.2,0C8.9,1.9,9,1.9,9,2c0.1,0.1,0.2,0.3,0.3,0.4c0,0,0,0.1,0,0.1c0,0-0.1,0-0.1,0C9.1,2.4,9,2.3,8.8,2.3
	c0,0-0.1,0-0.1,0c0,0,0,0.1,0,0.1C8.8,2.5,8.9,2.7,9,2.8C9,2.9,9,3,8.9,3C8.5,3,8.1,3,7.7,3C7.7,3,7.6,3,7.6,3c0.1,0,0.1,0,0.2,0
	c0,0,0,0,0-0.1C7.3,2.3,7.1,1.7,7,1.1C7,1,7,1,6.9,1C6.4,1.6,6.2,2.4,6.2,3.2C6,3.3,5.9,3.3,5.7,3.3c-0.1,0-0.1,0.1,0,0.2
	c0.1,0.1,0.2,0.2,0.3,0.4C6,3.9,6,3.9,6,4C6,4,5.9,4,5.9,4c-0.2,0-0.3,0-0.5,0c-0.2,0-0.4,0-0.6,0c0.3,0.3,0.5,0.5,0.7,0.8
	c0.1,0.1,0.1,0.2,0,0.2C5.2,5.2,4.9,5.4,4.6,5.7C4.6,5.8,4.2,6,4.2,6.1c0,0,0,0,0,0c0,0,0,0,0,0c0.2,0.3,0.4,0.5,0.6,0.8
	c0.4,0.6,0.9,1.1,1.3,1.7C6.3,8.8,6.4,8.9,6.5,9c0.1,0.1,0.1,0.1,0.3,0c0.3-0.2,0.6-0.5,0.9-0.7c0.3-0.2,0.7-0.3,1-0.5
	c0,0,0,0,0.1,0c1.1-0.5,2.3-0.6,3.6-0.5c0.6,0.1,1.3,0.2,1.8,0.7c0,0,0,0,0.1,0l0,0c0,0,0,0,0,0l0,0c0,0,0,0,0,0c0,0,0,0.1,0.1,0.1
	c0,0.1,0.1,0.2,0.1,0.3c0.2,0.5,0,1-0.4,1.2c-0.6,0.4-1.3,0.5-1.9,0.3c-0.5-0.1-0.8-0.4-1.2-0.7c0,0-0.1-0.1-0.2-0.1
	c0,0.1,0,0.3,0.1,0.4c0,0.1,0,0.2-0.2,0.1c-0.2-0.1-0.3-0.2-0.5-0.2c0.1,0.2,0.1,0.3,0.2,0.5c0.1,0.2,0.1,0.2-0.2,0.3
	c-0.2,0-0.7,0.1-1,0.1c0,0-0.1-0.3-0.1-0.3C9,10.3,8.9,10,8.9,10s0,0,0,0c0,0,0,0.3,0,0.3s0,2.9,0,4.2c0,0.1,0,0.2,0,0.3
	c0,0.1,0.1,0.1,0.1,0.1c0.3,0,0.7,0,1,0c1,0,2.1-0.1,3.1,0.1c0.4,0.1,0.8,0.2,1.2,0.4c0.3,0.2,0.6,0.5,0.5,1c0,0,0,0,0,0
	c0,0,0,0,0,0c-0.1,0.1-0.2,0.3-0.4,0.4C14,17,13.6,17,13.1,16.9c-0.3,0-0.6-0.1-1-0.2c0.2,0.2,0.3,0.3,0.5,0.5c0,0,0.1,0.1,0.1,0.1
	c0,0-0.1,0-0.1,0c-0.3,0-0.6-0.1-0.9-0.1c0,0-0.1,0-0.1,0c0,0.1,0,0.1,0.1,0.1c0.1,0.1,0.2,0.2,0.3,0.4c-0.1,0-0.1,0-0.2,0
	c-0.5-0.1-0.9-0.3-1.3-0.4c-0.8-0.4-1.4-0.9-2-1.5c0,0-0.1-0.1-0.2-0.1c0,0.2,0.1,0.3,0.1,0.4c0,0.1,0.1,0.2,0,0.2
	c-0.1,0.1-0.1,0-0.2-0.1c-0.2-0.1-0.3-0.2-0.5-0.3c-0.1,0-0.2-0.1-0.3-0.1c0.1,0.3,0.2,0.5,0.3,0.8c0,0,0,0,0,0
	c-0.1,0-0.1-0.1-0.2-0.1c-0.2-0.1-0.5-0.3-0.7-0.4h0c-0.1-0.1-0.1,0-0.1,0c-0.8,1-1.6,2.1-2.3,3.1c-0.1,0.1,0,0.1,0,0.2
	c0.3,0.3,0.5,0.5,0.8,0.7c0,0.1,0.1,0.1,0.1,0.1c0.1,0.1,0.3,0.2,0.4,0.3C5.5,21,5.6,21,5.6,21c0.3,0.2,0.6,0.4,0.9,0.6
	c1.3,0.8,2.8,1.2,4.3,1.2c0.7,0,1.5-0.1,2.2-0.2c0.2,0,0.3,0,0.2,0.2c0,0.1,0,0.1,0.1,0.1c0.2,0,0.5-0.1,0.7-0.2
	c0.1,0,0.1-0.1,0.1,0c0,0.2,0.1,0.2,0.2,0.1c1.1-0.2,2-0.8,2.9-1.4c0.3-0.2,0.5-0.4,0.8-0.6c0,0,0-0.1,0.1-0.1
	c0.8-0.8,1.3-1.7,1.5-2.8c0.1-0.4,0.1-0.7,0.1-1.1c0,0,0-0.1,0-0.1c0,0,0,0,0,0c0,0,0,0,0,0c0,0,0.1,0,0.1,0c0,0,0.1,0,0.1,0
	c0,0,0,0,0-0.1c0-0.7-0.3-1.4-0.6-2C19,14,18.3,13.4,17.5,13c-0.1,0-0.2,0-0.2-0.1c0-0.1,0.1-0.1,0.1-0.1c0.2-0.1,0.4-0.2,0.6-0.3
	c-0.2-0.1-0.5-0.2-0.7-0.3c0.6-0.3,1-0.7,1.3-1.2c0.1-0.1,0.1,0,0.1,0c0.1,0.3,0.1,0.6,0.1,0.9C18.8,12.2,18.8,12.4,18.8,12.6z
	 M7.3,3c-0.1,0-0.3,0.1-0.4,0c-0.1-0.4-0.1-1,0-1.3C7,2.2,7.2,2.6,7.3,3C7.3,3,7.3,3,7.3,3z M16.5,4.9c-0.1,0.1-0.1,0-0.2,0
	c-0.1-0.1-0.2-0.2-0.2-0.4c0-0.1,0-0.1,0.1-0.2c0.1-0.1,0.3-0.3,0.4-0.4c0.6-0.5,0.9-1.1,1.1-1.8c0,0,0-0.1,0-0.1
	C17.8,3.2,17.4,4.2,16.5,4.9z"/>
  </symbol>
  <symbol viewBox="0 0 24 24" id="less">
    <path d="M23,10.6c0-0.8,0.1-1.2,0.1-2c0-1.3-0.5-1.7-1.5-1.7h-0.8v0.9H21c0.5,0,0.7,0.2,0.7,0.8c0,0.6-0.1,1.2-0.1,1.9
	c0,0.9,0.3,1.3,0.9,1.4V12c-0.6,0.1-0.9,0.5-0.9,1.4c0,0.7,0.1,1.3,0.1,1.9c0,0.7-0.1,0.8-0.7,0.8v0h-0.2v0.9h0.8
	c1,0,1.5-0.4,1.5-1.7c0-0.8-0.1-1.3-0.1-2c0-0.4,0.3-0.8,1-0.9v-1C23.2,11.5,23,11,23,10.6z M19,11.8c-0.6-0.2-1.1-0.4-1.1-0.8
	c0-0.3,0.2-0.5,0.7-0.5s0.8,0.2,1.3,0.5l0.8-1c-0.5-0.4-1.2-0.8-2.1-0.8c-1.3,0-2.2,0.8-2.2,1.9c0,1,0.8,1.5,1.6,1.7
	c0.6,0.2,1.2,0.4,1.2,0.8c0,0.3-0.2,0.5-0.8,0.5c-0.5,0-1-0.2-1.5-0.6L16,14.7c0.6,0.5,1.5,0.8,2.2,0.8c1.6,0,2.4-0.8,2.4-1.9
	S19.8,12.1,19,11.8z M5.6,14c-0.1,0-0.3-0.1-0.3-0.5V7.8V6.9V6.9H2.4c-1.1,0-1.5,0.4-1.5,1.7c0,0.8,0.1,1.3,0.1,2
	c0,0.4-0.3,0.8-1,0.9v1c0.8,0,1,0.5,1,0.9c0,0.7-0.1,1.2-0.1,2c0,1.3,0.5,1.7,1.5,1.7h0.8v-0.9H3c-0.5,0-0.7-0.2-0.7-0.8
	s0.1-1.2,0.1-1.9c0-0.9-0.3-1.3-0.9-1.4V12c0.6-0.1,0.9-0.5,0.9-1.4c0-0.7-0.1-1.3-0.1-1.9C2.3,8,2.4,7.8,3,7.8h0.5
	c0,1.3,0,5.7,0,5.7c0,1.2,0.4,2,1.6,2c0.4,0,0.7-0.1,0.9-0.1L5.8,14C5.7,14,5.6,14,5.6,14z M14.2,11.8c-0.6-0.2-1.2-0.4-1.2-0.8
	c0-0.3,0.2-0.5,0.7-0.5c0.4,0,0.8,0.2,1.3,0.5l0.8-1c-0.5-0.4-1.2-0.8-2.1-0.8c-1.3,0-2.2,0.8-2.2,1.9c0,1,0.8,1.5,1.6,1.7
	c0.6,0.2,1.2,0.4,1.2,0.8c0,0.3-0.2,0.5-0.8,0.5c-0.5,0-1-0.2-1.5-0.6l-0.8,1.1c0.6,0.5,1.5,0.8,2.2,0.8c1.6,0,2.4-0.8,2.4-1.9
	S15,12.1,14.2,11.8z M8.4,9.2c-1.4,0-2.8,1.2-2.8,3.1c0,2,1.3,3.1,3,3.1c0.7,0,1.5-0.3,2.1-0.7l-0.6-1c-0.4,0.3-0.8,0.4-1.3,0.4
	c-0.8,0-1.4-0.4-1.6-1.3h3.6c0-0.1,0.1-0.4,0.1-0.7C11,10.5,10.1,9.2,8.4,9.2z M7.3,11.7c0.1-0.8,0.6-1.2,1.1-1.2c0.7,0,1,0.5,1,1.2
	H7.3z"/>
  </symbol>
  <symbol viewBox="0 0 24 24" id="git">
    <path d="M23.5,10.9L13.1,0.5c-0.6-0.6-1.6-0.6-2.2,0L8.7,2.6l2.8,2.8c0.6-0.2,1.4-0.1,1.9,0.4
	c0.5,0.5,0.7,1.3,0.4,1.9l2.7,2.7c0.6-0.2,1.4-0.1,1.9,0.4c0.7,0.7,0.7,1.9,0,2.6c-0.7,0.7-1.9,0.7-2.6,0c-0.5-0.5-0.7-1.3-0.4-2
	l-2.5-2.5l0,6.5c0.2,0.1,0.3,0.2,0.5,0.3c0.7,0.7,0.7,1.9,0,2.6c-0.7,0.7-1.9,0.7-2.6,0c-0.7-0.7-0.7-1.9,0-2.6
	c0.2-0.2,0.4-0.3,0.6-0.4V8.8c-0.2-0.1-0.4-0.2-0.6-0.4c-0.5-0.5-0.7-1.3-0.4-2L7.6,3.7l-7.2,7.2c-0.6,0.6-0.6,1.6,0,2.2l10.5,10.5
	c0.6,0.6,1.6,0.6,2.2,0l10.4-10.4C24.2,12.5,24.2,11.5,23.5,10.9"/>
  </symbol>
  <symbol viewBox="0 0 24 24" id="gulp">
    <path id="XMLID_13_" d="M6.76,9.243c-0.179-0.06-0.378-0.016-0.531,0.089C6.114,9.412,6.021,9.546,5.95,9.734l-0.584,1.749
			c-0.071,0.149-0.178,0.324-0.32,0.525c-0.142,0.201-0.306,0.411-0.49,0.629c-0.184,0.218-0.383,0.434-0.597,0.647
			c-0.214,0.213-0.426,0.404-0.638,0.573c-0.212,0.169-0.416,0.305-0.613,0.409c-0.252,0.134-0.621,0.254-0.87,0.041
			c-0.09-0.077-0.161-0.175-0.214-0.294c-0.052-0.119-0.088-0.252-0.107-0.398C1.438,13,1.538,12.372,1.693,11.777
			c0.136-0.523,0.319-1.054,0.55-1.592c0.23-0.538,0.495-1.064,0.795-1.578c0.299-0.514,0.613-0.97,0.939-1.369
			c0.327-0.399,0.657-0.721,0.99-0.964C5.383,5.969,5.955,5.755,6.43,6.069c0.161,0.107,0.309,0.279,0.443,0.517
			c0.195,0.36,0.658,1.208,1.14,0.625c0.181-0.219,0.178-0.569,0.132-0.83C8.127,6.275,8.082,6.17,8.01,6.065
			C7.7,5.599,7.367,5.262,7.011,5.053C6.354,4.669,5.599,4.66,4.904,4.957C4.566,5.1,4.232,5.3,3.902,5.556
			C3.571,5.811,3.248,6.116,2.934,6.471C2.62,6.826,2.324,7.214,2.045,7.635c-0.279,0.422-0.536,0.87-0.773,1.343
			c-0.237,0.474-0.445,0.959-0.625,1.455c-0.18,0.496-0.326,0.995-0.437,1.496c-0.111,0.501-0.179,0.99-0.204,1.466
			c-0.046,0.316,0.017,0.671,0.094,0.975c0.124,0.487,0.396,0.947,0.832,1.213c0.469,0.286,1.073,0.223,1.555,0.007
			c0.276-0.124,0.551-0.284,0.823-0.48c0.272-0.196,0.538-0.417,0.798-0.662c0.26-0.245,0.5-0.492,0.722-0.74
			c-0.177,0.548-0.355,1.096-0.518,1.648c-0.082,0.275-0.152,0.522-0.211,0.74c-0.059,0.218-0.09,0.367-0.094,0.447
			c-0.024,0.219-0.043,0.52,0.085,0.707c0.114,0.168,0.377,0.16,0.525,0.048c0.076-0.057,0.144-0.129,0.207-0.216
			c0.063-0.087,0.117-0.179,0.163-0.275c0.046-0.097,0.079-0.185,0.1-0.264c0.008-0.025,0.031-0.104,0.069-0.238
			c0.038-0.134,0.085-0.3,0.141-0.499c0.057-0.199,0.12-0.421,0.192-0.666c0.071-0.246,0.146-0.496,0.223-0.752
			c0.077-0.255,0.153-0.506,0.226-0.752c0.073-0.246,0.141-0.468,0.204-0.666c0.063-0.199,0.116-0.363,0.16-0.495
			c0.044-0.131,0.074-0.21,0.091-0.234c0.075-0.218,0.153-0.428,0.232-0.629c0.079-0.201,0.152-0.401,0.217-0.599
			c0.065-0.198,0.118-0.402,0.16-0.61C7.054,10.158,7.127,9.747,7.027,9.5C6.976,9.374,6.887,9.288,6.76,9.243z"/>
		<path id="XMLID_14_" d="M23.931,11.97c-0.103-0.127-0.221-0.156-0.352-0.086c-0.05,0.025-0.105,0.057-0.163,0.097
			c-0.561,0.501-1.033,0.917-1.417,1.246c-0.383,0.33-0.7,0.593-0.949,0.789c-0.249,0.196-0.443,0.334-0.581,0.413
			c-0.142,0.082-0.559,0.25-0.559-0.082c0.004-0.045,0.06-0.13,0.167-0.257c0.107-0.126,0.239-0.28,0.396-0.461
			c0.157-0.181,0.326-0.382,0.506-0.603c0.18-0.221,0.348-0.448,0.503-0.681c0.155-0.233,0.284-0.465,0.386-0.696
			c0.142-0.318,0.239-0.733,0.053-1.057c-0.067-0.117-0.154-0.213-0.261-0.29c-0.394-0.284-0.943-0.291-1.379-0.108
			c-0.201,0.085-0.398,0.194-0.591,0.328c-0.193,0.134-0.379,0.284-0.559,0.45c-0.18,0.166-0.348,0.334-0.503,0.502
			c0.013-0.03,0.026-0.077,0.041-0.141c0.015-0.065,0.028-0.133,0.041-0.205c0.013-0.072,0.023-0.14,0.031-0.205
			c0.02-0.156,0.019-0.358-0.101-0.48c-0.191-0.195-0.512-0.135-0.669,0.06c-0.094,0.116-0.179,0.254-0.254,0.413
			c-0.076,0.159-0.142,0.32-0.201,0.484c-0.059,0.164-0.105,0.29-0.138,0.38c-0.057,0.204-0.145,0.427-0.217,0.64
			c-0.025,0.014-0.052,0.024-0.072,0.045c-0.117,0.119-0.25,0.249-0.399,0.391c-0.149,0.141-0.305,0.283-0.468,0.424
			c-0.163,0.141-0.328,0.278-0.493,0.409c-0.165,0.132-0.325,0.248-0.477,0.35c-0.153,0.102-0.295,0.184-0.427,0.246
			c-0.086,0.041-0.391,0.175-0.474,0.026c-0.086-0.154-0.016-0.434,0.028-0.584c0.044-0.151,0.089-0.284,0.135-0.398
			c0.105-0.268,0.229-0.584,0.374-0.949c0.145-0.365,0.299-0.75,0.465-1.157c0.165-0.407,0.335-0.825,0.509-1.254
			c0.174-0.429,0.343-0.842,0.509-1.239c0.165-0.397,0.32-0.764,0.465-1.101c0.145-0.337,0.269-0.622,0.374-0.856
			c0.054-0.114,0.099-0.221,0.135-0.32c0.073-0.204,0.088-0.538-0.107-0.692c-0.223-0.176-0.51-0.151-0.741-0.007
			c-0.128,0.079-0.229,0.216-0.305,0.409l-1.904,4.8c-0.126,0.318-0.264,0.667-0.415,1.049c-0.151,0.382-0.3,0.766-0.446,1.153
			c-0.077,0.197-0.143,0.417-0.2,0.65c-0.056,0.047-0.112,0.108-0.168,0.15c-0.211,0.161-0.414,0.286-0.606,0.376
			c-0.738,0.342-0.832-0.139-0.675-0.763c0.057-0.226,0.128-0.456,0.214-0.692c0.086-0.236,0.179-0.467,0.28-0.696
			c0.1-0.228,0.194-0.443,0.279-0.644c0.086-0.201,0.157-0.379,0.214-0.536c0.094-0.26,0.135-0.541-0.047-0.778
			c-0.365-0.473-0.803,0.067-0.949,0.402c-0.071,0.164-0.137,0.342-0.198,0.536c-0.061,0.193-0.131,0.375-0.211,0.543
			c-0.113,0.253-0.254,0.532-0.424,0.837c-0.17,0.305-0.359,0.591-0.568,0.856c-0.21,0.265-0.438,0.487-0.685,0.666
			c-0.176,0.127-0.808,0.474-0.986,0.156c-0.042-0.074-0.063-0.156-0.063-0.246c0.008-0.213,0.044-0.433,0.107-0.658
			c0.063-0.226,0.138-0.448,0.226-0.666c0.088-0.218,0.183-0.429,0.286-0.632c0.103-0.203,0.2-0.393,0.292-0.569
			c0.092-0.176,0.173-0.332,0.242-0.469c0.069-0.136,0.114-0.247,0.135-0.331c0.033-0.115,0.023-0.228-0.031-0.338
			c-0.034-0.057-0.078-0.104-0.132-0.141c-0.055-0.037-0.113-0.064-0.176-0.082c-0.188-0.051-0.396-0.017-0.556,0.097
			c-0.115,0.082-0.217,0.217-0.305,0.406c-0.343,0.714-0.609,1.322-0.798,1.823c-0.188,0.501-0.328,0.909-0.418,1.224
			c-0.09,0.315-0.144,0.546-0.16,0.692c-0.029,0.257-0.04,0.512,0.063,0.759c0.059,0.142,0.136,0.254,0.233,0.339
			c0.096,0.084,0.208,0.144,0.336,0.178c0.4,0.109,0.867,0.048,1.247-0.1c0.496-0.194,0.926-0.532,1.263-0.941
			c0.163-0.198,0.299-0.394,0.408-0.588c-0.091,0.41-0.243,1.128,0.088,1.481c0.305,0.324,0.819,0.189,1.169,0.033
			c0.251-0.112,0.507-0.259,0.766-0.443c0.08-0.057,0.155-0.132,0.233-0.194c0.007,0.054,0,0.111,0.012,0.164
			c0.029,0.129,0.078,0.241,0.148,0.335c0.069,0.094,0.161,0.169,0.276,0.223c0.367,0.174,0.857,0.059,1.206-0.097
			c0.266-0.119,0.534-0.279,0.804-0.48c0.297-0.221,0.576-0.465,0.843-0.722c-0.042,0.098-0.077,0.191-0.121,0.29
			c-0.216,0.489-0.441,0.982-0.675,1.481c-0.234,0.499-0.465,0.996-0.691,1.492c-0.033,0.089-0.07,0.182-0.11,0.279
			c-0.04,0.097-0.079,0.196-0.116,0.297c-0.038,0.102-0.069,0.205-0.094,0.309c-0.045,0.188-0.085,0.575,0.11,0.718
			c0.186,0.135,0.496,0.138,0.691,0.03c0.094-0.052,0.178-0.122,0.251-0.208c0.073-0.087,0.138-0.187,0.195-0.301
			c0.056-0.114,0.106-0.236,0.148-0.365c0.013-0.045,0.042-0.129,0.088-0.253c0.046-0.124,0.099-0.268,0.16-0.432
			c0.13-0.349,0.261-0.697,0.393-1.046c0.063-0.166,0.118-0.311,0.167-0.435c0.048-0.124,0.083-0.208,0.104-0.253
			c0.017-0.035,0.045-0.098,0.085-0.19c0.04-0.092,0.085-0.196,0.135-0.313c0.05-0.116,0.106-0.24,0.166-0.372
			c0.061-0.131,0.118-0.259,0.173-0.383c0.054-0.124,0.105-0.236,0.151-0.335c0.046-0.099,0.082-0.176,0.107-0.231
			c0.084-0.174,0.185-0.363,0.305-0.569c0.12-0.206,0.251-0.41,0.396-0.614c0.145-0.203,0.299-0.399,0.465-0.588
			c0.165-0.188,0.335-0.356,0.509-0.502c0.174-0.146,0.35-0.263,0.528-0.35c0.151-0.074,0.557-0.218,0.726-0.078
			c0.154,0.129-0.021,0.423-0.088,0.528c-0.1,0.159-0.227,0.334-0.38,0.525c-0.153,0.191-0.319,0.393-0.5,0.607
			c-0.33,0.391-0.659,0.793-0.917,1.235c-0.113,0.193-0.178,0.365-0.195,0.513c-0.043,0.25,0.057,0.534,0.254,0.692
			c0.445,0.356,1.215,0.222,1.693,0.015c0.297-0.129,0.602-0.311,0.914-0.547s0.644-0.517,0.996-0.845
			c0.352-0.328,0.752-0.69,1.2-1.087c0.113-0.089,0.198-0.201,0.254-0.335C24.001,12.462,24.046,12.174,23.931,11.97z"/>
  </symbol>
  <symbol viewBox="0 0 24 24" id="arrow-back"><path d="M20 11H7.83l5.59-5.59L12 4l-8 8 8 8 1.41-1.41L7.83 13H20v-2z"/></symbol>
  <symbol viewBox="0 0 24 24" id="arrow-forward"><path d="M12 4l-1.41 1.41L16.17 11H4v2h12.17l-5.58 5.59L12 20l8-8z"/></symbol>
  <symbol viewBox="0 0 24 24" id="codepen">
  	<path d="M12,2C6.477,2,2,6.477,2,12s4.477,10,10,10c5.523,0,10-4.477,10-10S17.523,2,12,2z M12,20.358
  		c-4.609,0-8.358-3.749-8.358-8.358S7.392,3.642,12,3.642c4.608,0,8.358,3.749,8.358,8.358S16.608,20.358,12,20.358z"/>
  	<path d="M18.178,10.047c-0.022-0.149-0.105-0.289-0.232-0.373l-5.652-3.768c-0.179-0.119-0.411-0.119-0.59,0
  		L6.053,9.674c-0.145,0.097-0.237,0.267-0.237,0.442v3.768c0,0.174,0.091,0.346,0.237,0.442l5.652,3.768
  		c0.197,0.119,0.393,0.119,0.59,0l5.652-3.768c0.146-0.095,0.237-0.269,0.237-0.442v-3.768
  		C18.183,10.093,18.181,10.07,18.178,10.047z M12.531,7.341l4.164,2.775l-1.86,1.244L12.531,9.82V7.341z M11.469,7.341V9.82
  		l-2.304,1.541l-1.86-1.244L11.469,7.341z M6.88,11.111L8.209,12l-1.33,0.889V11.111z M11.469,16.659l-4.164-2.775l1.86-1.244
  		l2.304,1.541V16.659z M12,13.257L10.121,12L12,10.743L13.879,12L12,13.257z M12.531,16.659V14.18l2.304-1.541l1.86,1.244
  		L12.531,16.659z M17.12,12.889L15.791,12l1.329-0.889V12.889z"/>
  </symbol>
  <symbol viewBox="0 0 24 24" id="linkedin">
  	<path d="M19.668,3H4.328C3.595,3,3,3.581,3,4.298v15.404C3,20.418,3.595,21,4.328,21h15.341
  		C20.402,21,21,20.418,21,19.701V4.298C21,3.581,20.402,3,19.668,3z M8.339,18.338H5.667v-8.59h2.672V18.338z M7.004,8.574
  		c-0.857,0-1.549-0.694-1.549-1.548c0-0.855,0.691-1.548,1.549-1.548c0.854,0,1.547,0.694,1.547,1.548
  		C8.551,7.881,7.858,8.574,7.004,8.574z M18.339,18.338h-2.67v-4.177c0-0.996-0.017-2.278-1.387-2.278
  		c-1.389,0-1.601,1.086-1.601,2.206v4.249h-2.667v-8.59h2.559v1.174h0.037c0.356-0.675,1.227-1.387,2.526-1.387
  		c2.703,0,3.203,1.779,3.203,4.092V18.338z"/>
  </symbol>
  <symbol viewBox="0 0 24 24" id="github">
    <path d="M11.999,2.247C6.478,2.247,2,6.724,2,12.248c0,4.418,2.865,8.166,6.839,9.488
  	c0.5,0.092,0.683-0.217,0.683-0.482c0-0.237-0.009-0.866-0.014-1.701c-2.782,0.604-3.369-1.34-3.369-1.34
  	c-0.455-1.155-1.11-1.463-1.11-1.463c-0.908-0.62,0.069-0.608,0.069-0.608c1.004,0.071,1.532,1.031,1.532,1.031
  	c0.892,1.528,2.34,1.087,2.91,0.831c0.091-0.646,0.349-1.087,0.635-1.337c-2.221-0.252-4.555-1.11-4.555-4.942
  	c0-1.092,0.39-1.984,1.029-2.683c-0.103-0.253-0.446-1.27,0.098-2.646c0,0,0.84-0.269,2.75,1.025
  	c0.798-0.222,1.653-0.333,2.504-0.337c0.849,0.004,1.705,0.115,2.504,0.337c1.909-1.294,2.747-1.025,2.747-1.025
  	c0.546,1.377,0.202,2.393,0.1,2.646c0.641,0.699,1.028,1.592,1.028,2.683c0,3.842-2.338,4.687-4.566,4.935
  	c0.359,0.309,0.679,0.919,0.679,1.852c0,1.337-0.012,2.415-0.012,2.743c0,0.267,0.18,0.579,0.688,0.481
  	C19.137,20.41,22,16.664,22,12.248C22,6.724,17.522,2.247,11.999,2.247z"/>
  </symbol>
</svg>
