<svg xmlns="http://www.w3.org/2000/svg"><symbol viewBox="0 0 24 24" id="arrow-back"><path d="M20 11H7.83l5.59-5.59L12 4l-8 8 8 8 1.41-1.41L7.83 13H20v-2z"/></symbol><symbol viewBox="0 0 24 24" id="arrow-forward"><path d="M12 4l-1.41 1.41L16.17 11H4v2h12.17l-5.58 5.59L12 20l8-8z"/></symbol><symbol viewBox="0 0 24 24" id="codepen"><path d="M12 2C6.477 2 2 6.477 2 12s4.477 10 10 10 10-4.477 10-10S17.523 2 12 2zm0 18.358c-4.609 0-8.358-3.749-8.358-8.358S7.392 3.642 12 3.642c4.608 0 8.358 3.749 8.358 8.358s-3.75 8.358-8.358 8.358z"/><path d="M18.178 10.047a.544.544 0 0 0-.232-.373l-5.652-3.768a.532.532 0 0 0-.59 0L6.053 9.674a.54.54 0 0 0-.237.442v3.768c0 .174.091.346.237.442l5.652 3.768a.532.532 0 0 0 .59 0l5.652-3.768a.538.538 0 0 0 .237-.442v-3.768a.803.803 0 0 0-.006-.069zm-5.647-2.706l4.164 2.775-1.86 1.244-2.304-1.54V7.341zm-1.062 0V9.82l-2.304 1.541-1.86-1.244 4.164-2.776zm-4.589 3.77L8.209 12l-1.33.889v-1.778zm4.589 5.548l-4.164-2.775 1.86-1.244 2.304 1.541v2.478zM12 13.257L10.121 12 12 10.743 13.879 12 12 13.257zm.531 3.402V14.18l2.304-1.541 1.86 1.244-4.164 2.776zm4.589-3.77L15.791 12l1.329-.889v1.778z"/></symbol><symbol viewBox="0 0 24 24" id="linkedin"><path d="M19.668 3H4.328C3.595 3 3 3.581 3 4.298v15.404C3 20.418 3.595 21 4.328 21h15.341c.733 0 1.331-.582 1.331-1.299V4.298C21 3.581 20.402 3 19.668 3zM8.339 18.338H5.667v-8.59h2.672v8.59zM7.004 8.574a1.548 1.548 0 1 1-.002-3.096 1.548 1.548 0 0 1 .002 3.096zm11.335 9.764h-2.67v-4.177c0-.996-.017-2.278-1.387-2.278-1.389 0-1.601 1.086-1.601 2.206v4.249h-2.667v-8.59h2.559v1.174h.037c.356-.675 1.227-1.387 2.526-1.387 2.703 0 3.203 1.779 3.203 4.092v4.711z"/></symbol><symbol viewBox="0 0 24 24" id="github"><path d="M11.999 2.247C6.478 2.247 2 6.724 2 12.248c0 4.418 2.865 8.166 6.839 9.488.5.092.683-.217.683-.482 0-.237-.009-.866-.014-1.701-2.782.604-3.369-1.34-3.369-1.34-.455-1.155-1.11-1.463-1.11-1.463-.908-.62.069-.608.069-.608 1.004.071 1.532 1.031 1.532 1.031.892 1.528 2.34 1.087 2.91.831.091-.646.349-1.087.635-1.337-2.221-.252-4.555-1.11-4.555-4.942 0-1.092.39-1.984 1.029-2.683-.103-.253-.446-1.27.098-2.646 0 0 .84-.269 2.75 1.025a9.578 9.578 0 0 1 2.504-.337 9.595 9.595 0 0 1 2.504.337c1.909-1.294 2.747-1.025 2.747-1.025.546 1.377.202 2.393.1 2.646.641.699 1.028 1.592 1.028 2.683 0 3.842-2.338 4.687-4.566 4.935.359.309.679.919.679 1.852 0 1.337-.012 2.415-.012 2.743 0 .267.18.579.688.481C19.137 20.41 22 16.664 22 12.248c0-5.524-4.478-10.001-10.001-10.001z"/></symbol></svg>