<svg xmlns="http://www.w3.org/2000/svg"><symbol viewBox="0 0 24 24" id="polymer"><path d="M19 4h-4L7.11 16.63 4.5 12 9 4H5L.5 12 5 20h4l7.89-12.63L19.5 12 15 20h4l4.5-8z"/></symbol><symbol viewBox="0 0 24 24" id="sass"><path d="M22 2.9C21.3.1 16.6-.8 12.2.7c-2.7 1-5.5 2.5-7.6 4.4-2.4 2.3-2.8 4.3-2.7 5.1.6 2.9 4.6 4.8 6.2 6.3-.5.2-4 2-4.9 3.9-.9 1.9.1 3.3.8 3.5 2.1.6 4.2-.5 5.4-2.2 1.1-1.7 1-3.8.5-4.9.7-.2 1.4-.3 2.4-.1 2.8.3 3.3 2.1 3.2 2.8-.1.7-.7 1.1-.9 1.2-.2.1-.3.2-.2.3 0 .1.1.1.3.1.2 0 1.5-.6 1.5-1.9.1-1.7-1.6-3.6-4.5-3.6-1.2 0-1.9.1-2.5.3l-.1-.1c-1.8-1.9-5.1-3.3-5-5.8.3-1 .6-3.5 6.6-6.4 4.9-2.4 8.8-1.8 9.5-.3 1 2.1-2.1 6.1-7.2 6.6-1.9.2-3-.5-3.2-.8-.3-.3-.3-.3-.4-.2-.2.1-.1.4 0 .5.2.4.8 1.1 1.8 1.4.9.3 3.2.5 6-.6C20.3 9 22.7 5.7 22 2.9zM8.8 17.3c.2.9.2 1.7 0 2.4 0 .1-.1.2-.1.2 0 .1-.1.2-.1.2-.2.4-.4.7-.7 1.1-.9 1-2.2 1.4-2.8 1.1-.6-.3-.3-1.8.8-2.9 1.2-1.2 2.8-2 2.8-2 .1 0 .1-.1.1-.1z"/></symbol><symbol viewBox="0 0 24 24" id="css"><path d="M9.5 1.1V0H6.9v3.2h2.6V2.1H8v-1zM13.3 0h-2.7v1.1l1.1 1h-1.1v1.1h2.7v-1l-1-1.1h1zM17.1 0h-2.6v1.1l1 1h-1v1.1h2.6v-1l-1-1.1h1zM3.5 4.7L5 22.1l7 1.9 7-1.9 1.5-17.4h-17zm13.6 5.6L12 12.5h4.9l-.6 6.6-4.3 1.2-4.4-1.2-.3-3.3h2.1l.2 1.7 2.4.6 2.4-.7.2-2.8H7.2L7 12.5l5-2.1.3-.1H6.8l-.1-2.2h10.6l-.2 2.2z"/></symbol><symbol viewBox="0 0 24 24" id="html"><path d="M5 0h1.1v1.1h1V0h1.1v3.2H7.1v-1h-1v1.1H5V0zM9.6 1.1h-1V0h3v1.1h-1v2.2h-1V1.1zM12.1 0h1.1l.8 1.1.7-1.1h1.1v3.2h-1.1V1.6L14 2.8l-.7-1.2v1.6h-1.1V0zM16.3 0h1.1v2.2h1.5v1.1h-2.6V0zM3.5 4.7L5 22.1l7 1.9 7-1.9 1.6-17.4H3.5zm4.1 14.4l-.3-3.4h2.1l.2 1.8 2.4.6 2.4-.6.2-2.8H7.2l-.5-6.5h10.6l-.2 2.1H9l.2 2.2H17l-.6 6.6-4.4 1.2-4.4-1.2z"/></symbol><symbol viewBox="0 0 24 24" id="javascript"><path d="M3 3v18h18V3H3zm9.8 14c0 1.8-1 2.5-2.5 2.5-1.4 0-2.1-.7-2.5-1.5l1.4-.8c.3.5.5.9 1.1.9.6 0 .9-.2.9-1.1v-5.8h1.7V17zm4 2.6c-1.6 0-2.6-.7-3.1-1.7l1.4-.8c.4.6.8 1 1.7 1 .7 0 1.1-.4 1.1-.8 0-.6-.5-.8-1.2-1.1l-.4-.2c-1.2-.5-2-1.2-2-2.5s1-2.2 2.5-2.2c1.1 0 1.8.4 2.4 1.4l-1.3.8c-.3-.5-.6-.7-1.1-.7-.5 0-.8.3-.8.7 0 .5.3.7 1 1l.4.2c1.4.6 2.2 1.2 2.2 2.7 0 1.4-1.2 2.2-2.8 2.2z"/></symbol><symbol viewBox="0 0 24 24" id="expression-engine"><path d="M14.9 14.1c-.6.6-1.2 1-1.6 1.2-.5.2-1 .3-1.4.3-.6 0-1.1-.2-1.4-.6-.4-.4-.5-.9-.5-1.6v-.7h.1c1.7-.3 2.9-.6 3.7-1 .8-.4 1.4-.8 1.7-1.2.4-.5.5-.9.5-1.4 0-.6-.2-1-.6-1.4-.4-.4-1.1-.5-1.9-.5-1.1 0-2.2.3-3.1.8-1 .5-1.7 1.2-2.3 2.1-.6.9-.9 1.9-.9 2.8 0 1.1.3 1.9 1 2.6.7.6 1.6.9 2.7.9.8 0 1.6-.2 2.3-.5.7-.3 1.4-.8 2.1-1.6-.1 0-.3-.2-.4-.2zm-4.9-2c.2-1.4.7-2.5 1.3-3.3.4-.6.9-.9 1.4-.9.3 0 .5.1.7.3.2.2.3.5.3.8 0 .8-.4 1.5-1.1 2.2-.5.5-1.4.8-2.5 1h-.2l.1-.1z"/><path d="M3.5 14.3c-.9-3.7 1.3-7.6 5.2-9.4-.1 0-.2.1-.3.1.1 0 .2-.1.3-.1L1.4 6.8l1.9 1.1C.8 10-.5 12.7.1 15.1 1.1 19 6.5 21 12.5 20c-4.2.3-8-2-9-5.7zM23.8 8.9C22.9 5 17.5 3 11.5 4c4.2-.3 8.1 2 9 5.7.9 3.7-1.3 7.6-5.2 9.4.1 0 .2-.1.3-.1-.1 0-.2.1-.3.1l7.2-1.9-1.9-1.1c2.6-2.2 3.9-4.8 3.2-7.2z"/></symbol><symbol viewBox="0 0 24 24" id="wordpress"><path d="M12 2C6.5 2 2 6.5 2 12s4.5 10 10 10 10-4.5 10-10S17.5 2 12 2zM3 12c0-1.3.3-2.5.8-3.7l4.3 11.8C5.1 18.6 3 15.6 3 12zm9 9c-.9 0-1.7-.1-2.5-.4l2.7-7.8 2.8 7.6s0 .1.1.1c-1 .3-2.1.5-3.1.5zm1.2-13.2c.5 0 1-.1 1-.1.5-.1.4-.8-.1-.7 0 0-1.5.1-2.4.1-.8 0-2.3-.1-2.3-.1-.4-.1-.5.7 0 .7 0 0 .5.1.9.1l1.4 3.8-2 5.9-3.2-9.7c.5 0 1-.1 1-.1.5-.1.4-.8 0-.7 0 0-1.5.1-2.4.1h-.6C6.1 4.6 8.9 3 12 3c2.3 0 4.5.9 6.1 2.4H18c-.9 0-1.5.8-1.5 1.6 0 .7.4 1.4.9 2.1.3.6.7 1.4.7 2.5 0 .8-.3 1.7-.7 2.9l-.9 3-3.3-9.7zm6.7-.1C20.6 9 21 10.4 21 12c0 3.3-1.8 6.2-4.5 7.8l2.7-7.9c.5-1.3.7-2.3.7-3.2v-1z"/></symbol><symbol viewBox="0 0 24 24" id="bootstrap"><path d="M6.4 4h7.8c1.4 0 2.6.3 3.5 1 .9.7 1.3 1.7 1.3 3 0 .8-.2 1.5-.6 2.1-.4.6-1 1-1.7 1.3 1 .2 1.7.7 2.2 1.4.5.7.8 1.6.8 2.7 0 .6-.1 1.2-.3 1.8-.2.5-.6 1-1.1 1.4-.5.4-1.1.7-1.8.9-.7.2-1.6.3-2.7.3H6.4V4zm2.8 6.7h4.6c.7 0 1.2-.2 1.7-.6.4-.4.7-.9.7-1.6 0-.8-.2-1.4-.6-1.7-.4-.3-1-.5-1.7-.5H9.2v4.4zm0 7h5c.9 0 1.5-.2 2-.7.5-.4.7-1.1.7-1.9 0-.8-.2-1.4-.7-1.8-.5-.4-1.1-.6-2-.6h-5v5z"/></symbol><symbol viewBox="0 0 24 24" id="foundation"><path d="M18.8 12.6l.3-.3c.3-.4.6-.9.7-1.5.2-.9.1-1.8-.1-2.7v-.2c.4-1 .3-2.1.1-3.1v-.1c-.1 0-.1 0-.1.1-.2.3-.4.5-.6.7-.1.1-.1.1-.2 0-.2-.4-.4-.8-.7-1.2v-.1c.3-1 .2-1.9-.3-2.7 0-.1-.1-.1-.1-.1-.1 0-.1.1-.1.2-.1.5-.3 1-.7 1.4-.4-.3-.7-.7-1.2-.9-.5-.3-1-.6-1.6-.7-.2 0-.3 0-.2.2 0 .2.1.4.1.6l-1.2-.9c0 .3.1.6.1.9 0 .1 0 .2-.1.1-.4-.1-.7-.2-1.1-.3-.9-.2-1.8-.3-2.7-.2h-.2c0 .1.1.1.1.2.1.1.2.3.3.4v.1h-.1c-.1-.1-.2-.2-.4-.2h-.1v.1c.1.1.2.3.3.4 0 .1 0 .2-.1.2H7.7h-.1.2v-.1c-.5-.6-.7-1.2-.8-1.8C7 1 7 1 6.9 1c-.5.6-.7 1.4-.7 2.2-.2.1-.3.1-.5.1-.1 0-.1.1 0 .2s.2.2.3.4V4H4.8c.3.3.5.5.7.8.1.1.1.2 0 .2-.3.2-.6.4-.9.7 0 .1-.4.3-.4.4.2.3.4.5.6.8.4.6.9 1.1 1.3 1.7l.4.4c.1.1.1.1.3 0 .3-.2.6-.5.9-.7.3-.2.7-.3 1-.5h.1c1.1-.5 2.3-.6 3.6-.5.6.1 1.3.2 1.8.7h.1s0 .1.1.1c0 .1.1.2.1.3.2.5 0 1-.4 1.2-.6.4-1.3.5-1.9.3-.5-.1-.8-.4-1.2-.7 0 0-.1-.1-.2-.1 0 .1 0 .3.1.4 0 .1 0 .2-.2.1s-.3-.2-.5-.2c.1.2.1.3.2.5s.1.2-.2.3c-.2 0-.7.1-1 .1l-.1-.3c-.1.3-.2 0-.2 0v4.8c0 .1.1.1.1.1h1c1 0 2.1-.1 3.1.1.4.1.8.2 1.2.4.3.2.6.5.5 1-.1.1-.2.3-.4.4-.4.2-.8.2-1.3.1-.3 0-.6-.1-1-.2l.5.5.1.1h-.1c-.3 0-.6-.1-.9-.1h-.1c0 .1 0 .1.1.1.1.1.2.2.3.4h-.2c-.5-.1-.9-.3-1.3-.4-.8-.4-1.4-.9-2-1.5 0 0-.1-.1-.2-.1 0 .2.1.3.1.4 0 .1.1.2 0 .2-.1.1-.1 0-.2-.1-.2-.1-.3-.2-.5-.3-.1 0-.2-.1-.3-.1.1.3.2.5.3.8-.1 0-.1-.1-.2-.1-.2-.1-.5-.3-.7-.4-.1-.1-.1 0-.1 0-.8 1-1.6 2.1-2.3 3.1-.1.1 0 .1 0 .2.3.3.5.5.8.7 0 .1.1.1.1.1.1.1.3.2.4.3-.2.5-.1.5-.1.5l.9.6c1.3.8 2.8 1.2 4.3 1.2.7 0 1.5-.1 2.2-.2.2 0 .3 0 .2.2 0 .1 0 .1.1.1.2 0 .5-.1.7-.2.1 0 .1-.1.1 0 0 .2.1.2.2.1 1.1-.2 2-.8 2.9-1.4.3-.2.5-.4.8-.6 0 0 0-.1.1-.1.8-.8 1.3-1.7 1.5-2.8.1-.4.1-.7.1-1.1v-.1h.2v-.1c0-.7-.3-1.4-.6-2-.3-.6-1-1.2-1.8-1.6-.1 0-.2 0-.2-.1s.1-.1.1-.1l.6-.3c-.2-.1-.5-.2-.7-.3.6-.3 1-.7 1.3-1.2.1-.1.1 0 .1 0 .1.3.1.6.1.9v.7zM7.3 3c-.1 0-.3.1-.4 0-.1-.4-.1-1 0-1.3.1.5.3.9.4 1.3zm9.2 1.9c-.1.1-.1 0-.2 0-.1-.1-.2-.2-.2-.4 0-.1 0-.1.1-.2l.4-.4c.6-.5.9-1.1 1.1-1.8V2c.1 1.2-.3 2.2-1.2 2.9z"/></symbol><symbol viewBox="0 0 24 24" id="less"><path d="M23 10.6c0-.8.1-1.2.1-2 0-1.3-.5-1.7-1.5-1.7h-.8v.9h.2c.5 0 .7.2.7.8 0 .6-.1 1.2-.1 1.9 0 .9.3 1.3.9 1.4v.1c-.6.1-.9.5-.9 1.4 0 .7.1 1.3.1 1.9 0 .7-.1.8-.7.8h-.2v.9h.8c1 0 1.5-.4 1.5-1.7 0-.8-.1-1.3-.1-2 0-.4.3-.8 1-.9v-1c-.8.1-1-.4-1-.8zm-4 1.2c-.6-.2-1.1-.4-1.1-.8 0-.3.2-.5.7-.5s.8.2 1.3.5l.8-1c-.5-.4-1.2-.8-2.1-.8-1.3 0-2.2.8-2.2 1.9 0 1 .8 1.5 1.6 1.7.6.2 1.2.4 1.2.8 0 .3-.2.5-.8.5-.5 0-1-.2-1.5-.6l-.9 1.2c.6.5 1.5.8 2.2.8 1.6 0 2.4-.8 2.4-1.9s-.8-1.5-1.6-1.8zM5.6 14c-.1 0-.3-.1-.3-.5V6.9H2.4C1.3 6.9.9 7.3.9 8.6c0 .8.1 1.3.1 2 0 .4-.3.8-1 .9v1c.8 0 1 .5 1 .9 0 .7-.1 1.2-.1 2 0 1.3.5 1.7 1.5 1.7h.8v-.9H3c-.5 0-.7-.2-.7-.8s.1-1.2.1-1.9c0-.9-.3-1.3-.9-1.4V12c.6-.1.9-.5.9-1.4 0-.7-.1-1.3-.1-1.9 0-.7.1-.9.7-.9h.5v5.7c0 1.2.4 2 1.6 2 .4 0 .7-.1.9-.1L5.8 14h-.2zm8.6-2.2c-.6-.2-1.2-.4-1.2-.8 0-.3.2-.5.7-.5.4 0 .8.2 1.3.5l.8-1c-.5-.4-1.2-.8-2.1-.8-1.3 0-2.2.8-2.2 1.9 0 1 .8 1.5 1.6 1.7.6.2 1.2.4 1.2.8 0 .3-.2.5-.8.5-.5 0-1-.2-1.5-.6l-.8 1.1c.6.5 1.5.8 2.2.8 1.6 0 2.4-.8 2.4-1.9s-.8-1.4-1.6-1.7zM8.4 9.2c-1.4 0-2.8 1.2-2.8 3.1 0 2 1.3 3.1 3 3.1.7 0 1.5-.3 2.1-.7l-.6-1c-.4.3-.8.4-1.3.4-.8 0-1.4-.4-1.6-1.3h3.6c0-.1.1-.4.1-.7.1-1.6-.8-2.9-2.5-2.9zm-1.1 2.5c.1-.8.6-1.2 1.1-1.2.7 0 1 .5 1 1.2H7.3z"/></symbol><symbol viewBox="0 0 24 24" id="git"><path d="M23.5 10.9L13.1.5c-.6-.6-1.6-.6-2.2 0L8.7 2.6l2.8 2.8c.6-.2 1.4-.1 1.9.4s.7 1.3.4 1.9l2.7 2.7c.6-.2 1.4-.1 1.9.4.7.7.7 1.9 0 2.6-.7.7-1.9.7-2.6 0-.5-.5-.7-1.3-.4-2l-2.5-2.5v6.5c.2.1.3.2.5.3.7.7.7 1.9 0 2.6-.7.7-1.9.7-2.6 0-.7-.7-.7-1.9 0-2.6.2-.2.4-.3.6-.4V8.8c-.2-.1-.4-.2-.6-.4-.5-.5-.7-1.3-.4-2L7.6 3.7.4 10.9c-.6.6-.6 1.6 0 2.2l10.5 10.5c.6.6 1.6.6 2.2 0l10.4-10.4c.7-.7.7-1.7 0-2.3"/></symbol><symbol viewBox="0 0 24 24" id="gulp"><path id="XMLID_13_" d="M6.76 9.243a.61.61 0 0 0-.53.09c-.116.08-.21.213-.28.4l-.584 1.75c-.07.15-.178.324-.32.525a10.158 10.158 0 0 1-1.087 1.276 7.807 7.807 0 0 1-.638.573c-.21.17-.415.305-.612.41-.252.133-.62.253-.87.04a.817.817 0 0 1-.214-.294 1.462 1.462 0 0 1-.107-.398c-.08-.615.02-1.243.176-1.838.136-.523.32-1.054.55-1.592.23-.538.495-1.064.795-1.578.3-.514.613-.97.94-1.37.326-.398.656-.72.99-.963.415-.305.987-.52 1.462-.205.16.106.31.278.443.516.195.36.658 1.208 1.14.625.18-.218.178-.568.132-.83a.794.794 0 0 0-.135-.315c-.31-.466-.643-.803-1-1.012-.656-.384-1.41-.393-2.106-.096a4.508 4.508 0 0 0-1.002.6 7.02 7.02 0 0 0-.968.914c-.314.356-.61.744-.89 1.165a13.702 13.702 0 0 0-1.398 2.798c-.18.496-.325.995-.436 1.496-.11.5-.18.99-.204 1.465-.046.316.017.67.094.975.124.487.396.947.832 1.213.47.286 1.073.223 1.555.007a4.72 4.72 0 0 0 .823-.48c.272-.196.538-.417.798-.662.26-.245.5-.492.722-.74-.177.548-.355 1.096-.518 1.648a30.31 30.31 0 0 0-.21.74c-.06.218-.09.367-.095.447-.024.22-.043.52.085.707.114.168.377.16.525.048a.994.994 0 0 0 .207-.216 1.777 1.777 0 0 0 .263-.54l.07-.237.14-.5c.057-.198.12-.42.192-.665.07-.246.145-.496.222-.752l.226-.752a35.868 35.868 0 0 1 .364-1.16c.044-.132.074-.21.09-.235.076-.217.154-.427.233-.628.08-.2.152-.4.217-.6.065-.197.118-.4.16-.61.052-.244.125-.655.025-.902a.433.433 0 0 0-.267-.257z"/><path id="XMLID_14_" d="M23.93 11.97c-.102-.127-.22-.156-.35-.086a1.36 1.36 0 0 0-.164.097c-.56.502-1.033.918-1.417 1.247-.384.33-.7.593-.95.79a5.31 5.31 0 0 1-.58.412c-.143.08-.56.25-.56-.083.004-.045.06-.13.167-.257.107-.126.24-.28.396-.46.157-.182.326-.383.506-.604.18-.22.347-.448.502-.68.155-.234.284-.466.386-.697.142-.32.24-.734.053-1.058a.91.91 0 0 0-.26-.29c-.394-.284-.943-.29-1.38-.108-.2.085-.397.194-.59.328-.193.134-.38.284-.56.45-.18.166-.347.334-.502.502a.923.923 0 0 0 .04-.14 4.368 4.368 0 0 0 .073-.41c.02-.157.02-.36-.1-.48-.19-.196-.512-.136-.67.06-.093.115-.178.253-.253.412a5.2 5.2 0 0 0-.2.484l-.14.38c-.056.204-.144.427-.216.64-.024.014-.05.024-.07.045-.118.12-.25.25-.4.39a14.142 14.142 0 0 1-.96.834 7.067 7.067 0 0 1-.478.35 3.34 3.34 0 0 1-.427.245c-.086.04-.39.175-.474.026-.085-.153-.015-.433.03-.583.043-.15.088-.284.134-.398a209.08 209.08 0 0 1 .84-2.107l.508-1.254a125.602 125.602 0 0 1 .974-2.34c.145-.338.27-.623.374-.857.054-.114.1-.22.135-.32.073-.204.088-.538-.107-.692-.223-.175-.51-.15-.74-.006-.13.08-.23.216-.306.41l-1.904 4.8-.415 1.048c-.15.382-.3.766-.446 1.153a5.19 5.19 0 0 0-.2.65c-.056.047-.112.108-.168.15-.212.16-.415.286-.607.376-.738.343-.832-.138-.675-.762.057-.226.128-.456.214-.692.086-.236.18-.467.28-.696.1-.228.194-.443.28-.644.085-.2.156-.38.213-.536.094-.26.135-.54-.047-.778-.365-.473-.803.067-.95.402a5.5 5.5 0 0 0-.197.536 4.23 4.23 0 0 1-.21.543 10.7 10.7 0 0 1-.424.837c-.17.305-.36.59-.568.856-.21.265-.438.487-.685.666-.176.127-.808.474-.986.156a.49.49 0 0 1-.063-.246c.008-.213.044-.433.107-.658.064-.226.14-.448.227-.666.088-.218.183-.43.286-.632.103-.203.2-.393.292-.57.092-.175.173-.33.242-.468a1.69 1.69 0 0 0 .135-.33.457.457 0 0 0-.03-.34.445.445 0 0 0-.133-.14.614.614 0 0 0-.177-.082.666.666 0 0 0-.556.097c-.115.082-.217.217-.305.406-.343.713-.61 1.32-.798 1.822-.188.5-.328.91-.418 1.224-.09.315-.144.546-.16.692-.03.257-.04.512.063.76a.826.826 0 0 0 .57.517c.398.108.865.047 1.245-.1a3.142 3.142 0 0 0 1.263-.942c.163-.198.3-.394.408-.588-.09.41-.243 1.128.088 1.48.305.325.82.19 1.17.034.25-.113.506-.26.765-.444.08-.057.154-.132.232-.194.007.054 0 .11.012.164.03.13.078.24.148.335.07.095.16.17.276.224.367.174.857.06 1.206-.097.266-.12.534-.28.804-.48.297-.22.576-.465.843-.722-.04.098-.076.19-.12.29-.216.49-.44.982-.675 1.48-.234.5-.465.997-.69 1.493-.034.09-.07.182-.11.28-.04.096-.08.195-.117.296-.038.102-.07.205-.094.31-.045.187-.085.574.11.717.186.136.496.14.69.03a.902.902 0 0 0 .252-.207 1.53 1.53 0 0 0 .195-.3 2.78 2.78 0 0 0 .15-.366c.012-.045.04-.13.087-.253l.16-.432c.13-.35.26-.697.393-1.046l.167-.435a4.67 4.67 0 0 1 .104-.252 53.7 53.7 0 0 0 .22-.503c.05-.116.107-.24.167-.372.06-.13.118-.26.173-.383.054-.124.105-.236.15-.335l.108-.23a8.344 8.344 0 0 1 .7-1.184c.146-.202.3-.398.466-.587.165-.188.335-.356.51-.502a2.61 2.61 0 0 1 .527-.35c.152-.073.558-.217.727-.077.154.13-.02.423-.088.528-.1.16-.228.335-.38.526-.154.19-.32.393-.5.607-.33.39-.66.793-.918 1.235a1.36 1.36 0 0 0-.195.513.753.753 0 0 0 .254.693c.446.356 1.216.222 1.694.015.297-.13.602-.31.914-.547s.644-.516.996-.844c.352-.328.752-.69 1.2-1.087.113-.09.198-.202.254-.336.083-.202.128-.49.013-.694z"/></symbol><symbol viewBox="0 0 24 24" id="arrow-back"><path d="M20 11H7.83l5.59-5.59L12 4l-8 8 8 8 1.41-1.41L7.83 13H20v-2z"/></symbol><symbol viewBox="0 0 24 24" id="arrow-forward"><path d="M12 4l-1.41 1.41L16.17 11H4v2h12.17l-5.58 5.59L12 20l8-8z"/></symbol><symbol viewBox="0 0 24 24" id="codepen"><path d="M12 2C6.477 2 2 6.477 2 12s4.477 10 10 10 10-4.477 10-10S17.523 2 12 2zm0 18.358c-4.61 0-8.358-3.75-8.358-8.358S7.392 3.642 12 3.642c4.608 0 8.358 3.75 8.358 8.358s-3.75 8.358-8.358 8.358z"/><path d="M18.178 10.047a.544.544 0 0 0-.232-.373l-5.652-3.768a.532.532 0 0 0-.59 0l-5.65 3.768a.54.54 0 0 0-.238.442v3.768c0 .174.09.346.237.442l5.652 3.768c.197.12.393.12.59 0l5.652-3.768a.538.538 0 0 0 .237-.442v-3.768a.803.803 0 0 0-.006-.07zM12.53 7.34l4.165 2.776-1.86 1.244-2.304-1.54V7.34zm-1.06 0v2.48l-2.305 1.54-1.86-1.243L11.47 7.34zm-4.59 3.77l1.33.89-1.33.89v-1.78zm4.59 5.55l-4.165-2.776 1.86-1.244 2.304 1.54v2.48zm.53-3.403L10.12 12 12 10.743 13.88 12 12 13.257zm.53 3.402v-2.48l2.305-1.54 1.86 1.243-4.164 2.776zm4.59-3.77L15.79 12l1.33-.89v1.78z"/></symbol><symbol viewBox="0 0 24 24" id="linkedin"><path d="M19.668 3H4.328C3.595 3 3 3.58 3 4.298v15.404C3 20.418 3.595 21 4.328 21h15.34c.734 0 1.332-.582 1.332-1.3V4.3C21 3.58 20.402 3 19.668 3zM8.338 18.338H5.67v-8.59h2.67v8.59zM7.005 8.574a1.548 1.548 0 1 1-.002-3.096 1.548 1.548 0 0 1 .002 3.096zm11.335 9.764h-2.67V14.16c0-.995-.018-2.277-1.388-2.277-1.39 0-1.6 1.086-1.6 2.206v4.248h-2.668v-8.59h2.56v1.174h.036c.356-.675 1.227-1.387 2.526-1.387 2.703 0 3.203 1.78 3.203 4.092v4.71z"/></symbol><symbol viewBox="0 0 24 24" id="github"><path d="M12 2.247c-5.522 0-10 4.477-10 10 0 4.42 2.865 8.167 6.84 9.49.5.09.682-.218.682-.483 0-.237-.01-.866-.014-1.7-2.782.603-3.37-1.34-3.37-1.34-.454-1.156-1.11-1.464-1.11-1.464-.907-.62.07-.608.07-.608 1.004.07 1.532 1.03 1.532 1.03.892 1.53 2.34 1.088 2.91.832.09-.646.35-1.087.635-1.337-2.22-.252-4.555-1.11-4.555-4.942 0-1.092.39-1.984 1.03-2.683-.104-.253-.447-1.27.097-2.646 0 0 .84-.27 2.75 1.025A9.578 9.578 0 0 1 12 7.085c.85.004 1.706.115 2.505.337 1.91-1.293 2.747-1.024 2.747-1.024.546 1.377.202 2.393.1 2.646.64.7 1.028 1.592 1.028 2.683 0 3.842-2.338 4.687-4.566 4.935.36.31.68.92.68 1.852 0 1.337-.013 2.415-.013 2.743 0 .267.18.58.69.48C19.136 20.41 22 16.666 22 12.25c0-5.524-4.478-10-10-10z"/></symbol></svg>