<svg xmlns="http://www.w3.org/2000/svg"><symbol viewBox="0 0 24 24" id="polymer"><path d="M19 4h-4L7.11 16.63 4.5 12 9 4H5L.5 12 5 20h4l7.89-12.63L19.5 12 15 20h4l4.5-8z"/></symbol><symbol viewBox="0 0 24 24" id="sass"><path d="M22 2.9C21.3.1 16.6-.8 12.2.7c-2.7 1-5.5 2.5-7.6 4.4-2.4 2.3-2.8 4.3-2.7 5.1.6 2.9 4.6 4.8 6.2 6.3-.5.2-4 2-4.9 3.9-.9 1.9.1 3.3.8 3.5 2.1.6 4.2-.5 5.4-2.2 1.1-1.7 1-3.8.5-4.9.7-.2 1.4-.3 2.4-.1 2.8.3 3.3 2.1 3.2 2.8-.1.7-.7 1.1-.9 1.2-.2.1-.3.2-.2.3 0 .1.1.1.3.1.2 0 1.5-.6 1.5-1.9.1-1.7-1.6-3.6-4.5-3.6-1.2 0-1.9.1-2.5.3l-.1-.1c-1.8-1.9-5.1-3.3-5-5.8.3-1 .6-3.5 6.6-6.4 4.9-2.4 8.8-1.8 9.5-.3 1 2.1-2.1 6.1-7.2 6.6-1.9.2-3-.5-3.2-.8-.3-.3-.3-.3-.4-.2-.2.1-.1.4 0 .5.2.4.8 1.1 1.8 1.4.9.3 3.2.5 6-.6C20.3 9 22.7 5.7 22 2.9zM8.8 17.3c.2.9.2 1.7 0 2.4 0 .1-.1.2-.1.2 0 .1-.1.2-.1.2-.2.4-.4.7-.7 1.1-.9 1-2.2 1.4-2.8 1.1-.6-.3-.3-1.8.8-2.9 1.2-1.2 2.8-2 2.8-2 .1 0 .1-.1.1-.1z"/></symbol><symbol viewBox="0 0 24 24" id="css"><path d="M9.5 1.1V0H6.9v3.2h2.6V2.1H8v-1zM13.3 0h-2.7v1.1l1.1 1h-1.1v1.1h2.7v-1l-1-1.1h1zM17.1 0h-2.6v1.1l1 1h-1v1.1h2.6v-1l-1-1.1h1zM3.5 4.7L5 22.1l7 1.9 7-1.9 1.5-17.4h-17zm13.6 5.6L12 12.5h4.9l-.6 6.6-4.3 1.2-4.4-1.2-.3-3.3h2.1l.2 1.7 2.4.6 2.4-.7.2-2.8H7.2L7 12.5l5-2.1.3-.1H6.8l-.1-2.2h10.6l-.2 2.2z"/></symbol><symbol viewBox="0 0 24 24" id="html"><path d="M5 0h1.1v1.1h1V0h1.1v3.2H7.1v-1h-1v1.1H5V0zM9.6 1.1h-1V0h3v1.1h-1v2.2h-1V1.1zM12.1 0h1.1l.8 1.1.7-1.1h1.1v3.2h-1.1V1.6L14 2.8l-.7-1.2v1.6h-1.1V0zM16.3 0h1.1v2.2h1.5v1.1h-2.6V0zM3.5 4.7L5 22.1l7 1.9 7-1.9 1.6-17.4H3.5zm4.1 14.4l-.3-3.4h2.1l.2 1.8 2.4.6 2.4-.6.2-2.8H7.2l-.5-6.5h10.6l-.2 2.1H9l.2 2.2H17l-.6 6.6-4.4 1.2-4.4-1.2z"/></symbol><symbol viewBox="0 0 24 24" id="javascript"><path d="M3 3v18h18V3H3zm9.8 14c0 1.8-1 2.5-2.5 2.5-1.4 0-2.1-.7-2.5-1.5l1.4-.8c.3.5.5.9 1.1.9.6 0 .9-.2.9-1.1v-5.8h1.7V17zm4 2.6c-1.6 0-2.6-.7-3.1-1.7l1.4-.8c.4.6.8 1 1.7 1 .7 0 1.1-.4 1.1-.8 0-.6-.5-.8-1.2-1.1l-.4-.2c-1.2-.5-2-1.2-2-2.5s1-2.2 2.5-2.2c1.1 0 1.8.4 2.4 1.4l-1.3.8c-.3-.5-.6-.7-1.1-.7-.5 0-.8.3-.8.7 0 .5.3.7 1 1l.4.2c1.4.6 2.2 1.2 2.2 2.7 0 1.4-1.2 2.2-2.8 2.2z"/></symbol><symbol viewBox="0 0 24 24" id="expression-engine"><path d="M14.9 14.1c-.6.6-1.2 1-1.6 1.2-.5.2-1 .3-1.4.3-.6 0-1.1-.2-1.4-.6-.4-.4-.5-.9-.5-1.6v-.7h.1c1.7-.3 2.9-.6 3.7-1 .8-.4 1.4-.8 1.7-1.2.4-.5.5-.9.5-1.4 0-.6-.2-1-.6-1.4-.4-.4-1.1-.5-1.9-.5-1.1 0-2.2.3-3.1.8-1 .5-1.7 1.2-2.3 2.1-.6.9-.9 1.9-.9 2.8 0 1.1.3 1.9 1 2.6.7.6 1.6.9 2.7.9.8 0 1.6-.2 2.3-.5.7-.3 1.4-.8 2.1-1.6-.1 0-.3-.2-.4-.2zm-4.9-2c.2-1.4.7-2.5 1.3-3.3.4-.6.9-.9 1.4-.9.3 0 .5.1.7.3.2.2.3.5.3.8 0 .8-.4 1.5-1.1 2.2-.5.5-1.4.8-2.5 1h-.2l.1-.1z"/><path d="M3.5 14.3c-.9-3.7 1.3-7.6 5.2-9.4-.1 0-.2.1-.3.1.1 0 .2-.1.3-.1L1.4 6.8l1.9 1.1C.8 10-.5 12.7.1 15.1 1.1 19 6.5 21 12.5 20c-4.2.3-8-2-9-5.7zM23.8 8.9C22.9 5 17.5 3 11.5 4c4.2-.3 8.1 2 9 5.7.9 3.7-1.3 7.6-5.2 9.4.1 0 .2-.1.3-.1-.1 0-.2.1-.3.1l7.2-1.9-1.9-1.1c2.6-2.2 3.9-4.8 3.2-7.2z"/></symbol><symbol viewBox="0 0 24 24" id="wordpress"><path d="M12 2C6.5 2 2 6.5 2 12s4.5 10 10 10 10-4.5 10-10S17.5 2 12 2zM3 12c0-1.3.3-2.5.8-3.7l4.3 11.8C5.1 18.6 3 15.6 3 12zm9 9c-.9 0-1.7-.1-2.5-.4l2.7-7.8 2.8 7.6s0 .1.1.1c-1 .3-2.1.5-3.1.5zm1.2-13.2c.5 0 1-.1 1-.1.5-.1.4-.8-.1-.7 0 0-1.5.1-2.4.1-.8 0-2.3-.1-2.3-.1-.4-.1-.5.7 0 .7 0 0 .5.1.9.1l1.4 3.8-2 5.9-3.2-9.7c.5 0 1-.1 1-.1.5-.1.4-.8 0-.7 0 0-1.5.1-2.4.1h-.6C6.1 4.6 8.9 3 12 3c2.3 0 4.5.9 6.1 2.4H18c-.9 0-1.5.8-1.5 1.6 0 .7.4 1.4.9 2.1.3.6.7 1.4.7 2.5 0 .8-.3 1.7-.7 2.9l-.9 3-3.3-9.7zm6.7-.1C20.6 9 21 10.4 21 12c0 3.3-1.8 6.2-4.5 7.8l2.7-7.9c.5-1.3.7-2.3.7-3.2v-1z"/></symbol><symbol viewBox="0 0 24 24" id="bootstrap"><path d="M6.4 4h7.8c1.4 0 2.6.3 3.5 1 .9.7 1.3 1.7 1.3 3 0 .8-.2 1.5-.6 2.1-.4.6-1 1-1.7 1.3 1 .2 1.7.7 2.2 1.4.5.7.8 1.6.8 2.7 0 .6-.1 1.2-.3 1.8-.2.5-.6 1-1.1 1.4-.5.4-1.1.7-1.8.9-.7.2-1.6.3-2.7.3H6.4V4zm2.8 6.7h4.6c.7 0 1.2-.2 1.7-.6.4-.4.7-.9.7-1.6 0-.8-.2-1.4-.6-1.7-.4-.3-1-.5-1.7-.5H9.2v4.4zm0 7h5c.9 0 1.5-.2 2-.7.5-.4.7-1.1.7-1.9 0-.8-.2-1.4-.7-1.8-.5-.4-1.1-.6-2-.6h-5v5z"/></symbol><symbol viewBox="0 0 24 24" id="foundation"><path d="M18.8 12.6l.3-.3c.3-.4.6-.9.7-1.5.2-.9.1-1.8-.1-2.7v-.2c.4-1 .3-2.1.1-3.1v-.1c-.1 0-.1 0-.1.1-.2.3-.4.5-.6.7-.1.1-.1.1-.2 0-.2-.4-.4-.8-.7-1.2v-.1c.3-1 .2-1.9-.3-2.7 0-.1-.1-.1-.1-.1-.1 0-.1.1-.1.2-.1.5-.3 1-.7 1.4-.4-.3-.7-.7-1.2-.9-.5-.3-1-.6-1.6-.7-.2 0-.3 0-.2.2 0 .2.1.4.1.6l-1.2-.9c0 .3.1.6.1.9 0 .1 0 .2-.1.1-.4-.1-.7-.2-1.1-.3-.9-.2-1.8-.3-2.7-.2h-.2c0 .1.1.1.1.2.1.1.2.3.3.4v.1h-.1c-.1-.1-.2-.2-.4-.2h-.1v.1c.1.1.2.3.3.4 0 .1 0 .2-.1.2H7.7h-.1.2v-.1c-.5-.6-.7-1.2-.8-1.8C7 1 7 1 6.9 1c-.5.6-.7 1.4-.7 2.2-.2.1-.3.1-.5.1-.1 0-.1.1 0 .2s.2.2.3.4V4H4.8c.3.3.5.5.7.8.1.1.1.2 0 .2-.3.2-.6.4-.9.7 0 .1-.4.3-.4.4.2.3.4.5.6.8.4.6.9 1.1 1.3 1.7l.4.4c.1.1.1.1.3 0 .3-.2.6-.5.9-.7.3-.2.7-.3 1-.5h.1c1.1-.5 2.3-.6 3.6-.5.6.1 1.3.2 1.8.7h.1s0 .1.1.1c0 .1.1.2.1.3.2.5 0 1-.4 1.2-.6.4-1.3.5-1.9.3-.5-.1-.8-.4-1.2-.7 0 0-.1-.1-.2-.1 0 .1 0 .3.1.4 0 .1 0 .2-.2.1s-.3-.2-.5-.2c.1.2.1.3.2.5s.1.2-.2.3c-.2 0-.7.1-1 .1l-.1-.3c-.1.3-.2 0-.2 0v4.8c0 .1.1.1.1.1h1c1 0 2.1-.1 3.1.1.4.1.8.2 1.2.4.3.2.6.5.5 1-.1.1-.2.3-.4.4-.4.2-.8.2-1.3.1-.3 0-.6-.1-1-.2l.5.5.1.1h-.1c-.3 0-.6-.1-.9-.1h-.1c0 .1 0 .1.1.1.1.1.2.2.3.4h-.2c-.5-.1-.9-.3-1.3-.4-.8-.4-1.4-.9-2-1.5 0 0-.1-.1-.2-.1 0 .2.1.3.1.4 0 .1.1.2 0 .2-.1.1-.1 0-.2-.1-.2-.1-.3-.2-.5-.3-.1 0-.2-.1-.3-.1.1.3.2.5.3.8-.1 0-.1-.1-.2-.1-.2-.1-.5-.3-.7-.4-.1-.1-.1 0-.1 0-.8 1-1.6 2.1-2.3 3.1-.1.1 0 .1 0 .2.3.3.5.5.8.7 0 .1.1.1.1.1.1.1.3.2.4.3-.2.5-.1.5-.1.5l.9.6c1.3.8 2.8 1.2 4.3 1.2.7 0 1.5-.1 2.2-.2.2 0 .3 0 .2.2 0 .1 0 .1.1.1.2 0 .5-.1.7-.2.1 0 .1-.1.1 0 0 .2.1.2.2.1 1.1-.2 2-.8 2.9-1.4.3-.2.5-.4.8-.6 0 0 0-.1.1-.1.8-.8 1.3-1.7 1.5-2.8.1-.4.1-.7.1-1.1v-.1h.2v-.1c0-.7-.3-1.4-.6-2-.3-.6-1-1.2-1.8-1.6-.1 0-.2 0-.2-.1s.1-.1.1-.1l.6-.3c-.2-.1-.5-.2-.7-.3.6-.3 1-.7 1.3-1.2.1-.1.1 0 .1 0 .1.3.1.6.1.9v.7zM7.3 3c-.1 0-.3.1-.4 0-.1-.4-.1-1 0-1.3.1.5.3.9.4 1.3zm9.2 1.9c-.1.1-.1 0-.2 0-.1-.1-.2-.2-.2-.4 0-.1 0-.1.1-.2l.4-.4c.6-.5.9-1.1 1.1-1.8V2c.1 1.2-.3 2.2-1.2 2.9z"/></symbol><symbol viewBox="0 0 24 24" id="less"><path d="M23 10.6c0-.8.1-1.2.1-2 0-1.3-.5-1.7-1.5-1.7h-.8v.9h.2c.5 0 .7.2.7.8 0 .6-.1 1.2-.1 1.9 0 .9.3 1.3.9 1.4v.1c-.6.1-.9.5-.9 1.4 0 .7.1 1.3.1 1.9 0 .7-.1.8-.7.8h-.2v.9h.8c1 0 1.5-.4 1.5-1.7 0-.8-.1-1.3-.1-2 0-.4.3-.8 1-.9v-1c-.8.1-1-.4-1-.8zm-4 1.2c-.6-.2-1.1-.4-1.1-.8 0-.3.2-.5.7-.5s.8.2 1.3.5l.8-1c-.5-.4-1.2-.8-2.1-.8-1.3 0-2.2.8-2.2 1.9 0 1 .8 1.5 1.6 1.7.6.2 1.2.4 1.2.8 0 .3-.2.5-.8.5-.5 0-1-.2-1.5-.6l-.9 1.2c.6.5 1.5.8 2.2.8 1.6 0 2.4-.8 2.4-1.9s-.8-1.5-1.6-1.8zM5.6 14c-.1 0-.3-.1-.3-.5V6.9H2.4C1.3 6.9.9 7.3.9 8.6c0 .8.1 1.3.1 2 0 .4-.3.8-1 .9v1c.8 0 1 .5 1 .9 0 .7-.1 1.2-.1 2 0 1.3.5 1.7 1.5 1.7h.8v-.9H3c-.5 0-.7-.2-.7-.8s.1-1.2.1-1.9c0-.9-.3-1.3-.9-1.4V12c.6-.1.9-.5.9-1.4 0-.7-.1-1.3-.1-1.9 0-.7.1-.9.7-.9h.5v5.7c0 1.2.4 2 1.6 2 .4 0 .7-.1.9-.1L5.8 14h-.2zm8.6-2.2c-.6-.2-1.2-.4-1.2-.8 0-.3.2-.5.7-.5.4 0 .8.2 1.3.5l.8-1c-.5-.4-1.2-.8-2.1-.8-1.3 0-2.2.8-2.2 1.9 0 1 .8 1.5 1.6 1.7.6.2 1.2.4 1.2.8 0 .3-.2.5-.8.5-.5 0-1-.2-1.5-.6l-.8 1.1c.6.5 1.5.8 2.2.8 1.6 0 2.4-.8 2.4-1.9s-.8-1.4-1.6-1.7zM8.4 9.2c-1.4 0-2.8 1.2-2.8 3.1 0 2 1.3 3.1 3 3.1.7 0 1.5-.3 2.1-.7l-.6-1c-.4.3-.8.4-1.3.4-.8 0-1.4-.4-1.6-1.3h3.6c0-.1.1-.4.1-.7.1-1.6-.8-2.9-2.5-2.9zm-1.1 2.5c.1-.8.6-1.2 1.1-1.2.7 0 1 .5 1 1.2H7.3z"/></symbol><symbol viewBox="0 0 24 24" id="git"><path d="M23.5 10.9L13.1.5c-.6-.6-1.6-.6-2.2 0L8.7 2.6l2.8 2.8c.6-.2 1.4-.1 1.9.4s.7 1.3.4 1.9l2.7 2.7c.6-.2 1.4-.1 1.9.4.7.7.7 1.9 0 2.6-.7.7-1.9.7-2.6 0-.5-.5-.7-1.3-.4-2l-2.5-2.5v6.5c.2.1.3.2.5.3.7.7.7 1.9 0 2.6-.7.7-1.9.7-2.6 0-.7-.7-.7-1.9 0-2.6.2-.2.4-.3.6-.4V8.8c-.2-.1-.4-.2-.6-.4-.5-.5-.7-1.3-.4-2L7.6 3.7.4 10.9c-.6.6-.6 1.6 0 2.2l10.5 10.5c.6.6 1.6.6 2.2 0l10.4-10.4c.7-.7.7-1.7 0-2.3"/></symbol><symbol viewBox="0 0 24 24" id="gulp"><path id="XMLID_13_" d="M6.76 9.243a.61.61 0 0 0-.531.089c-.115.08-.208.214-.279.402l-.584 1.749a3.724 3.724 0 0 1-.32.525 10.158 10.158 0 0 1-1.087 1.276 7.807 7.807 0 0 1-.638.573 3.956 3.956 0 0 1-.613.409c-.252.134-.621.254-.87.041a.817.817 0 0 1-.214-.294 1.462 1.462 0 0 1-.107-.398c-.079-.615.021-1.243.176-1.838a11.15 11.15 0 0 1 .55-1.592c.23-.538.495-1.064.795-1.578.299-.514.613-.97.939-1.369.327-.399.657-.721.99-.964.416-.305.988-.519 1.463-.205.161.107.309.279.443.517.195.36.658 1.208 1.14.625.181-.219.178-.569.132-.83a.794.794 0 0 0-.135-.316c-.31-.466-.643-.803-.999-1.012-.657-.384-1.412-.393-2.107-.096a4.508 4.508 0 0 0-1.002.599 7.02 7.02 0 0 0-.968.915c-.314.355-.61.743-.889 1.164-.279.422-.536.87-.773 1.343-.237.474-.445.959-.625 1.455-.18.496-.326.995-.437 1.496-.111.501-.179.99-.204 1.466-.046.316.017.671.094.975.124.487.396.947.832 1.213.469.286 1.073.223 1.555.007.276-.124.551-.284.823-.48.272-.196.538-.417.798-.662.26-.245.5-.492.722-.74-.177.548-.355 1.096-.518 1.648-.082.275-.152.522-.211.74-.059.218-.09.367-.094.447-.024.219-.043.52.085.707.114.168.377.16.525.048a.994.994 0 0 0 .207-.216 1.777 1.777 0 0 0 .263-.539l.069-.238.141-.499c.057-.199.12-.421.192-.666.071-.246.146-.496.223-.752l.226-.752a35.868 35.868 0 0 1 .364-1.161c.044-.131.074-.21.091-.234.075-.218.153-.428.232-.629.079-.201.152-.401.217-.599.065-.198.118-.402.16-.61.052-.245.125-.656.025-.903a.433.433 0 0 0-.267-.257z"/><path id="XMLID_14_" d="M23.931 11.97c-.103-.127-.221-.156-.352-.086a1.36 1.36 0 0 0-.163.097c-.561.501-1.033.917-1.417 1.246-.383.33-.7.593-.949.789a5.31 5.31 0 0 1-.581.413c-.142.082-.559.25-.559-.082.004-.045.06-.13.167-.257.107-.126.239-.28.396-.461.157-.181.326-.382.506-.603.18-.221.348-.448.503-.681.155-.233.284-.465.386-.696.142-.318.239-.733.053-1.057a.909.909 0 0 0-.261-.29c-.394-.284-.943-.291-1.379-.108a3.267 3.267 0 0 0-.591.328 5.195 5.195 0 0 0-.559.45c-.18.166-.348.334-.503.502a.923.923 0 0 0 .041-.141 4.368 4.368 0 0 0 .072-.41c.02-.156.019-.358-.101-.48-.191-.195-.512-.135-.669.06a2.028 2.028 0 0 0-.254.413 5.2 5.2 0 0 0-.201.484l-.138.38c-.057.204-.145.427-.217.64-.025.014-.052.024-.072.045a14.142 14.142 0 0 1-1.36 1.224 7.067 7.067 0 0 1-.477.35 3.341 3.341 0 0 1-.427.246c-.086.041-.391.175-.474.026-.086-.154-.016-.434.028-.584a4.26 4.26 0 0 1 .135-.398 209.079 209.079 0 0 1 .839-2.106l.509-1.254a125.602 125.602 0 0 1 .974-2.34c.145-.337.269-.622.374-.856.054-.114.099-.221.135-.32.073-.204.088-.538-.107-.692-.223-.176-.51-.151-.741-.007-.128.079-.229.216-.305.409l-1.904 4.8-.415 1.049c-.151.382-.3.766-.446 1.153a5.19 5.19 0 0 0-.2.65c-.056.047-.112.108-.168.15a3.368 3.368 0 0 1-.606.376c-.738.342-.832-.139-.675-.763.057-.226.128-.456.214-.692.086-.236.179-.467.28-.696.1-.228.194-.443.279-.644.086-.201.157-.379.214-.536.094-.26.135-.541-.047-.778-.365-.473-.803.067-.949.402a5.501 5.501 0 0 0-.198.536 4.23 4.23 0 0 1-.211.543 10.7 10.7 0 0 1-.424.837c-.17.305-.359.591-.568.856-.21.265-.438.487-.685.666-.176.127-.808.474-.986.156a.49.49 0 0 1-.063-.246c.008-.213.044-.433.107-.658.063-.226.138-.448.226-.666.088-.218.183-.429.286-.632.103-.203.2-.393.292-.569.092-.176.173-.332.242-.469.069-.136.114-.247.135-.331a.457.457 0 0 0-.031-.338.445.445 0 0 0-.132-.141.614.614 0 0 0-.176-.082.666.666 0 0 0-.556.097c-.115.082-.217.217-.305.406a23.504 23.504 0 0 0-.798 1.823c-.188.501-.328.909-.418 1.224-.09.315-.144.546-.16.692-.029.257-.04.512.063.759a.826.826 0 0 0 .569.517c.4.109.867.048 1.247-.1a3.142 3.142 0 0 0 1.263-.941 4.06 4.06 0 0 0 .408-.588c-.091.41-.243 1.128.088 1.481.305.324.819.189 1.169.033a4.48 4.48 0 0 0 .766-.443c.08-.057.155-.132.233-.194.007.054 0 .111.012.164a.875.875 0 0 0 .148.335.71.71 0 0 0 .276.223c.367.174.857.059 1.206-.097.266-.119.534-.279.804-.48.297-.221.576-.465.843-.722-.042.098-.077.191-.121.29-.216.489-.441.982-.675 1.481-.234.499-.465.996-.691 1.492-.033.089-.07.182-.11.279-.04.097-.079.196-.116.297a2.673 2.673 0 0 0-.094.309c-.045.188-.085.575.11.718.186.135.496.138.691.03a.902.902 0 0 0 .251-.208 1.53 1.53 0 0 0 .195-.301c.056-.114.106-.236.148-.365.013-.045.042-.129.088-.253l.16-.432c.13-.349.261-.697.393-1.046.063-.166.118-.311.167-.435a4.67 4.67 0 0 1 .104-.253 53.699 53.699 0 0 0 .22-.503c.05-.116.106-.24.166-.372.061-.131.118-.259.173-.383.054-.124.105-.236.151-.335l.107-.231a8.344 8.344 0 0 1 .701-1.183c.145-.203.299-.399.465-.588.165-.188.335-.356.509-.502a2.61 2.61 0 0 1 .528-.35c.151-.074.557-.218.726-.078.154.129-.021.423-.088.528-.1.159-.227.334-.38.525s-.319.393-.5.607c-.33.391-.659.793-.917 1.235a1.36 1.36 0 0 0-.195.513.753.753 0 0 0 .254.692c.445.356 1.215.222 1.693.015.297-.129.602-.311.914-.547s.644-.517.996-.845c.352-.328.752-.69 1.2-1.087a.825.825 0 0 0 .254-.335c.083-.202.128-.49.013-.694z"/></symbol><symbol viewBox="0 0 24 24" id="arrow-back"><path d="M20 11H7.83l5.59-5.59L12 4l-8 8 8 8 1.41-1.41L7.83 13H20v-2z"/></symbol><symbol viewBox="0 0 24 24" id="arrow-forward"><path d="M12 4l-1.41 1.41L16.17 11H4v2h12.17l-5.58 5.59L12 20l8-8z"/></symbol><symbol viewBox="0 0 24 24" id="codepen"><path d="M12 2C6.477 2 2 6.477 2 12s4.477 10 10 10 10-4.477 10-10S17.523 2 12 2zm0 18.358c-4.609 0-8.358-3.749-8.358-8.358S7.392 3.642 12 3.642c4.608 0 8.358 3.749 8.358 8.358s-3.75 8.358-8.358 8.358z"/><path d="M18.178 10.047a.544.544 0 0 0-.232-.373l-5.652-3.768a.532.532 0 0 0-.59 0L6.053 9.674a.54.54 0 0 0-.237.442v3.768c0 .174.091.346.237.442l5.652 3.768a.532.532 0 0 0 .59 0l5.652-3.768a.538.538 0 0 0 .237-.442v-3.768a.803.803 0 0 0-.006-.069zm-5.647-2.706l4.164 2.775-1.86 1.244-2.304-1.54V7.341zm-1.062 0V9.82l-2.304 1.541-1.86-1.244 4.164-2.776zm-4.589 3.77L8.209 12l-1.33.889v-1.778zm4.589 5.548l-4.164-2.775 1.86-1.244 2.304 1.541v2.478zM12 13.257L10.121 12 12 10.743 13.879 12 12 13.257zm.531 3.402V14.18l2.304-1.541 1.86 1.244-4.164 2.776zm4.589-3.77L15.791 12l1.329-.889v1.778z"/></symbol><symbol viewBox="0 0 24 24" id="linkedin"><path d="M19.668 3H4.328C3.595 3 3 3.581 3 4.298v15.404C3 20.418 3.595 21 4.328 21h15.341c.733 0 1.331-.582 1.331-1.299V4.298C21 3.581 20.402 3 19.668 3zM8.339 18.338H5.667v-8.59h2.672v8.59zM7.004 8.574a1.548 1.548 0 1 1-.002-3.096 1.548 1.548 0 0 1 .002 3.096zm11.335 9.764h-2.67v-4.177c0-.996-.017-2.278-1.387-2.278-1.389 0-1.601 1.086-1.601 2.206v4.249h-2.667v-8.59h2.559v1.174h.037c.356-.675 1.227-1.387 2.526-1.387 2.703 0 3.203 1.779 3.203 4.092v4.711z"/></symbol><symbol viewBox="0 0 24 24" id="github"><path d="M11.999 2.247C6.478 2.247 2 6.724 2 12.248c0 4.418 2.865 8.166 6.839 9.488.5.092.683-.217.683-.482 0-.237-.009-.866-.014-1.701-2.782.604-3.369-1.34-3.369-1.34-.455-1.155-1.11-1.463-1.11-1.463-.908-.62.069-.608.069-.608 1.004.071 1.532 1.031 1.532 1.031.892 1.528 2.34 1.087 2.91.831.091-.646.349-1.087.635-1.337-2.221-.252-4.555-1.11-4.555-4.942 0-1.092.39-1.984 1.029-2.683-.103-.253-.446-1.27.098-2.646 0 0 .84-.269 2.75 1.025a9.578 9.578 0 0 1 2.504-.337 9.595 9.595 0 0 1 2.504.337c1.909-1.294 2.747-1.025 2.747-1.025.546 1.377.202 2.393.1 2.646.641.699 1.028 1.592 1.028 2.683 0 3.842-2.338 4.687-4.566 4.935.359.309.679.919.679 1.852 0 1.337-.012 2.415-.012 2.743 0 .267.18.579.688.481C19.137 20.41 22 16.664 22 12.248c0-5.524-4.478-10.001-10.001-10.001z"/></symbol></svg>