<svg xmlns="http://www.w3.org/2000/svg">
  <symbol viewBox="0 0 24 24" id="arrow-back"><path d="M20 11H7.83l5.59-5.59L12 4l-8 8 8 8 1.41-1.41L7.83 13H20v-2z"/></symbol>
  <symbol viewBox="0 0 24 24" id="arrow-forward"><path d="M12 4l-1.41 1.41L16.17 11H4v2h12.17l-5.58 5.59L12 20l8-8z"/></symbol>
  <symbol viewBox="0 0 24 24" id="codepen">
  	<path d="M12,2C6.477,2,2,6.477,2,12s4.477,10,10,10c5.523,0,10-4.477,10-10S17.523,2,12,2z M12,20.358
  		c-4.609,0-8.358-3.749-8.358-8.358S7.392,3.642,12,3.642c4.608,0,8.358,3.749,8.358,8.358S16.608,20.358,12,20.358z"/>
  	<path d="M18.178,10.047c-0.022-0.149-0.105-0.289-0.232-0.373l-5.652-3.768c-0.179-0.119-0.411-0.119-0.59,0
  		L6.053,9.674c-0.145,0.097-0.237,0.267-0.237,0.442v3.768c0,0.174,0.091,0.346,0.237,0.442l5.652,3.768
  		c0.197,0.119,0.393,0.119,0.59,0l5.652-3.768c0.146-0.095,0.237-0.269,0.237-0.442v-3.768
  		C18.183,10.093,18.181,10.07,18.178,10.047z M12.531,7.341l4.164,2.775l-1.86,1.244L12.531,9.82V7.341z M11.469,7.341V9.82
  		l-2.304,1.541l-1.86-1.244L11.469,7.341z M6.88,11.111L8.209,12l-1.33,0.889V11.111z M11.469,16.659l-4.164-2.775l1.86-1.244
  		l2.304,1.541V16.659z M12,13.257L10.121,12L12,10.743L13.879,12L12,13.257z M12.531,16.659V14.18l2.304-1.541l1.86,1.244
  		L12.531,16.659z M17.12,12.889L15.791,12l1.329-0.889V12.889z"/>
  </symbol>
  <symbol viewBox="0 0 24 24" id="linkedin">
  	<path d="M19.668,3H4.328C3.595,3,3,3.581,3,4.298v15.404C3,20.418,3.595,21,4.328,21h15.341
  		C20.402,21,21,20.418,21,19.701V4.298C21,3.581,20.402,3,19.668,3z M8.339,18.338H5.667v-8.59h2.672V18.338z M7.004,8.574
  		c-0.857,0-1.549-0.694-1.549-1.548c0-0.855,0.691-1.548,1.549-1.548c0.854,0,1.547,0.694,1.547,1.548
  		C8.551,7.881,7.858,8.574,7.004,8.574z M18.339,18.338h-2.67v-4.177c0-0.996-0.017-2.278-1.387-2.278
  		c-1.389,0-1.601,1.086-1.601,2.206v4.249h-2.667v-8.59h2.559v1.174h0.037c0.356-0.675,1.227-1.387,2.526-1.387
  		c2.703,0,3.203,1.779,3.203,4.092V18.338z"/>
  </symbol>
  <symbol viewBox="0 0 24 24" id="github">
    <path d="M11.999,2.247C6.478,2.247,2,6.724,2,12.248c0,4.418,2.865,8.166,6.839,9.488
  	c0.5,0.092,0.683-0.217,0.683-0.482c0-0.237-0.009-0.866-0.014-1.701c-2.782,0.604-3.369-1.34-3.369-1.34
  	c-0.455-1.155-1.11-1.463-1.11-1.463c-0.908-0.62,0.069-0.608,0.069-0.608c1.004,0.071,1.532,1.031,1.532,1.031
  	c0.892,1.528,2.34,1.087,2.91,0.831c0.091-0.646,0.349-1.087,0.635-1.337c-2.221-0.252-4.555-1.11-4.555-4.942
  	c0-1.092,0.39-1.984,1.029-2.683c-0.103-0.253-0.446-1.27,0.098-2.646c0,0,0.84-0.269,2.75,1.025
  	c0.798-0.222,1.653-0.333,2.504-0.337c0.849,0.004,1.705,0.115,2.504,0.337c1.909-1.294,2.747-1.025,2.747-1.025
  	c0.546,1.377,0.202,2.393,0.1,2.646c0.641,0.699,1.028,1.592,1.028,2.683c0,3.842-2.338,4.687-4.566,4.935
  	c0.359,0.309,0.679,0.919,0.679,1.852c0,1.337-0.012,2.415-0.012,2.743c0,0.267,0.18,0.579,0.688,0.481
  	C19.137,20.41,22,16.664,22,12.248C22,6.724,17.522,2.247,11.999,2.247z"/>
  </symbol>
</svg>
