<svg xmlns="http://www.w3.org/2000/svg">
  <symbol viewBox="0 0 24 24" id="polymer">
    <path d="M19 4h-4L7.11 16.63 4.5 12 9 4H5L.5 12 5 20h4l7.89-12.63L19.5 12 15 20h4l4.5-8z"/>
  </symbol>
  <symbol viewBox="0 0 24 24" id="sass">
    <path d="M22,2.9c-0.7-2.8-5.4-3.7-9.8-2.2C9.5,1.7,6.7,3.2,4.6,5.1c-2.4,2.3-2.8,4.3-2.7,5.1c0.6,2.9,4.6,4.8,6.2,6.3v0
    c-0.5,0.2-4,2-4.9,3.9c-0.9,1.9,0.1,3.3,0.8,3.5c2.1,0.6,4.2-0.5,5.4-2.2c1.1-1.7,1-3.8,0.5-4.9c0.7-0.2,1.4-0.3,2.4-0.1
    c2.8,0.3,3.3,2.1,3.2,2.8c-0.1,0.7-0.7,1.1-0.9,1.2c-0.2,0.1-0.3,0.2-0.2,0.3c0,0.1,0.1,0.1,0.3,0.1c0.2,0,1.5-0.6,1.5-1.9
    c0.1-1.7-1.6-3.6-4.5-3.6c-1.2,0-1.9,0.1-2.5,0.3c0,0-0.1-0.1-0.1-0.1c-1.8-1.9-5.1-3.3-5-5.8C4.4,9,4.7,6.5,10.7,3.6
    c4.9-2.4,8.8-1.8,9.5-0.3c1,2.1-2.1,6.1-7.2,6.6c-1.9,0.2-3-0.5-3.2-0.8C9.5,8.8,9.5,8.8,9.4,8.9c-0.2,0.1-0.1,0.4,0,0.5
    c0.2,0.4,0.8,1.1,1.8,1.4c0.9,0.3,3.2,0.5,6-0.6C20.3,9,22.7,5.7,22,2.9z M8.8,17.3c0.2,0.9,0.2,1.7,0,2.4c0,0.1-0.1,0.2-0.1,0.2
    c0,0.1-0.1,0.2-0.1,0.2c-0.2,0.4-0.4,0.7-0.7,1.1c-0.9,1-2.2,1.4-2.8,1.1c-0.6-0.3-0.3-1.8,0.8-2.9c1.2-1.2,2.8-2,2.8-2l0,0
    C8.8,17.4,8.8,17.3,8.8,17.3z"/>
  </symbol>
  <symbol viewBox="0 0 24 24" id="css">
  	<polygon points="9.5,1.1 9.5,0 6.9,0 6.9,3.2 9.5,3.2 9.5,2.1 8,2.1 8,1.1 		"/>
  	<polygon points="13.3,0 10.6,0 10.6,1.1 11.7,2.1 10.6,2.1 10.6,3.2 13.3,3.2 13.3,2.2 12.3,1.1 13.3,1.1 		"/>
  	<polygon points="17.1,0 14.5,0 14.5,1.1 15.5,2.1 14.5,2.1 14.5,3.2 17.1,3.2 17.1,2.2 16.1,1.1 17.1,1.1 		"/>
  	<path d="M3.5,4.7L5,22.1L12,24l7-1.9l1.5-17.4H3.5z M17.1,10.3L12,12.5h4.9l-0.6,6.6L12,20.3v0l0,0l-4.4-1.2l-0.3-3.3h2.1l0.2,1.7
  		l2.4,0.6l0,0v0l2.4-0.7l0.2-2.8H12H7.2L7,12.5l5-2.1l0.3-0.1H12H6.8L6.7,8.1H12h0h5.3L17.1,10.3z"/>
  </symbol>
  <symbol viewBox="0 0 24 24" id="html">
		<path d="M5,0h1.1v1.1h1V0h1.1v3.2H7.1V2.2h-1v1.1H5C5,3.2,5,0,5,0z"/>
		<path d="M9.6,1.1h-1V0h3v1.1h-1v2.2H9.6L9.6,1.1L9.6,1.1z"/>
		<path d="M12.1,0h1.1L14,1.1L14.7,0h1.1v3.2h-1.1V1.6L14,2.8h0l-0.7-1.2v1.6h-1.1V0z"/>
		<path d="M16.3,0h1.1v2.2h1.5v1.1h-2.6V0z"/>
  	<path class="st0" d="M3.5,4.7L5,22.1l7,1.9l7-1.9l1.6-17.4H3.5z M7.6,19.1l-0.3-3.4h2.1l0.2,1.8l2.4,0.6l0,0v0l2.4-0.6l0.2-2.8H12
  		h0H7.2L6.7,8.2H12h5.3l-0.2,2.1H12H9l0.2,2.2H12h5l-0.6,6.6L12,20.3l0,0L7.6,19.1z"/>
  </symbol>
  <symbol viewBox="0 0 24 24" id="javascript">
    <path d="M3,3v18h18V3H3z M12.8,17c0,1.8-1,2.5-2.5,2.5c-1.4,0-2.1-0.7-2.5-1.5l0,0l0,0c0,0,0,0,0,0l1.4-0.8c0.3,0.5,0.5,0.9,1.1,0.9
	c0.6,0,0.9-0.2,0.9-1.1v-5.8h1.7V17z M16.8,19.6c-1.6,0-2.6-0.7-3.1-1.7h0l1.4-0.8c0.4,0.6,0.8,1,1.7,1c0.7,0,1.1-0.4,1.1-0.8
	c0-0.6-0.5-0.8-1.2-1.1L16.3,16c-1.2-0.5-2-1.2-2-2.5c0-1.3,1-2.2,2.5-2.2c1.1,0,1.8,0.4,2.4,1.4l-1.3,0.8c-0.3-0.5-0.6-0.7-1.1-0.7
	c-0.5,0-0.8,0.3-0.8,0.7c0,0.5,0.3,0.7,1,1l0.4,0.2c1.4,0.6,2.2,1.2,2.2,2.7C19.6,18.8,18.4,19.6,16.8,19.6z"/>
  </symbol>
  <symbol viewBox="0 0 24 24" id="expression-engine">
	<path d="M14.9,14.1c-0.6,0.6-1.2,1-1.6,1.2c-0.5,0.2-1,0.3-1.4,0.3c-0.6,0-1.1-0.2-1.4-0.6c-0.4-0.4-0.5-0.9-0.5-1.6l0-0.7l0.1,0
		c1.7-0.3,2.9-0.6,3.7-1c0.8-0.4,1.4-0.8,1.7-1.2c0.4-0.5,0.5-0.9,0.5-1.4c0-0.6-0.2-1-0.6-1.4c-0.4-0.4-1.1-0.5-1.9-0.5
		c-1.1,0-2.2,0.3-3.1,0.8c-1,0.5-1.7,1.2-2.3,2.1C7.5,11,7.2,12,7.2,12.9c0,1.1,0.3,1.9,1,2.6c0.7,0.6,1.6,0.9,2.7,0.9
		c0.8,0,1.6-0.2,2.3-0.5c0.7-0.3,1.4-0.8,2.1-1.6C15.2,14.3,15,14.1,14.9,14.1z M10,12.1c0.2-1.4,0.7-2.5,1.3-3.3
		c0.4-0.6,0.9-0.9,1.4-0.9c0.3,0,0.5,0.1,0.7,0.3c0.2,0.2,0.3,0.5,0.3,0.8c0,0.8-0.4,1.5-1.1,2.2c-0.5,0.5-1.4,0.8-2.5,1l-0.2,0
		L10,12.1z"/>
	<path d="M3.5,14.3c-0.9-3.7,1.3-7.6,5.2-9.4C8.6,4.9,8.5,5,8.4,5c0.1,0,0.2-0.1,0.3-0.1L1.4,6.8l1.9,1.1
		c-2.5,2.1-3.8,4.8-3.2,7.2C1.1,19,6.5,21,12.5,20C8.3,20.3,4.5,18,3.5,14.3z"/>
	<path d="M23.8,8.9C22.9,5,17.5,3,11.5,4c4.2-0.3,8.1,2,9,5.7c0.9,3.7-1.3,7.6-5.2,9.4c0.1,0,0.2-0.1,0.3-0.1
		c-0.1,0-0.2,0.1-0.3,0.1l7.2-1.9l-1.9-1.1C23.2,13.9,24.5,11.3,23.8,8.9z"/>
  </symbol>
  <symbol viewBox="0 0 24 24" id="wordpress">
    <path d="M12,2C6.5,2,2,6.5,2,12c0,5.5,4.5,10,10,10c5.5,0,10-4.5,10-10C22,6.5,17.5,2,12,2z M3,12c0-1.3,0.3-2.5,0.8-3.7l4.3,11.8
	C5.1,18.6,3,15.6,3,12z M12,21c-0.9,0-1.7-0.1-2.5-0.4l2.7-7.8l2.8,7.6c0,0,0,0.1,0.1,0.1C14.1,20.8,13,21,12,21z M13.2,7.8
	c0.5,0,1-0.1,1-0.1c0.5-0.1,0.4-0.8-0.1-0.7c0,0-1.5,0.1-2.4,0.1C10.9,7.1,9.4,7,9.4,7C9,6.9,8.9,7.7,9.4,7.7c0,0,0.5,0.1,0.9,0.1
	l1.4,3.8l-2,5.9L6.5,7.8c0.5,0,1-0.1,1-0.1C8,7.6,7.9,6.9,7.5,7c0,0-1.5,0.1-2.4,0.1c-0.2,0-0.4,0-0.6,0C6.1,4.6,8.9,3,12,3
	c2.3,0,4.5,0.9,6.1,2.4c0,0-0.1,0-0.1,0c-0.9,0-1.5,0.8-1.5,1.6c0,0.7,0.4,1.4,0.9,2.1c0.3,0.6,0.7,1.4,0.7,2.5
	c0,0.8-0.3,1.7-0.7,2.9l-0.9,3L13.2,7.8z M19.9,7.7C20.6,9,21,10.4,21,12c0,3.3-1.8,6.2-4.5,7.8l2.7-7.9c0.5-1.3,0.7-2.3,0.7-3.2
	C19.9,8.3,19.9,8,19.9,7.7z"/>
  </symbol>
  <symbol viewBox="0 0 24 24" id="bootstrap">
    <path d="M3.7,2h9.7c1.8,0,3.2,0.4,4.3,1.2c1.1,0.8,1.6,2.1,1.6,3.7c0,1-0.2,1.9-0.7,2.6c-0.5,0.7-1.2,1.3-2.1,1.7v0.1
		c1.2,0.3,2.2,0.8,2.8,1.8c0.6,0.9,1,2,1,3.4c0,0.8-0.1,1.5-0.4,2.2c-0.3,0.7-0.7,1.3-1.3,1.8c-0.6,0.5-1.4,0.9-2.3,1.2
		c-0.9,0.3-2,0.4-3.3,0.4H3.7V2z M7.2,10.4h5.7c0.8,0,1.5-0.2,2.1-0.7c0.6-0.5,0.8-1.2,0.8-2.1c0-1-0.3-1.7-0.8-2.1
		c-0.5-0.4-1.2-0.6-2.2-0.6H7.2V10.4z M7.2,19.1h6.2c1.1,0,1.9-0.3,2.5-0.8c0.6-0.6,0.9-1.3,0.9-2.3c0-1-0.3-1.8-0.9-2.3
		c-0.6-0.5-1.4-0.8-2.5-0.8H7.2V19.1z"/>
  </symbol>
  <symbol viewBox="0 0 24 24" id="foundation">
    <path d="M18.8,12.6c0.1-0.1,0.2-0.2,0.3-0.3c0.3-0.4,0.6-0.9,0.7-1.5c0.2-0.9,0.1-1.8-0.1-2.7c0-0.1,0-0.2,0-0.2
	c0.4-1,0.3-2.1,0.1-3.1c0,0,0-0.1,0-0.1c-0.1,0-0.1,0-0.1,0.1c-0.2,0.3-0.4,0.5-0.6,0.7c-0.1,0.1-0.1,0.1-0.2,0
	c-0.2-0.4-0.4-0.8-0.7-1.2c0,0,0,0,0-0.1c0.3-1,0.2-1.9-0.3-2.7c0-0.1-0.1-0.1-0.1-0.1c-0.1,0-0.1,0.1-0.1,0.2
	c-0.1,0.5-0.3,1-0.7,1.4c-0.4-0.3-0.7-0.7-1.2-0.9c-0.5-0.3-1-0.6-1.6-0.7c-0.2,0-0.3,0-0.2,0.2c0,0.2,0.1,0.4,0.1,0.6
	c-0.4-0.3-0.8-0.6-1.2-0.9C12.9,1.6,13,1.9,13,2.2c0,0.1,0,0.2-0.1,0.1c-0.4-0.1-0.7-0.2-1.1-0.3C10.9,1.8,10,1.7,9.1,1.8
	c-0.1,0-0.1,0-0.2,0C8.9,1.9,9,1.9,9,2c0.1,0.1,0.2,0.3,0.3,0.4c0,0,0,0.1,0,0.1c0,0-0.1,0-0.1,0C9.1,2.4,9,2.3,8.8,2.3
	c0,0-0.1,0-0.1,0c0,0,0,0.1,0,0.1C8.8,2.5,8.9,2.7,9,2.8C9,2.9,9,3,8.9,3C8.5,3,8.1,3,7.7,3C7.7,3,7.6,3,7.6,3c0.1,0,0.1,0,0.2,0
	c0,0,0,0,0-0.1C7.3,2.3,7.1,1.7,7,1.1C7,1,7,1,6.9,1C6.4,1.6,6.2,2.4,6.2,3.2C6,3.3,5.9,3.3,5.7,3.3c-0.1,0-0.1,0.1,0,0.2
	c0.1,0.1,0.2,0.2,0.3,0.4C6,3.9,6,3.9,6,4C6,4,5.9,4,5.9,4c-0.2,0-0.3,0-0.5,0c-0.2,0-0.4,0-0.6,0c0.3,0.3,0.5,0.5,0.7,0.8
	c0.1,0.1,0.1,0.2,0,0.2C5.2,5.2,4.9,5.4,4.6,5.7C4.6,5.8,4.2,6,4.2,6.1c0,0,0,0,0,0c0,0,0,0,0,0c0.2,0.3,0.4,0.5,0.6,0.8
	c0.4,0.6,0.9,1.1,1.3,1.7C6.3,8.8,6.4,8.9,6.5,9c0.1,0.1,0.1,0.1,0.3,0c0.3-0.2,0.6-0.5,0.9-0.7c0.3-0.2,0.7-0.3,1-0.5
	c0,0,0,0,0.1,0c1.1-0.5,2.3-0.6,3.6-0.5c0.6,0.1,1.3,0.2,1.8,0.7c0,0,0,0,0.1,0l0,0c0,0,0,0,0,0l0,0c0,0,0,0,0,0c0,0,0,0.1,0.1,0.1
	c0,0.1,0.1,0.2,0.1,0.3c0.2,0.5,0,1-0.4,1.2c-0.6,0.4-1.3,0.5-1.9,0.3c-0.5-0.1-0.8-0.4-1.2-0.7c0,0-0.1-0.1-0.2-0.1
	c0,0.1,0,0.3,0.1,0.4c0,0.1,0,0.2-0.2,0.1c-0.2-0.1-0.3-0.2-0.5-0.2c0.1,0.2,0.1,0.3,0.2,0.5c0.1,0.2,0.1,0.2-0.2,0.3
	c-0.2,0-0.7,0.1-1,0.1c0,0-0.1-0.3-0.1-0.3C9,10.3,8.9,10,8.9,10s0,0,0,0c0,0,0,0.3,0,0.3s0,2.9,0,4.2c0,0.1,0,0.2,0,0.3
	c0,0.1,0.1,0.1,0.1,0.1c0.3,0,0.7,0,1,0c1,0,2.1-0.1,3.1,0.1c0.4,0.1,0.8,0.2,1.2,0.4c0.3,0.2,0.6,0.5,0.5,1c0,0,0,0,0,0
	c0,0,0,0,0,0c-0.1,0.1-0.2,0.3-0.4,0.4C14,17,13.6,17,13.1,16.9c-0.3,0-0.6-0.1-1-0.2c0.2,0.2,0.3,0.3,0.5,0.5c0,0,0.1,0.1,0.1,0.1
	c0,0-0.1,0-0.1,0c-0.3,0-0.6-0.1-0.9-0.1c0,0-0.1,0-0.1,0c0,0.1,0,0.1,0.1,0.1c0.1,0.1,0.2,0.2,0.3,0.4c-0.1,0-0.1,0-0.2,0
	c-0.5-0.1-0.9-0.3-1.3-0.4c-0.8-0.4-1.4-0.9-2-1.5c0,0-0.1-0.1-0.2-0.1c0,0.2,0.1,0.3,0.1,0.4c0,0.1,0.1,0.2,0,0.2
	c-0.1,0.1-0.1,0-0.2-0.1c-0.2-0.1-0.3-0.2-0.5-0.3c-0.1,0-0.2-0.1-0.3-0.1c0.1,0.3,0.2,0.5,0.3,0.8c0,0,0,0,0,0
	c-0.1,0-0.1-0.1-0.2-0.1c-0.2-0.1-0.5-0.3-0.7-0.4h0c-0.1-0.1-0.1,0-0.1,0c-0.8,1-1.6,2.1-2.3,3.1c-0.1,0.1,0,0.1,0,0.2
	c0.3,0.3,0.5,0.5,0.8,0.7c0,0.1,0.1,0.1,0.1,0.1c0.1,0.1,0.3,0.2,0.4,0.3C5.5,21,5.6,21,5.6,21c0.3,0.2,0.6,0.4,0.9,0.6
	c1.3,0.8,2.8,1.2,4.3,1.2c0.7,0,1.5-0.1,2.2-0.2c0.2,0,0.3,0,0.2,0.2c0,0.1,0,0.1,0.1,0.1c0.2,0,0.5-0.1,0.7-0.2
	c0.1,0,0.1-0.1,0.1,0c0,0.2,0.1,0.2,0.2,0.1c1.1-0.2,2-0.8,2.9-1.4c0.3-0.2,0.5-0.4,0.8-0.6c0,0,0-0.1,0.1-0.1
	c0.8-0.8,1.3-1.7,1.5-2.8c0.1-0.4,0.1-0.7,0.1-1.1c0,0,0-0.1,0-0.1c0,0,0,0,0,0c0,0,0,0,0,0c0,0,0.1,0,0.1,0c0,0,0.1,0,0.1,0
	c0,0,0,0,0-0.1c0-0.7-0.3-1.4-0.6-2C19,14,18.3,13.4,17.5,13c-0.1,0-0.2,0-0.2-0.1c0-0.1,0.1-0.1,0.1-0.1c0.2-0.1,0.4-0.2,0.6-0.3
	c-0.2-0.1-0.5-0.2-0.7-0.3c0.6-0.3,1-0.7,1.3-1.2c0.1-0.1,0.1,0,0.1,0c0.1,0.3,0.1,0.6,0.1,0.9C18.8,12.2,18.8,12.4,18.8,12.6z
	 M7.3,3c-0.1,0-0.3,0.1-0.4,0c-0.1-0.4-0.1-1,0-1.3C7,2.2,7.2,2.6,7.3,3C7.3,3,7.3,3,7.3,3z M16.5,4.9c-0.1,0.1-0.1,0-0.2,0
	c-0.1-0.1-0.2-0.2-0.2-0.4c0-0.1,0-0.1,0.1-0.2c0.1-0.1,0.3-0.3,0.4-0.4c0.6-0.5,0.9-1.1,1.1-1.8c0,0,0-0.1,0-0.1
	C17.8,3.2,17.4,4.2,16.5,4.9z"/>
  </symbol>
  <symbol viewBox="0 0 24 24" id="less">
    <path d="M23,10.6c0-0.8,0.1-1.2,0.1-2c0-1.3-0.5-1.7-1.5-1.7h-0.8v0.9H21c0.5,0,0.7,0.2,0.7,0.8c0,0.6-0.1,1.2-0.1,1.9
	c0,0.9,0.3,1.3,0.9,1.4V12c-0.6,0.1-0.9,0.5-0.9,1.4c0,0.7,0.1,1.3,0.1,1.9c0,0.7-0.1,0.8-0.7,0.8v0h-0.2v0.9h0.8
	c1,0,1.5-0.4,1.5-1.7c0-0.8-0.1-1.3-0.1-2c0-0.4,0.3-0.8,1-0.9v-1C23.2,11.5,23,11,23,10.6z M19,11.8c-0.6-0.2-1.1-0.4-1.1-0.8
	c0-0.3,0.2-0.5,0.7-0.5s0.8,0.2,1.3,0.5l0.8-1c-0.5-0.4-1.2-0.8-2.1-0.8c-1.3,0-2.2,0.8-2.2,1.9c0,1,0.8,1.5,1.6,1.7
	c0.6,0.2,1.2,0.4,1.2,0.8c0,0.3-0.2,0.5-0.8,0.5c-0.5,0-1-0.2-1.5-0.6L16,14.7c0.6,0.5,1.5,0.8,2.2,0.8c1.6,0,2.4-0.8,2.4-1.9
	S19.8,12.1,19,11.8z M5.6,14c-0.1,0-0.3-0.1-0.3-0.5V7.8V6.9V6.9H2.4c-1.1,0-1.5,0.4-1.5,1.7c0,0.8,0.1,1.3,0.1,2
	c0,0.4-0.3,0.8-1,0.9v1c0.8,0,1,0.5,1,0.9c0,0.7-0.1,1.2-0.1,2c0,1.3,0.5,1.7,1.5,1.7h0.8v-0.9H3c-0.5,0-0.7-0.2-0.7-0.8
	s0.1-1.2,0.1-1.9c0-0.9-0.3-1.3-0.9-1.4V12c0.6-0.1,0.9-0.5,0.9-1.4c0-0.7-0.1-1.3-0.1-1.9C2.3,8,2.4,7.8,3,7.8h0.5
	c0,1.3,0,5.7,0,5.7c0,1.2,0.4,2,1.6,2c0.4,0,0.7-0.1,0.9-0.1L5.8,14C5.7,14,5.6,14,5.6,14z M14.2,11.8c-0.6-0.2-1.2-0.4-1.2-0.8
	c0-0.3,0.2-0.5,0.7-0.5c0.4,0,0.8,0.2,1.3,0.5l0.8-1c-0.5-0.4-1.2-0.8-2.1-0.8c-1.3,0-2.2,0.8-2.2,1.9c0,1,0.8,1.5,1.6,1.7
	c0.6,0.2,1.2,0.4,1.2,0.8c0,0.3-0.2,0.5-0.8,0.5c-0.5,0-1-0.2-1.5-0.6l-0.8,1.1c0.6,0.5,1.5,0.8,2.2,0.8c1.6,0,2.4-0.8,2.4-1.9
	S15,12.1,14.2,11.8z M8.4,9.2c-1.4,0-2.8,1.2-2.8,3.1c0,2,1.3,3.1,3,3.1c0.7,0,1.5-0.3,2.1-0.7l-0.6-1c-0.4,0.3-0.8,0.4-1.3,0.4
	c-0.8,0-1.4-0.4-1.6-1.3h3.6c0-0.1,0.1-0.4,0.1-0.7C11,10.5,10.1,9.2,8.4,9.2z M7.3,11.7c0.1-0.8,0.6-1.2,1.1-1.2c0.7,0,1,0.5,1,1.2
	H7.3z"/>
  </symbol>
  <symbol viewBox="0 0 24 24" id="git">
    <path d="M23.5,10.9L13.1,0.5c-0.6-0.6-1.6-0.6-2.2,0L8.7,2.6l2.8,2.8c0.6-0.2,1.4-0.1,1.9,0.4
	c0.5,0.5,0.7,1.3,0.4,1.9l2.7,2.7c0.6-0.2,1.4-0.1,1.9,0.4c0.7,0.7,0.7,1.9,0,2.6c-0.7,0.7-1.9,0.7-2.6,0c-0.5-0.5-0.7-1.3-0.4-2
	l-2.5-2.5l0,6.5c0.2,0.1,0.3,0.2,0.5,0.3c0.7,0.7,0.7,1.9,0,2.6c-0.7,0.7-1.9,0.7-2.6,0c-0.7-0.7-0.7-1.9,0-2.6
	c0.2-0.2,0.4-0.3,0.6-0.4V8.8c-0.2-0.1-0.4-0.2-0.6-0.4c-0.5-0.5-0.7-1.3-0.4-2L7.6,3.7l-7.2,7.2c-0.6,0.6-0.6,1.6,0,2.2l10.5,10.5
	c0.6,0.6,1.6,0.6,2.2,0l10.4-10.4C24.2,12.5,24.2,11.5,23.5,10.9"/>
  </symbol>
  <symbol viewBox="0 0 24 24" id="gulp">
    <path d="M8,7.2c0.5-0.6-0.2-1.5-0.7-1.9C6.6,4.7,5.7,4.6,4.9,5c-1.8,0.8-3,2.7-3.8,4.4c-0.7,1.5-1.7,4-0.7,5.6
		c1.2,2,3.5-0.2,4.5-1.2c-0.3,0.8-0.6,1.6-0.7,2.4c-0.1,0.5-0.1,1.7,0.7,1c0.5-0.5,0.6-1.5,0.7-2.1c0.2-0.8,0.5-1.6,0.8-2.4
		c0.1-0.3,1.5-4.2,0-3.3c-0.6,0.4-0.6,1.6-0.9,2.1c-0.3,0.7-0.9,1.3-1.5,1.9c-0.8,0.7-2.2,1.8-2.4,0.1C1.4,11.9,2.2,10.3,2.8,9
		C3.4,8,4.4,6.1,5.7,6c0.9-0.1,1,0.5,1.4,1.1C7.5,7.4,7.9,7.4,8,7.2C8.2,7,7.9,7.4,8,7.2z"/>
	  <path d="M23.9,12c-0.3-0.5-2.2,1.5-2.5,1.7c-0.2,0.2-1,1-1.3,0.8c-0.5-0.2,0.3-0.8,0.5-1.1c0.5-0.6,1.9-2.1,1.2-3
		c-0.9-1.1-2.5,0.3-3.2,1c0.4-0.9-0.3-1.6-0.9-0.6c-0.3,0.6-0.4,1.2-0.8,1.7c-0.5,0.6-1.3,1.3-2,1.6c-1.2,0.6-0.4-1-0.2-1.5
		c0.8-2,1.8-4,2.5-6c0.3-0.8-0.3-1.5-1-0.7c-0.6,0.7-0.9,2.1-1.2,3c-0.4,1-0.8,2-1.2,2.9c-0.3,0.8-0.4,1.9-1.2,2.3
		c-0.8,0.5-1.1,0.1-0.9-0.8c0.2-0.8,1.2-2.1,1-2.9c-0.1-0.3-0.3-0.6-0.6-0.5c-0.4,0.1-0.5,0.8-0.6,1.1c-0.3,0.9-0.7,1.7-1.3,2.4
		c-0.3,0.3-1.1,1.1-1.5,0.7c-0.4-0.4,0.5-2.1,0.7-2.5c0.2-0.4,0.8-1.1,0.4-1.5c-0.3-0.3-0.8,0-1,0.3c-0.6,0.8-1,2.1-1.2,3
		c-0.2,0.8-0.5,2,0.7,2.2c1.1,0.1,2.1-0.8,2.7-1.7c-0.1,0.5-0.3,1.2,0.2,1.5c0.6,0.5,1.6-0.3,2.1-0.6c0.3,1.9,2.7,0,3.3-0.6
		c-0.3,0.7-0.6,1.4-0.9,2.1c-0.3,0.6-0.8,1.4-0.9,2c-0.1,0.5,0,0.9,0.6,0.8c0.5-0.1,0.7-0.7,0.8-1.1c0.8-2.1,1.5-5,3.4-6.4
		c0.2-0.2,1.1-0.7,1.2-0.2c0.1,0.4-0.8,1.2-1.1,1.6c-0.5,0.7-1.9,2.4-0.2,2.6c1.2,0.2,2.3-0.9,3.1-1.6C23,13.6,24.3,12.7,23.9,12
		C23.8,11.8,24,12.1,23.9,12z"/>
  </symbol>
</svg>
