<?xml version="1.0" encoding="UTF-8" standalone="no"?>
<svg xmlns="http://www.w3.org/2000/svg" xmlns:xlink="http://www.w3.org/1999/xlink" xmlns:serif="http://www.serif.com/" width="100%" height="100%" viewBox="0 0 24 24" xml:space="preserve" style="fill-rule:evenodd;clip-rule:evenodd;stroke-linejoin:round;stroke-miterlimit:2;">
  <path d="M19.891,2.005l-15.782,0c-1.169,0 -2.104,0.935 -2.104,2.104l0,15.782c0,1.169 0.935,2.104 2.104,2.104l15.782,-0c1.145,-0 2.104,-0.935 2.104,-2.104l-0,-15.782c-0,-1.169 -0.935,-2.104 -2.104,-2.104m-7.926,12.181c0.655,0 1.356,-0.257 2.034,-0.865l0.935,1.075c-0.982,0.795 -2.104,1.24 -3.226,1.24c-2.221,-0 -3.624,-1.473 -3.297,-3.554c0.328,-2.081 2.221,-3.554 4.442,-3.554c1.076,0 2.081,0.421 2.783,1.192l-1.31,1.076c-0.374,-0.491 -1.005,-0.818 -1.706,-0.818c-1.333,-0 -2.362,0.865 -2.572,2.104c-0.187,1.239 0.561,2.104 1.917,2.104" style="fill-rule:nonzero;"></path>
</svg>
