<?xml version="1.0" encoding="UTF-8"?>
<svg xmlns="http://www.w3.org/2000/svg" viewBox="0 0 24 24">
  <polygon points="9.5,1.1 9.5,0 6.9,0 6.9,3.2 9.5,3.2 9.5,2.1 8,2.1 8,1.1   "></polygon>
  <polygon points="13.3,0 10.6,0 10.6,1.1 11.7,2.1 10.6,2.1 10.6,3.2 13.3,3.2 13.3,2.2 12.3,1.1 13.3,1.1   "></polygon>
  <polygon points="17.1,0 14.5,0 14.5,1.1 15.5,2.1 14.5,2.1 14.5,3.2 17.1,3.2 17.1,2.2 16.1,1.1 17.1,1.1   "></polygon>
  <path d="M3.5,4.7L5,22.1L12,24l7-1.9l1.5-17.4H3.5z M17.1,10.3L12,12.5h4.9l-0.6,6.6L12,20.3v0l0,0l-4.4-1.2l-0.3-3.3h2.1l0.2,1.7     l2.4,0.6l0,0v0l2.4-0.7l0.2-2.8H12H7.2L7,12.5l5-2.1l0.3-0.1H12H6.8L6.7,8.1H12h0h5.3L17.1,10.3z"></path>
</svg>
