<?xml version="1.0" encoding="UTF-8"?>
<svg xmlns="http://www.w3.org/2000/svg" viewBox="0 0 24 24">
  <path d="M23.5,10.9L13.1,0.5c-0.6-0.6-1.6-0.6-2.2,0L8.7,2.6l2.8,2.8c0.6-0.2,1.4-0.1,1.9,0.4  c0.5,0.5,0.7,1.3,0.4,1.9l2.7,2.7c0.6-0.2,1.4-0.1,1.9,0.4c0.7,0.7,0.7,1.9,0,2.6c-0.7,0.7-1.9,0.7-2.6,0c-0.5-0.5-0.7-1.3-0.4-2  l-2.5-2.5l0,6.5c0.2,0.1,0.3,0.2,0.5,0.3c0.7,0.7,0.7,1.9,0,2.6c-0.7,0.7-1.9,0.7-2.6,0c-0.7-0.7-0.7-1.9,0-2.6  c0.2-0.2,0.4-0.3,0.6-0.4V8.8c-0.2-0.1-0.4-0.2-0.6-0.4c-0.5-0.5-0.7-1.3-0.4-2L7.6,3.7l-7.2,7.2c-0.6,0.6-0.6,1.6,0,2.2l10.5,10.5  c0.6,0.6,1.6,0.6,2.2,0l10.4-10.4C24.2,12.5,24.2,11.5,23.5,10.9"></path>
</svg>
