<?xml version="1.0" encoding="UTF-8"?>
<svg xmlns="http://www.w3.org/2000/svg" viewBox="0 0 24 24">
  <path id="XMLID_13_" d="M6.76,9.243c-0.179-0.06-0.378-0.016-0.531,0.089C6.114,9.412,6.021,9.546,5.95,9.734l-0.584,1.749    c-0.071,0.149-0.178,0.324-0.32,0.525c-0.142,0.201-0.306,0.411-0.49,0.629c-0.184,0.218-0.383,0.434-0.597,0.647    c-0.214,0.213-0.426,0.404-0.638,0.573c-0.212,0.169-0.416,0.305-0.613,0.409c-0.252,0.134-0.621,0.254-0.87,0.041    c-0.09-0.077-0.161-0.175-0.214-0.294c-0.052-0.119-0.088-0.252-0.107-0.398C1.438,13,1.538,12.372,1.693,11.777    c0.136-0.523,0.319-1.054,0.55-1.592c0.23-0.538,0.495-1.064,0.795-1.578c0.299-0.514,0.613-0.97,0.939-1.369    c0.327-0.399,0.657-0.721,0.99-0.964C5.383,5.969,5.955,5.755,6.43,6.069c0.161,0.107,0.309,0.279,0.443,0.517    c0.195,0.36,0.658,1.208,1.14,0.625c0.181-0.219,0.178-0.569,0.132-0.83C8.127,6.275,8.082,6.17,8.01,6.065    C7.7,5.599,7.367,5.262,7.011,5.053C6.354,4.669,5.599,4.66,4.904,4.957C4.566,5.1,4.232,5.3,3.902,5.556    C3.571,5.811,3.248,6.116,2.934,6.471C2.62,6.826,2.324,7.214,2.045,7.635c-0.279,0.422-0.536,0.87-0.773,1.343    c-0.237,0.474-0.445,0.959-0.625,1.455c-0.18,0.496-0.326,0.995-0.437,1.496c-0.111,0.501-0.179,0.99-0.204,1.466    c-0.046,0.316,0.017,0.671,0.094,0.975c0.124,0.487,0.396,0.947,0.832,1.213c0.469,0.286,1.073,0.223,1.555,0.007    c0.276-0.124,0.551-0.284,0.823-0.48c0.272-0.196,0.538-0.417,0.798-0.662c0.26-0.245,0.5-0.492,0.722-0.74    c-0.177,0.548-0.355,1.096-0.518,1.648c-0.082,0.275-0.152,0.522-0.211,0.74c-0.059,0.218-0.09,0.367-0.094,0.447    c-0.024,0.219-0.043,0.52,0.085,0.707c0.114,0.168,0.377,0.16,0.525,0.048c0.076-0.057,0.144-0.129,0.207-0.216    c0.063-0.087,0.117-0.179,0.163-0.275c0.046-0.097,0.079-0.185,0.1-0.264c0.008-0.025,0.031-0.104,0.069-0.238    c0.038-0.134,0.085-0.3,0.141-0.499c0.057-0.199,0.12-0.421,0.192-0.666c0.071-0.246,0.146-0.496,0.223-0.752    c0.077-0.255,0.153-0.506,0.226-0.752c0.073-0.246,0.141-0.468,0.204-0.666c0.063-0.199,0.116-0.363,0.16-0.495    c0.044-0.131,0.074-0.21,0.091-0.234c0.075-0.218,0.153-0.428,0.232-0.629c0.079-0.201,0.152-0.401,0.217-0.599    c0.065-0.198,0.118-0.402,0.16-0.61C7.054,10.158,7.127,9.747,7.027,9.5C6.976,9.374,6.887,9.288,6.76,9.243z"></path>
  <path id="XMLID_14_" d="M23.931,11.97c-0.103-0.127-0.221-0.156-0.352-0.086c-0.05,0.025-0.105,0.057-0.163,0.097    c-0.561,0.501-1.033,0.917-1.417,1.246c-0.383,0.33-0.7,0.593-0.949,0.789c-0.249,0.196-0.443,0.334-0.581,0.413    c-0.142,0.082-0.559,0.25-0.559-0.082c0.004-0.045,0.06-0.13,0.167-0.257c0.107-0.126,0.239-0.28,0.396-0.461    c0.157-0.181,0.326-0.382,0.506-0.603c0.18-0.221,0.348-0.448,0.503-0.681c0.155-0.233,0.284-0.465,0.386-0.696    c0.142-0.318,0.239-0.733,0.053-1.057c-0.067-0.117-0.154-0.213-0.261-0.29c-0.394-0.284-0.943-0.291-1.379-0.108    c-0.201,0.085-0.398,0.194-0.591,0.328c-0.193,0.134-0.379,0.284-0.559,0.45c-0.18,0.166-0.348,0.334-0.503,0.502    c0.013-0.03,0.026-0.077,0.041-0.141c0.015-0.065,0.028-0.133,0.041-0.205c0.013-0.072,0.023-0.14,0.031-0.205    c0.02-0.156,0.019-0.358-0.101-0.48c-0.191-0.195-0.512-0.135-0.669,0.06c-0.094,0.116-0.179,0.254-0.254,0.413    c-0.076,0.159-0.142,0.32-0.201,0.484c-0.059,0.164-0.105,0.29-0.138,0.38c-0.057,0.204-0.145,0.427-0.217,0.64    c-0.025,0.014-0.052,0.024-0.072,0.045c-0.117,0.119-0.25,0.249-0.399,0.391c-0.149,0.141-0.305,0.283-0.468,0.424    c-0.163,0.141-0.328,0.278-0.493,0.409c-0.165,0.132-0.325,0.248-0.477,0.35c-0.153,0.102-0.295,0.184-0.427,0.246    c-0.086,0.041-0.391,0.175-0.474,0.026c-0.086-0.154-0.016-0.434,0.028-0.584c0.044-0.151,0.089-0.284,0.135-0.398    c0.105-0.268,0.229-0.584,0.374-0.949c0.145-0.365,0.299-0.75,0.465-1.157c0.165-0.407,0.335-0.825,0.509-1.254    c0.174-0.429,0.343-0.842,0.509-1.239c0.165-0.397,0.32-0.764,0.465-1.101c0.145-0.337,0.269-0.622,0.374-0.856    c0.054-0.114,0.099-0.221,0.135-0.32c0.073-0.204,0.088-0.538-0.107-0.692c-0.223-0.176-0.51-0.151-0.741-0.007    c-0.128,0.079-0.229,0.216-0.305,0.409l-1.904,4.8c-0.126,0.318-0.264,0.667-0.415,1.049c-0.151,0.382-0.3,0.766-0.446,1.153    c-0.077,0.197-0.143,0.417-0.2,0.65c-0.056,0.047-0.112,0.108-0.168,0.15c-0.211,0.161-0.414,0.286-0.606,0.376    c-0.738,0.342-0.832-0.139-0.675-0.763c0.057-0.226,0.128-0.456,0.214-0.692c0.086-0.236,0.179-0.467,0.28-0.696    c0.1-0.228,0.194-0.443,0.279-0.644c0.086-0.201,0.157-0.379,0.214-0.536c0.094-0.26,0.135-0.541-0.047-0.778    c-0.365-0.473-0.803,0.067-0.949,0.402c-0.071,0.164-0.137,0.342-0.198,0.536c-0.061,0.193-0.131,0.375-0.211,0.543    c-0.113,0.253-0.254,0.532-0.424,0.837c-0.17,0.305-0.359,0.591-0.568,0.856c-0.21,0.265-0.438,0.487-0.685,0.666    c-0.176,0.127-0.808,0.474-0.986,0.156c-0.042-0.074-0.063-0.156-0.063-0.246c0.008-0.213,0.044-0.433,0.107-0.658    c0.063-0.226,0.138-0.448,0.226-0.666c0.088-0.218,0.183-0.429,0.286-0.632c0.103-0.203,0.2-0.393,0.292-0.569    c0.092-0.176,0.173-0.332,0.242-0.469c0.069-0.136,0.114-0.247,0.135-0.331c0.033-0.115,0.023-0.228-0.031-0.338    c-0.034-0.057-0.078-0.104-0.132-0.141c-0.055-0.037-0.113-0.064-0.176-0.082c-0.188-0.051-0.396-0.017-0.556,0.097    c-0.115,0.082-0.217,0.217-0.305,0.406c-0.343,0.714-0.609,1.322-0.798,1.823c-0.188,0.501-0.328,0.909-0.418,1.224    c-0.09,0.315-0.144,0.546-0.16,0.692c-0.029,0.257-0.04,0.512,0.063,0.759c0.059,0.142,0.136,0.254,0.233,0.339    c0.096,0.084,0.208,0.144,0.336,0.178c0.4,0.109,0.867,0.048,1.247-0.1c0.496-0.194,0.926-0.532,1.263-0.941    c0.163-0.198,0.299-0.394,0.408-0.588c-0.091,0.41-0.243,1.128,0.088,1.481c0.305,0.324,0.819,0.189,1.169,0.033    c0.251-0.112,0.507-0.259,0.766-0.443c0.08-0.057,0.155-0.132,0.233-0.194c0.007,0.054,0,0.111,0.012,0.164    c0.029,0.129,0.078,0.241,0.148,0.335c0.069,0.094,0.161,0.169,0.276,0.223c0.367,0.174,0.857,0.059,1.206-0.097    c0.266-0.119,0.534-0.279,0.804-0.48c0.297-0.221,0.576-0.465,0.843-0.722c-0.042,0.098-0.077,0.191-0.121,0.29    c-0.216,0.489-0.441,0.982-0.675,1.481c-0.234,0.499-0.465,0.996-0.691,1.492c-0.033,0.089-0.07,0.182-0.11,0.279    c-0.04,0.097-0.079,0.196-0.116,0.297c-0.038,0.102-0.069,0.205-0.094,0.309c-0.045,0.188-0.085,0.575,0.11,0.718    c0.186,0.135,0.496,0.138,0.691,0.03c0.094-0.052,0.178-0.122,0.251-0.208c0.073-0.087,0.138-0.187,0.195-0.301    c0.056-0.114,0.106-0.236,0.148-0.365c0.013-0.045,0.042-0.129,0.088-0.253c0.046-0.124,0.099-0.268,0.16-0.432    c0.13-0.349,0.261-0.697,0.393-1.046c0.063-0.166,0.118-0.311,0.167-0.435c0.048-0.124,0.083-0.208,0.104-0.253    c0.017-0.035,0.045-0.098,0.085-0.19c0.04-0.092,0.085-0.196,0.135-0.313c0.05-0.116,0.106-0.24,0.166-0.372    c0.061-0.131,0.118-0.259,0.173-0.383c0.054-0.124,0.105-0.236,0.151-0.335c0.046-0.099,0.082-0.176,0.107-0.231    c0.084-0.174,0.185-0.363,0.305-0.569c0.12-0.206,0.251-0.41,0.396-0.614c0.145-0.203,0.299-0.399,0.465-0.588    c0.165-0.188,0.335-0.356,0.509-0.502c0.174-0.146,0.35-0.263,0.528-0.35c0.151-0.074,0.557-0.218,0.726-0.078    c0.154,0.129-0.021,0.423-0.088,0.528c-0.1,0.159-0.227,0.334-0.38,0.525c-0.153,0.191-0.319,0.393-0.5,0.607    c-0.33,0.391-0.659,0.793-0.917,1.235c-0.113,0.193-0.178,0.365-0.195,0.513c-0.043,0.25,0.057,0.534,0.254,0.692    c0.445,0.356,1.215,0.222,1.693,0.015c0.297-0.129,0.602-0.311,0.914-0.547s0.644-0.517,0.996-0.845    c0.352-0.328,0.752-0.69,1.2-1.087c0.113-0.089,0.198-0.201,0.254-0.335C24.001,12.462,24.046,12.174,23.931,11.97z"></path>
</svg>
