<?xml version="1.0" encoding="UTF-8"?>
<svg xmlns="http://www.w3.org/2000/svg" viewBox="0 0 24 24">
  <path d="M23,10.6c0-0.8,0.1-1.2,0.1-2c0-1.3-0.5-1.7-1.5-1.7h-0.8v0.9H21c0.5,0,0.7,0.2,0.7,0.8c0,0.6-0.1,1.2-0.1,1.9  c0,0.9,0.3,1.3,0.9,1.4V12c-0.6,0.1-0.9,0.5-0.9,1.4c0,0.7,0.1,1.3,0.1,1.9c0,0.7-0.1,0.8-0.7,0.8v0h-0.2v0.9h0.8  c1,0,1.5-0.4,1.5-1.7c0-0.8-0.1-1.3-0.1-2c0-0.4,0.3-0.8,1-0.9v-1C23.2,11.5,23,11,23,10.6z M19,11.8c-0.6-0.2-1.1-0.4-1.1-0.8  c0-0.3,0.2-0.5,0.7-0.5s0.8,0.2,1.3,0.5l0.8-1c-0.5-0.4-1.2-0.8-2.1-0.8c-1.3,0-2.2,0.8-2.2,1.9c0,1,0.8,1.5,1.6,1.7  c0.6,0.2,1.2,0.4,1.2,0.8c0,0.3-0.2,0.5-0.8,0.5c-0.5,0-1-0.2-1.5-0.6L16,14.7c0.6,0.5,1.5,0.8,2.2,0.8c1.6,0,2.4-0.8,2.4-1.9  S19.8,12.1,19,11.8z M5.6,14c-0.1,0-0.3-0.1-0.3-0.5V7.8V6.9V6.9H2.4c-1.1,0-1.5,0.4-1.5,1.7c0,0.8,0.1,1.3,0.1,2  c0,0.4-0.3,0.8-1,0.9v1c0.8,0,1,0.5,1,0.9c0,0.7-0.1,1.2-0.1,2c0,1.3,0.5,1.7,1.5,1.7h0.8v-0.9H3c-0.5,0-0.7-0.2-0.7-0.8  s0.1-1.2,0.1-1.9c0-0.9-0.3-1.3-0.9-1.4V12c0.6-0.1,0.9-0.5,0.9-1.4c0-0.7-0.1-1.3-0.1-1.9C2.3,8,2.4,7.8,3,7.8h0.5  c0,1.3,0,5.7,0,5.7c0,1.2,0.4,2,1.6,2c0.4,0,0.7-0.1,0.9-0.1L5.8,14C5.7,14,5.6,14,5.6,14z M14.2,11.8c-0.6-0.2-1.2-0.4-1.2-0.8  c0-0.3,0.2-0.5,0.7-0.5c0.4,0,0.8,0.2,1.3,0.5l0.8-1c-0.5-0.4-1.2-0.8-2.1-0.8c-1.3,0-2.2,0.8-2.2,1.9c0,1,0.8,1.5,1.6,1.7  c0.6,0.2,1.2,0.4,1.2,0.8c0,0.3-0.2,0.5-0.8,0.5c-0.5,0-1-0.2-1.5-0.6l-0.8,1.1c0.6,0.5,1.5,0.8,2.2,0.8c1.6,0,2.4-0.8,2.4-1.9  S15,12.1,14.2,11.8z M8.4,9.2c-1.4,0-2.8,1.2-2.8,3.1c0,2,1.3,3.1,3,3.1c0.7,0,1.5-0.3,2.1-0.7l-0.6-1c-0.4,0.3-0.8,0.4-1.3,0.4  c-0.8,0-1.4-0.4-1.6-1.3h3.6c0-0.1,0.1-0.4,0.1-0.7C11,10.5,10.1,9.2,8.4,9.2z M7.3,11.7c0.1-0.8,0.6-1.2,1.1-1.2c0.7,0,1,0.5,1,1.2  H7.3z"></path>
</svg>
