<?xml version="1.0" encoding="UTF-8" standalone="no"?>
<svg xmlns="http://www.w3.org/2000/svg" xmlns:xlink="http://www.w3.org/1999/xlink" xmlns:serif="http://www.serif.com/" width="100%" height="100%" viewBox="0 0 24 24" xml:space="preserve" style="fill-rule:evenodd;clip-rule:evenodd;stroke-linejoin:round;stroke-miterlimit:2;">
  <path d="M11.589,21.8l1.477,-1.48c0.117,-0.118 0.276,-0.184 0.443,-0.184l1.806,-0c1.67,-0 2.276,-0.174 2.886,-0.502c0.611,-0.327 1.09,-0.807 1.417,-1.419c0.326,-0.612 0.5,-1.219 0.5,-2.893l0,-2.393c0,-0.07 0.056,-0.126 0.125,-0.126c0.034,0 0.065,0.014 0.089,0.037l1.477,1.48c0.117,0.117 0.183,0.276 0.183,0.442l-0,0.833c-0,2.232 -0.232,3.041 -0.668,3.857c-0.435,0.816 -1.074,1.456 -1.888,1.893c-0.814,0.436 -1.622,0.668 -3.849,0.668l-3.91,0c-0.069,0 -0.125,-0.056 -0.125,-0.125c0,-0.033 0.013,-0.065 0.037,-0.088Zm-9.367,-10.212l1.477,1.48c0.117,0.118 0.183,0.277 0.183,0.442l-0,1.812c-0,1.674 0.174,2.281 0.5,2.893c0.327,0.612 0.806,1.092 1.417,1.419c0.61,0.327 1.216,0.502 2.886,0.502l2.389,-0c0.069,-0 0.125,0.056 0.125,0.125c-0,0.033 -0.013,0.065 -0.037,0.088l-1.477,1.48c-0.117,0.118 -0.276,0.184 -0.443,0.184l-0.829,0c-2.227,0 -3.035,-0.232 -3.849,-0.669c-0.814,-0.436 -1.453,-1.076 -1.888,-1.892c-0.436,-0.816 -0.668,-1.625 -0.668,-3.857l0,-3.918c0,-0.069 0.056,-0.125 0.125,-0.125c0.034,-0 0.066,0.013 0.089,0.036Zm12.478,7.086l1.925,-2.019c0.133,-0.134 0.23,-0.29 0.291,-0.456c0.051,-0.138 0.08,-0.287 0.08,-0.443l-0,-5.957c-0,-0.069 0.056,-0.125 0.125,-0.125c0.033,0 0.065,0.013 0.089,0.037l1.477,1.481c0.117,0.118 0.182,0.277 0.182,0.442l0,4.748c0,1.383 -1.118,2.503 -2.498,2.503l-1.581,0c-0.069,0 -0.125,-0.056 -0.125,-0.125c0,-0.032 0.012,-0.063 0.035,-0.086Zm-9.357,-3.968l2.013,1.929c0.134,0.134 0.289,0.231 0.456,0.291c0.137,0.052 0.286,0.081 0.441,0.081l5.945,-0c0.069,-0 0.125,0.056 0.125,0.125c-0,0.033 -0.013,0.065 -0.037,0.088l-1.478,1.481c-0.117,0.117 -0.277,0.183 -0.443,0.183l-4.736,0c-1.38,0 -2.498,-1.121 -2.498,-2.503l-0,-1.584c-0,-0.07 0.056,-0.126 0.125,-0.126c0.032,0 0.063,0.013 0.087,0.035Zm3.957,-9.379l-1.925,2.019c-0.133,0.134 -0.23,0.29 -0.29,0.456c-0.052,0.138 -0.081,0.287 -0.081,0.443l0,5.957c0,0.069 -0.056,0.125 -0.125,0.125c-0.033,-0 -0.065,-0.013 -0.089,-0.037l-1.477,-1.481c-0.116,-0.118 -0.182,-0.277 -0.182,-0.442l-0,-4.748c-0,-1.383 1.118,-2.503 2.498,-2.503l1.581,-0c0.069,-0 0.125,0.056 0.125,0.125c0,0.032 -0.012,0.063 -0.035,0.086Zm12.478,7.084l-1.477,-1.48c-0.117,-0.117 -0.183,-0.276 -0.183,-0.442l0,-1.811c0,-1.674 -0.174,-2.281 -0.5,-2.893c-0.327,-0.612 -0.806,-1.092 -1.417,-1.419c-0.61,-0.328 -1.216,-0.502 -2.886,-0.502l-2.389,0c-0.069,0 -0.125,-0.056 -0.125,-0.125c0,-0.033 0.013,-0.065 0.037,-0.088l1.476,-1.481c0.118,-0.117 0.277,-0.183 0.444,-0.183l0.829,-0c2.227,-0 3.035,0.232 3.849,0.668c0.814,0.437 1.453,1.077 1.888,1.893c0.436,0.816 0.668,1.625 0.668,3.857l-0,3.918c-0,0.069 -0.056,0.125 -0.126,0.125c-0.033,0 -0.065,-0.013 -0.088,-0.037Zm-9.367,-10.211l-1.477,1.48c-0.117,0.118 -0.276,0.184 -0.443,0.184l-1.806,0c-1.67,0 -2.276,0.174 -2.886,0.502c-0.611,0.327 -1.09,0.807 -1.417,1.419c-0.326,0.612 -0.5,1.219 -0.5,2.893l-0,2.393c-0,0.07 -0.056,0.126 -0.125,0.126c-0.034,-0 -0.066,-0.014 -0.089,-0.037l-1.477,-1.48c-0.117,-0.118 -0.183,-0.277 -0.183,-0.442l0,-0.833c0,-2.232 0.232,-3.041 0.668,-3.857c0.435,-0.816 1.074,-1.456 1.888,-1.893c0.814,-0.436 1.622,-0.668 3.849,-0.668l3.91,-0c0.069,-0 0.125,0.056 0.125,0.125c-0,0.033 -0.013,0.065 -0.037,0.088Zm6.247,7.094l-2.014,-1.929c-0.134,-0.134 -0.289,-0.231 -0.455,-0.291c-0.138,-0.052 -0.287,-0.081 -0.442,-0.081l-5.945,0c-0.069,0 -0.125,-0.056 -0.125,-0.125c0,-0.033 0.013,-0.065 0.037,-0.089l1.478,-1.48c0.118,-0.117 0.277,-0.183 0.443,-0.183l4.736,-0c1.38,-0 2.498,1.12 2.498,2.503l0,1.584c0,0.069 -0.056,0.125 -0.125,0.125c-0.032,0 -0.063,-0.012 -0.086,-0.034Z"></path>
</svg>
