<?xml version="1.0" encoding="UTF-8" standalone="no"?>
<svg xmlns="http://www.w3.org/2000/svg" xmlns:xlink="http://www.w3.org/1999/xlink" xmlns:serif="http://www.serif.com/" width="100%" height="100%" viewBox="0 0 24 24" xml:space="preserve" style="fill-rule:evenodd;clip-rule:evenodd;stroke-linejoin:round;stroke-miterlimit:2;">
  <path d="M21.978,13.184l-4.108,0c-0.382,0.017 -0.756,0.119 -1.094,0.299l-8.98,5.276c-0.336,0.181 -0.709,0.284 -1.091,0.299l-4.683,-0l-0,2.348c0.009,0.315 0.27,0.57 0.585,0.572l18.786,0c0.319,-0.002 0.582,-0.263 0.585,-0.582l0,-2.348l-4.696,-0c-0.382,-0.015 -0.755,-0.118 -1.091,-0.299l-2.688,-1.577c-0.112,-0.056 -0.184,-0.172 -0.184,-0.298c0,-0.126 0.072,-0.241 0.184,-0.297l1.278,-0.749c0.312,-0.161 0.685,-0.161 0.997,0l0.998,0.579c0.337,0.182 0.712,0.284 1.094,0.299l4.108,0l0,-3.522Zm0,-5.88l-4.108,-0c-0.382,0.016 -0.756,0.119 -1.094,0.299l-8.98,5.278c-0.337,0.181 -0.71,0.283 -1.091,0.3l-4.683,-0l-0,3.522l4.108,0c0.382,-0.017 0.756,-0.119 1.094,-0.299l8.98,-5.279c0.337,-0.18 0.71,-0.282 1.091,-0.299l4.683,-0l0,-3.522Zm-0.585,-5.282l-18.786,-0c-0.321,-0 -0.585,0.264 -0.585,0.585l-0,2.348l4.696,0c0.382,0.017 0.755,0.12 1.091,0.3l2.688,1.58c0.111,0.056 0.181,0.171 0.181,0.296c-0,0.124 -0.07,0.239 -0.181,0.296l-1.278,0.751c-0.312,0.162 -0.685,0.162 -0.997,0l-0.998,-0.582c-0.338,-0.18 -0.712,-0.282 -1.094,-0.299l-4.108,-0l-0,3.522l4.108,0c0.382,-0.015 0.757,-0.117 1.094,-0.299l8.98,-5.275c0.336,-0.182 0.709,-0.284 1.091,-0.3l4.683,0l0,-2.348c-0.005,-0.317 -0.268,-0.575 -0.585,-0.575Z" style="fill-rule:nonzero;"></path>
</svg>
