<?xml version="1.0" encoding="UTF-8"?>
<svg xmlns="http://www.w3.org/2000/svg" viewBox="0 0 24 24">
  <path d="M12,2C6.5,2,2,6.5,2,12c0,5.5,4.5,10,10,10c5.5,0,10-4.5,10-10C22,6.5,17.5,2,12,2z M3,12c0-1.3,0.3-2.5,0.8-3.7l4.3,11.8  C5.1,18.6,3,15.6,3,12z M12,21c-0.9,0-1.7-0.1-2.5-0.4l2.7-7.8l2.8,7.6c0,0,0,0.1,0.1,0.1C14.1,20.8,13,21,12,21z M13.2,7.8  c0.5,0,1-0.1,1-0.1c0.5-0.1,0.4-0.8-0.1-0.7c0,0-1.5,0.1-2.4,0.1C10.9,7.1,9.4,7,9.4,7C9,6.9,8.9,7.7,9.4,7.7c0,0,0.5,0.1,0.9,0.1  l1.4,3.8l-2,5.9L6.5,7.8c0.5,0,1-0.1,1-0.1C8,7.6,7.9,6.9,7.5,7c0,0-1.5,0.1-2.4,0.1c-0.2,0-0.4,0-0.6,0C6.1,4.6,8.9,3,12,3  c2.3,0,4.5,0.9,6.1,2.4c0,0-0.1,0-0.1,0c-0.9,0-1.5,0.8-1.5,1.6c0,0.7,0.4,1.4,0.9,2.1c0.3,0.6,0.7,1.4,0.7,2.5  c0,0.8-0.3,1.7-0.7,2.9l-0.9,3L13.2,7.8z M19.9,7.7C20.6,9,21,10.4,21,12c0,3.3-1.8,6.2-4.5,7.8l2.7-7.9c0.5-1.3,0.7-2.3,0.7-3.2  C19.9,8.3,19.9,8,19.9,7.7z"></path>
</svg>
